<svg width="371" height="302" viewBox="0 0 371 302" fill="none" xmlns="http://www.w3.org/2000/svg">
<g clip-path="url(#clip0_358_11050)">
<path d="M370.706 89.6421L316.401 168.738L314.106 150.939L154.801 256.076L150.566 204.421L30.5285 275.703L16.3018 240.142L182.027 153.061L186.875 199.809L309.588 115.831L307.71 101.308L370.706 89.6421Z" fill="#E5E6EC"/>
<path d="M337.146 135.728L336.434 136.194L336.974 135.323L337.146 135.728Z" fill="#E5E6EC"/>
<path opacity="0.45" d="M168.72 301.144C261.739 301.144 337.145 296.619 337.145 291.036C337.145 285.454 261.739 280.928 168.72 280.928C75.7015 280.928 0.294922 285.454 0.294922 291.036C0.294922 296.619 75.7015 301.144 168.72 301.144Z" fill="#E5E6EC"/>
<path d="M290.5 143.787C291.257 144.838 291.756 146.052 291.955 147.332C292.155 148.611 292.049 149.92 291.647 151.151C291.245 152.382 290.559 153.501 289.643 154.417C288.727 155.333 287.607 156.02 286.375 156.422C280.594 158.372 271.351 159.783 258.818 156.422C236.011 150.289 228.057 112.36 228.057 112.36C228.057 112.36 223.761 105.981 226.977 103.246C230.193 100.51 232.807 110.495 232.807 110.495C232.807 110.495 237.521 128.687 254.546 135.335C268.38 140.733 283.884 134.661 290.5 143.787Z" fill="#F4A28C"/>
<path opacity="0.09" d="M290.5 143.787C291.257 144.838 291.756 146.052 291.955 147.332C292.155 148.611 292.049 149.92 291.647 151.151C291.245 152.382 290.559 153.501 289.643 154.417C288.727 155.333 287.607 156.02 286.375 156.422C280.594 158.372 271.351 159.783 258.818 156.422C236.011 150.289 228.057 112.36 228.057 112.36C228.057 112.36 223.761 105.981 226.977 103.246C230.193 100.51 232.807 110.495 232.807 110.495C232.807 110.495 237.521 128.687 254.546 135.335C268.38 140.733 283.884 134.661 290.5 143.787Z" fill="black"/>
<path d="M296.196 224.502L274.101 283.247L269.756 283.002L277.342 221.595L296.196 224.502Z" fill="#F4A28C"/>
<path d="M311.638 218.099L306.495 242.289L323.422 230.476L326.331 234.278C326.331 234.278 308.876 259.425 296.208 255.708C283.54 251.991 293.851 212.849 293.851 212.849L311.638 218.099Z" fill="#F4A28C"/>
<path d="M290.182 117.046L294.65 137.077L283.418 138.746L284.682 123.498L290.182 117.046Z" fill="#F4A28C"/>
<path opacity="0.31" d="M284.264 126.822C285.656 126.372 286.883 125.518 287.787 124.369C287.787 124.369 287.861 128.123 283.97 132.085L284.264 126.822Z" fill="#CE8172"/>
<path d="M278.655 116.96C278.776 120.441 279.362 123.889 280.398 127.215C280.547 127.602 280.771 127.956 281.058 128.256C281.344 128.556 281.687 128.797 282.067 128.964C282.447 129.132 282.856 129.223 283.271 129.232C283.686 129.241 284.099 129.169 284.485 129.018C285.759 128.607 286.886 127.837 287.733 126.801C288.58 125.766 289.11 124.508 289.26 123.179L290.488 117.524C290.611 116.365 290.372 115.196 289.802 114.179C289.233 113.162 288.362 112.346 287.309 111.845C283.491 109.747 278.348 113.145 278.655 116.96Z" fill="#F4A28C"/>
<path d="M285.909 121.56C285.909 121.56 285.676 119.107 287.493 119.107C289.309 119.107 289.678 122.541 287.272 123.155L285.909 121.56Z" fill="#F4A28C"/>
<path d="M278.987 120.898L277.563 123.498C277.479 123.646 277.435 123.813 277.434 123.983C277.432 124.153 277.474 124.32 277.555 124.47C277.636 124.619 277.753 124.746 277.896 124.837C278.039 124.929 278.203 124.983 278.373 124.995L280.828 125.154L278.987 120.898Z" fill="#F4A28C"/>
<path d="M283.418 138.733C283.418 138.733 256.093 149.037 263.52 167.842C268.896 181.458 276.077 178.956 277.882 189.812L279.784 200.496L307.587 192.204C307.587 192.204 304.322 176.564 306.126 166.186C307.931 155.808 313.43 129.999 283.418 138.733Z" fill="#525F9B"/>
<path opacity="0.09" d="M290.733 144.781C290.733 144.781 280.128 159.636 289.506 174.81C291.089 177.373 292.489 180.072 293.839 182.771L299.731 194.571L307.611 192.216L306.519 185.653L290.733 144.781Z" fill="black"/>
<path d="M287.493 119.107C287.493 119.107 282.656 138.463 289.137 141.089C295.619 143.714 306.163 141.457 306.445 133.446C306.727 125.436 298.798 124.602 297.165 113.697C295.533 102.792 274.665 106.57 275.353 112.875C276.04 119.18 287.493 119.107 287.493 119.107Z" fill="#FEA771"/>
<path d="M307.587 192.216L279.784 200.508L274.592 233.187L311.859 232.708C311.859 232.708 321.421 208.175 307.587 192.216Z" fill="#273782"/>
<path d="M270.074 283.014C270.074 283.014 267.509 285.921 264.452 285.59C261.396 285.259 260.696 289.577 265.68 289.405C267.222 289.36 268.757 289.188 270.271 288.89C271.663 288.648 273.095 288.779 274.42 289.27C274.68 289.343 274.955 289.336 275.211 289.251C275.467 289.165 275.692 289.006 275.856 288.792C277.353 287.221 274.125 283.247 274.125 283.247L270.074 283.014Z" fill="#525F9B"/>
<path d="M325.938 234.413C325.938 234.413 329.805 234.548 331.511 237.112C333.217 239.676 336.973 237.455 333.684 233.751C332.673 232.586 331.56 231.515 330.357 230.549C329.288 229.622 328.476 228.435 328 227.102C327.899 226.862 327.728 226.657 327.509 226.515C327.29 226.373 327.034 226.3 326.773 226.305C324.612 226.146 323.471 230.525 323.471 230.525L325.938 234.413Z" fill="#525F9B"/>
<path d="M82.3903 283.124C82.3903 283.124 84.3297 286.252 87.4476 285.847C90.5654 285.443 91.9893 288.301 89.4116 289.638C86.8338 290.975 78.9901 288.988 78.9901 288.988L78.0449 283.345L82.3903 283.124Z" fill="#525F9B"/>
<path d="M101.11 151.626C101.11 151.626 131.994 131.827 143.667 111.317L139.739 107C139.739 107 113.188 130.478 89.915 134.526L101.11 151.626Z" fill="#F4A28C"/>
<path d="M143.667 111.317C143.729 111.317 146.122 108.312 146.208 108.104C147.171 106.771 147.772 105.211 147.951 103.577C147.903 102.625 147.594 101.705 147.057 100.917C146.52 100.13 145.776 99.5051 144.907 99.112C144.531 98.8806 144.092 98.7727 143.652 98.8035C143.211 98.8343 142.792 99.0023 142.452 99.2838C142.236 99.5437 142.073 99.8439 141.973 100.167C141.716 100.861 141.498 101.57 141.323 102.289C141.198 101.752 141.017 101.23 140.783 100.731C140.684 100.523 140.549 100.29 140.316 100.253C140.207 100.241 140.097 100.265 140.002 100.32C139.907 100.375 139.832 100.459 139.788 100.56C139.704 100.761 139.662 100.979 139.666 101.197C139.604 102.424 139.518 103.651 139.481 104.877C139.513 105.319 139.574 105.757 139.666 106.19C139.666 106.349 139.666 106.877 139.788 107.012L143.667 111.317Z" fill="#F4A28C"/>
<path d="M59.2391 160.261C70.4462 164.076 88.6992 166.039 108.204 150.583L102.963 128.27C102.963 128.27 71.6001 132.6 56.3177 145.443C55.1504 146.443 54.2699 147.735 53.7662 149.186C53.2625 150.638 53.1536 152.197 53.4508 153.704C53.748 155.212 54.4405 156.613 55.4575 157.765C56.4746 158.917 57.7796 159.779 59.2391 160.261Z" fill="#525F9B"/>
<path opacity="0.46" d="M59.2391 160.261C70.4462 164.076 88.6992 166.039 108.204 150.583L102.963 128.27C102.963 128.27 71.6001 132.6 56.3177 145.443C55.1504 146.443 54.2699 147.735 53.7662 149.186C53.2625 150.638 53.1536 152.197 53.4508 153.704C53.748 155.212 54.4405 156.613 55.4575 157.765C56.4746 158.917 57.7796 159.779 59.2391 160.261Z" fill="white"/>
<path d="M78.1551 113.918C79.1534 116.746 79.7645 119.696 79.9718 122.688C79.9718 123.409 79.6864 124.099 79.178 124.61C78.6696 125.12 77.9797 125.408 77.2591 125.412C76.109 125.479 74.964 125.214 73.9606 124.648C72.9572 124.083 72.1378 123.241 71.6003 122.222L68.8875 118.064C68.4247 117.174 68.2505 116.162 68.3891 115.168C68.5276 114.175 68.9721 113.249 69.6608 112.519C72.0299 109.637 77.2222 110.765 78.1551 113.918Z" fill="#F4A28C"/>
<path d="M69.3535 118.812L71.0229 136.403L80.6588 134.783L75.5769 122.639L69.3535 118.812Z" fill="#F4A28C"/>
<path d="M76.9158 114.47C75.2998 114.866 73.6596 115.157 72.0058 115.341C72.6547 115.932 73.1165 116.7 73.3346 117.55C73.5527 118.4 73.5175 119.295 73.2333 120.125C72.9585 120.921 72.4185 121.599 71.7036 122.046C70.9887 122.492 70.1421 122.68 69.3053 122.578C69.0486 121.802 68.8556 121.006 68.7284 120.198C68.4092 119.291 67.9182 118.285 66.8994 118.052C66.2631 118.037 65.6299 117.959 65.009 117.819C64.8177 117.725 64.6485 117.592 64.5129 117.427C64.3772 117.263 64.2782 117.072 64.2225 116.866C64.1667 116.661 64.1554 116.446 64.1895 116.236C64.2235 116.025 64.3021 115.825 64.4198 115.647C64.7881 115.157 65.4878 114.813 65.4632 114.212C65.4387 113.611 64.8618 113.378 64.4812 112.986C64.1435 112.603 63.9242 112.13 63.8502 111.625C63.7761 111.119 63.8503 110.604 64.0639 110.14C64.5135 109.222 65.1688 108.42 65.9788 107.797C66.1403 107.693 66.2548 107.53 66.2979 107.343C66.2979 107.061 66.0401 106.877 65.856 106.668C65.6556 106.396 65.5475 106.068 65.5475 105.73C65.5475 105.392 65.6556 105.063 65.856 104.791C66.2703 104.239 66.8317 103.814 67.4763 103.565C69.186 102.868 70.9977 102.454 72.8405 102.338C73.662 102.19 74.5079 102.258 75.2955 102.534C75.6738 102.675 75.9971 102.933 76.218 103.271C76.4389 103.609 76.5458 104.008 76.523 104.411C76.4125 105.172 75.676 105.822 75.8233 106.582C75.9706 107.343 76.9526 107.65 77.7505 107.662C78.5517 107.535 79.3712 107.715 80.0459 108.165C80.8683 108.962 80.2055 110.52 79.113 110.876C78.8967 110.925 78.6923 111.017 78.5115 111.146C78.1924 111.44 78.3274 111.992 78.5852 112.372C78.8846 112.699 79.1068 113.089 79.2358 113.513C79.3708 114.519 77.775 114.274 77.1981 114.372L76.9158 114.47Z" fill="#FEA771"/>
<path d="M73.7971 119.818C73.7971 119.818 73.2447 117.819 71.7717 118.371C70.2987 118.923 71.0843 121.805 73.2079 121.548L73.7971 119.818Z" fill="#F4A28C"/>
<path d="M79.1251 117.181L81.1014 118.825C81.2121 118.917 81.2977 119.036 81.3503 119.17C81.4029 119.304 81.4209 119.45 81.4026 119.593C81.3842 119.735 81.3301 119.872 81.2453 119.988C81.1605 120.105 81.0477 120.198 80.9173 120.26L79.0146 121.155L79.1251 117.181Z" fill="#F4A28C"/>
<path opacity="0.31" d="M76.8047 125.24C75.5508 125.25 74.3217 124.891 73.2695 124.21C74.2655 126.563 76.1163 128.452 78.4496 129.497L76.8047 125.24Z" fill="#CE8172"/>
<path d="M45.9575 146.51C48.7164 141.563 52.9681 137.613 58.1062 135.223C63.2442 132.833 69.0062 132.125 74.5705 133.201L78.8299 133.986C78.8299 133.986 108.916 138.39 107.062 166.088C105.673 183.21 99.6242 199.626 89.5705 213.56L48.9526 208.948C48.9526 208.948 33.5965 169.4 45.9575 146.51Z" fill="#525F9B"/>
<path d="M83.6173 283.48L89.5707 213.56L48.9527 208.948L35.5361 284.142H43.1098L68.5068 235.358C68.8014 232.806 76.6451 284.142 76.6451 284.142L83.6173 283.48Z" fill="#273782"/>
<path opacity="0.08" d="M66.7766 146.56C66.7766 146.56 69.4771 167.744 64.3953 187.101C59.3134 206.458 64.3953 210.751 64.3953 210.751L48.9533 208.997C48.9533 208.997 45.5654 200.41 44.9517 196.056C44.3379 191.701 44.7062 144.057 66.7766 146.56Z" fill="black"/>
<path d="M47.3079 158.691C55.618 167.118 71.0723 177.03 95.4259 171.915L92.308 145.014C92.308 145.014 70.7408 139.482 51.3463 144.204C49.8651 144.578 48.5091 145.337 47.4157 146.403C46.3224 147.47 45.5306 148.806 45.1206 150.277C44.7106 151.747 44.697 153.3 45.0811 154.778C45.4652 156.256 46.2334 157.606 47.3079 158.691Z" fill="#525F9B"/>
<path opacity="0.46" d="M47.3079 158.691C55.618 167.118 71.0723 177.03 95.4259 171.915L92.308 145.014C92.308 145.014 70.7408 139.482 51.3463 144.204C49.8651 144.578 48.5091 145.337 47.4157 146.403C46.3224 147.47 45.5306 148.806 45.1206 150.277C44.7106 151.747 44.697 153.3 45.0811 154.778C45.4652 156.256 46.2334 157.606 47.3079 158.691Z" fill="white"/>
<path d="M95.1312 169.4C95.1312 169.4 131.625 165.499 151.24 152.374L149.657 146.756C149.657 146.756 115.41 155.882 92.7744 149.111L95.1312 169.4Z" fill="#F4A28C"/>
<path d="M151.241 152.349C152.977 151.596 154.659 150.723 156.273 149.737C157.404 148.999 158.292 147.945 158.827 146.707C159.013 145.912 159.029 145.088 158.875 144.287C158.72 143.486 158.399 142.726 157.931 142.058C157.741 141.748 157.459 141.505 157.125 141.364C156.79 141.223 156.419 141.191 156.065 141.273C155.684 141.437 155.347 141.689 155.083 142.009C154.42 142.732 153.757 143.456 153.107 144.192C153.105 143.518 153.023 142.847 152.861 142.193C152.861 142.058 152.763 141.886 152.616 141.874C152.526 141.873 152.439 141.903 152.37 141.959C150.639 143.113 148.577 145.382 149.129 147.332C149.535 148.792 150.836 150.902 151.241 152.349Z" fill="#F4A28C"/>
<path d="M36.7023 284.044C36.7023 284.044 34.7505 287.172 31.645 286.768C28.5394 286.363 27.0909 289.221 29.681 290.558C32.271 291.895 40.1024 289.908 40.1024 289.908L41.0476 284.265L36.7023 284.044Z" fill="#525F9B"/>
<path d="M300.444 142.119C301.691 142.47 302.837 143.109 303.791 143.986C304.745 144.862 305.478 145.951 305.932 147.163C306.387 148.376 306.549 149.678 306.406 150.965C306.262 152.252 305.818 153.487 305.108 154.57C301.806 159.697 295.472 166.566 283.578 171.743C261.937 181.176 232.023 156.483 232.023 156.483C232.023 156.483 224.658 154.177 225.48 150.043C226.303 145.909 234.564 152.067 234.564 152.067C234.564 152.067 249.613 163.34 267.056 157.918C281.245 153.527 289.58 139.114 300.444 142.119Z" fill="#F4A28C"/>
<path d="M131.748 74.2597C132.449 75.6047 133.413 76.7954 134.582 77.7611C135.752 78.7268 137.104 79.4479 138.558 79.8815C140.012 80.3151 141.539 80.4524 143.047 80.2853C144.555 80.1183 146.014 79.6502 147.338 78.9088C159.048 72.3339 178.528 63.8944 185.095 49.8368C193.614 31.6085 156.458 7.67627 156.458 7.67627L151.094 13.8096C151.094 13.8096 199.248 44.1083 138.72 55.9824C131.012 57.5035 128.103 67.3413 131.748 74.2965V74.2597Z" fill="#525F9B"/>
<path opacity="0.46" d="M131.748 74.2597C132.449 75.6047 133.413 76.7954 134.582 77.7611C135.752 78.7268 137.104 79.4479 138.558 79.8815C140.012 80.3151 141.539 80.4524 143.047 80.2853C144.555 80.1183 146.014 79.6502 147.338 78.9088C159.048 72.3339 178.528 63.8944 185.095 49.8368C193.614 31.6085 156.458 7.67627 156.458 7.67627L151.094 13.8096C151.094 13.8096 199.248 44.1083 138.72 55.9824C131.012 57.5035 128.103 67.3413 131.748 74.2965V74.2597Z" fill="white"/>
<path d="M239.289 82.049C239.289 82.049 241.904 80.4053 241.56 77.7925C241.216 75.1797 243.585 73.9408 244.739 76.112C245.893 78.2832 244.248 84.8949 244.248 84.8949L239.485 85.7168L239.289 82.049Z" fill="#525F9B"/>
<path d="M243.094 137.347C243.094 137.347 245.979 138.476 247.882 136.636C249.784 134.796 252.178 135.961 251.122 138.194C250.067 140.426 243.757 143.014 243.757 143.014L240.259 139.69L243.094 137.347Z" fill="#525F9B"/>
<path d="M110.352 51.64C112.756 53.3858 114.911 55.449 116.76 57.7733C117.151 58.3566 117.295 59.0705 117.162 59.7598C117.029 60.449 116.628 61.0577 116.048 61.4533C115.149 62.148 114.07 62.5695 112.938 62.6674C111.806 62.7653 110.67 62.5354 109.665 62.0053L105.123 60.1285C104.257 59.6637 103.557 58.9427 103.117 58.0642C102.678 57.1857 102.521 56.1929 102.668 55.2218C102.987 51.5418 107.836 49.5792 110.352 51.64Z" fill="#F4A28C"/>
<path d="M105.896 60.4965L117.042 73.904L124.002 67.2432L113.102 60.1653L105.896 60.4965Z" fill="#F4A28C"/>
<path d="M109.653 52.7563C108.617 54.0385 107.435 55.1953 106.13 56.2032C106.991 56.3164 107.799 56.6804 108.454 57.2498C109.109 57.8192 109.581 58.5687 109.813 59.4048C110.039 60.2087 109.984 61.0656 109.659 61.8347C109.333 62.6038 108.755 63.2393 108.02 63.6368L102.939 59.0613C102.189 58.4349 101.624 57.6166 101.304 56.694C100.984 55.7713 100.921 54.7791 101.122 53.8235C101.285 52.9912 101.507 52.1715 101.785 51.3701C102.484 49.3707 105.381 48.0704 105.541 45.8624C105.541 45.6335 105.606 45.4094 105.727 45.2153C105.849 45.0212 106.022 44.8649 106.228 44.7641C106.433 44.6633 106.663 44.622 106.891 44.6448C107.119 44.6676 107.336 44.7537 107.517 44.8933C109.285 46.0341 111.494 48.4629 110.5 51.3333C110.299 51.8513 110.012 52.3322 109.653 52.7563Z" fill="#273782"/>
<path d="M110.045 58.8773C110.045 58.8773 108.486 57.5525 107.59 58.816C106.694 60.0794 108.94 61.993 110.524 60.6069L110.045 58.8773Z" fill="#F4A28C"/>
<path d="M112.955 53.7499L115.41 53.9829C115.545 53.9995 115.675 54.0485 115.787 54.1258C115.9 54.203 115.992 54.3063 116.056 54.4267C116.119 54.5472 116.153 54.6812 116.154 54.8175C116.155 54.9538 116.123 55.0883 116.061 55.2096L115.017 56.9883L112.955 53.7499Z" fill="#F4A28C"/>
<path opacity="0.31" d="M115.532 61.6128C114.516 62.3128 113.317 62.7008 112.083 62.7291C114.194 64.0883 116.741 64.6009 119.215 64.1643L115.532 61.6128Z" fill="#CE8172"/>
<path d="M117.043 73.9039L121.781 69.3653C122.935 68.2629 124.025 67.0957 125.046 65.8693C128.299 61.9194 138.954 51.0757 154.69 56.2277C173.765 62.4591 184.666 99.4799 184.666 99.4799L162.902 124.443C162.902 124.443 87.3004 110.336 117.043 73.9039Z" fill="#525F9B"/>
<path d="M152.1 12.6197C152.1 12.6197 143.667 8.85388 143.004 5.25975C142.341 1.66561 149.51 7.16108 149.51 7.16108C149.51 7.16108 152.873 0.806946 156.458 7.63948L152.1 12.6197Z" fill="#F4A28C"/>
<path d="M150.148 8.32638C150.148 8.32638 144.379 2.19304 146.232 0.966378C148.086 -0.260289 152.554 6.81758 152.554 6.81758L150.148 8.32638Z" fill="#F4A28C"/>
<path d="M162.901 124.418C162.901 124.418 178.969 137.813 188.581 125.387C198.192 112.961 199.849 83.9381 239.669 86.6245L239.35 80.0373C239.35 80.0373 208.086 67.8565 183.045 94.6592L162.901 124.418Z" fill="#273782"/>
<path d="M175.741 129.815C175.741 129.815 206.429 108.533 237.484 141.849L243.094 137.347C243.094 137.347 224.682 100.977 177.558 106.349L175.741 129.815Z" fill="#273782"/>
<path opacity="0.08" d="M132.89 82.3066C132.89 82.3066 140.107 85.9866 144.674 99.48C149.24 112.973 172.808 109.87 172.808 109.87L162.902 124.492C162.902 124.492 138.463 119.315 125.279 110.863C112.096 102.412 132.546 83.1285 132.546 83.1285L132.89 82.3066Z" fill="black"/>
<path d="M117.153 102.755C135.038 110.324 175.337 120.542 184.04 64.0907L176.012 60.9626C176.012 60.9626 160.054 98.7808 128.778 81.5093C127.614 80.8503 126.409 80.2684 125.169 79.7674C119.608 77.5594 105.75 73.3765 105.922 86.4405C106.012 89.9546 107.122 93.3668 109.115 96.2629C111.109 99.159 113.901 101.414 117.153 102.755Z" fill="#525F9B"/>
<path opacity="0.46" d="M117.153 102.755C135.038 110.324 175.337 120.542 184.04 64.0907L176.012 60.9626C176.012 60.9626 160.054 98.7808 128.778 81.5093C127.614 80.8503 126.409 80.2684 125.169 79.7674C119.608 77.5594 105.75 73.3765 105.922 86.4405C106.012 89.9546 107.122 93.3668 109.115 96.2629C111.109 99.159 113.901 101.414 117.153 102.755Z" fill="white"/>
<path d="M177.436 61.5147C177.951 58.7259 179.225 56.1328 181.118 54.0198C184.027 51.1248 186.998 51.5664 188.643 53.8235C190.287 56.0805 183.045 59.8219 183.045 59.8219L182.898 63.6368L177.436 61.5147Z" fill="#F4A28C"/>
<path opacity="0.5" d="M63.4144 83.7461L46.1465 93.8945L48.8658 98.5152L66.1337 88.3668L63.4144 83.7461Z" fill="#E5E6EC"/>
<path opacity="0.5" d="M263.015 85.4932L282.391 80.4064L281.028 75.2218L261.652 80.3086L263.015 85.4932Z" fill="#E5E6EC"/>
<path opacity="0.5" d="M214.935 47.6623L228.565 52.0669L229.744 48.4254L216.114 44.0207L214.935 47.6623Z" fill="#E5E6EC"/>
<path opacity="0.5" d="M271.087 40.7541L264.968 53.6973L268.431 55.3322L274.55 42.389L271.087 40.7541Z" fill="#E5E6EC"/>
<path opacity="0.5" d="M202.613 143.032L196.493 155.975L199.956 157.61L206.076 144.667L202.613 143.032Z" fill="#E5E6EC"/>
<path opacity="0.5" d="M307.708 62.5487L321.898 64.5088L322.423 60.7176L308.233 58.7575L307.708 62.5487Z" fill="#E5E6EC"/>
<path opacity="0.5" d="M78.468 66.9424L92.2666 70.7872L93.2952 67.1007L79.4967 63.2558L78.468 66.9424Z" fill="#E5E6EC"/>
<path opacity="0.5" d="M125.386 38.9325L139.422 36.0736L138.657 32.3235L124.621 35.1824L125.386 38.9325Z" fill="#E5E6EC"/>
<path opacity="0.5" d="M55.9168 42.7109L69.9531 39.8521L69.1883 36.1019L55.1519 38.9608L55.9168 42.7109Z" fill="#E5E6EC"/>
</g>
<defs>
<clipPath id="clip0_358_11050">
<rect width="371" height="302" fill="white"/>
</clipPath>
</defs>
</svg>
