<svg width="484" height="234" viewBox="0 0 484 234" fill="none" xmlns="http://www.w3.org/2000/svg">
<g clip-path="url(#clip0_358_10997)">
<path d="M70.7251 50.4538C70.3027 52.0886 70.2138 53.7912 70.4637 55.4609C70.7136 57.1305 71.2972 58.7332 72.1799 60.1742C73.0626 61.6151 74.2265 62.865 75.6027 63.8499C76.979 64.8347 78.5395 65.5345 80.1921 65.9078C94.8392 69.1793 117.291 76.6942 133.284 70.0143C153.991 61.2675 141.034 13.8104 141.034 13.8104L132.034 14.8507C132.034 14.8507 149.347 75.7771 90.2087 40.5435C82.6791 36.0538 72.9098 42.0356 70.7251 50.5086V50.4538Z" fill="#525F9B"/>
<path opacity="0.46" d="M70.7251 50.4538C70.3027 52.0886 70.2138 53.7912 70.4637 55.4609C70.7136 57.1305 71.2972 58.7332 72.1799 60.1742C73.0626 61.6151 74.2265 62.865 75.6027 63.8499C76.979 64.8347 78.5395 65.5345 80.1921 65.9078C94.8392 69.1793 117.291 76.6942 133.284 70.0143C153.991 61.2675 141.034 13.8104 141.034 13.8104L132.034 14.8507C132.034 14.8507 149.347 75.7771 90.2087 40.5435C82.6791 36.0538 72.9098 42.0356 70.7251 50.5086V50.4538Z" fill="white"/>
<path opacity="0.45" d="M245.843 233.137C377.125 233.137 483.549 226.353 483.549 217.984C483.549 209.615 377.125 202.831 245.843 202.831C114.562 202.831 8.1377 209.615 8.1377 217.984C8.1377 226.353 114.562 233.137 245.843 233.137Z" fill="#E5E6EC"/>
<path d="M53.481 210.866C53.481 210.866 54.223 214.699 57.4657 215.479C60.7084 216.259 61.0656 219.586 57.9878 219.983C54.91 220.38 47.875 215.397 47.875 215.397L49.0841 209.443L53.481 210.866Z" fill="#525F9B"/>
<path d="M144.468 154.936C144.468 154.936 146.886 158.002 150.129 157.236C153.372 156.469 155.227 159.262 152.643 161C150.06 162.738 141.541 161.52 141.541 161.52L139.893 155.662L144.468 154.936Z" fill="#525F9B"/>
<path d="M179.602 161.931H94.7012V215.014H179.602V161.931Z" fill="#FEA771"/>
<path d="M295.364 130.434H210.463V215.014H295.364V130.434Z" fill="#E5E6EC"/>
<path d="M409.737 82.2105H324.836V215.014H409.737V82.2105Z" fill="#E5E6EC"/>
<path d="M65.3802 11.6614C66.1392 15.3101 66.4026 19.0439 66.1634 22.7625C66.0404 23.6471 65.5712 24.4473 64.8581 24.9884C64.145 25.5295 63.246 25.7676 62.3573 25.6507C60.9246 25.5427 59.5536 25.0257 58.4082 24.1614C57.2629 23.2972 56.3919 22.1224 55.8994 20.7777L53.1514 15.2066C52.7303 14.0341 52.6853 12.7603 53.0225 11.5612C53.3597 10.3621 54.0625 9.29695 55.0338 8.51308C58.5376 5.37847 64.7619 7.62335 65.3802 11.6614Z" fill="#F4A28C"/>
<path d="M53.7007 16.2196L52.8213 38.1481L64.9951 37.7649L60.7357 21.9686L53.7007 16.2196Z" fill="#F4A28C"/>
<path d="M63.7587 12.1268C61.7062 12.4588 59.6214 12.5461 57.5481 12.3869C58.2514 13.2214 58.6949 14.2423 58.8242 15.3243C58.9536 16.4063 58.7632 17.5023 58.2764 18.4781C57.8214 19.4313 57.0467 20.1963 56.0859 20.6412C55.1251 21.086 54.0386 21.1827 53.0139 20.9146L52.107 12.3595C51.9397 11.1379 52.1067 9.89397 52.5904 8.75914C53.0741 7.62432 53.8566 6.64073 54.8551 5.91231C55.7316 5.27718 56.6496 4.70099 57.6031 4.18759C59.9527 2.91458 63.7725 4.18759 65.8472 2.2028C66.0495 1.99317 66.3048 1.84181 66.5862 1.76469C66.8676 1.68758 67.1647 1.68756 67.4461 1.76466C67.7275 1.84176 67.9828 1.99311 68.1851 2.20273C68.3873 2.41235 68.5291 2.67248 68.5953 2.95566C69.296 5.50167 69.3098 9.6492 65.9572 11.4834C65.2731 11.8378 64.5264 12.0563 63.7587 12.1268Z" fill="#273782"/>
<path d="M58.9626 18.1907C58.9626 18.1907 58.6191 15.631 56.7092 16.069C54.7993 16.507 55.3351 20.1755 57.9595 20.1755L58.9626 18.1907Z" fill="#F4A28C"/>
<path d="M66.0392 15.8363L68.1964 18.177C68.3211 18.3092 68.41 18.4709 68.4546 18.6468C68.4992 18.8226 68.498 19.007 68.4513 19.1823C68.4045 19.3576 68.3137 19.5182 68.1874 19.6489C68.061 19.7795 67.9034 19.876 67.7292 19.9291L65.2285 20.7093L66.0392 15.8363Z" fill="#F4A28C"/>
<path opacity="0.31" d="M61.8207 25.377C60.2699 25.1823 58.8116 24.5346 57.6299 23.5154C57.6299 23.5154 58.2757 27.485 63.126 30.907L61.8207 25.377Z" fill="#CE8172"/>
<path d="M52.8213 38.1481L61.0655 37.8881C63.0799 37.8309 65.0894 37.6572 67.0837 37.3679C73.4866 36.396 92.6542 35.2325 103.083 53.301C115.71 75.2022 94.6603 119.005 94.6603 119.005H57.5617C57.5617 119.005 -5.86309 47.1824 52.8213 38.1481Z" fill="#525F9B"/>
<path opacity="0.08" d="M66.314 56.2029C66.314 56.2029 71.4254 61.4592 65.3385 68.7002C57.8501 77.625 55.2119 89.8212 59.6913 100.566C63.0013 108.744 69.3362 115.344 77.3887 119.005H57.6302C57.6302 119.005 39.1634 98.1026 31.62 78.1451C24.0766 58.1877 66.314 56.2029 66.314 56.2029Z" fill="black"/>
<path d="M64.1571 47.4561C61.7054 44.252 58.2896 41.9127 54.4086 40.7799C50.5276 39.6471 46.3847 39.7801 42.585 41.1595C28.2814 46.2242 3.7826 58.2972 1.14448 82.2242C-2.59285 116.226 51.9833 123.672 51.9833 123.672L53.7557 115.021C53.7557 115.021 -2.78522 83.5383 51.997 67.7147C51.997 67.7147 73.8302 60.4873 64.1571 47.4561Z" fill="#525F9B"/>
<path opacity="0.46" d="M64.1571 47.4561C61.7054 44.252 58.2896 41.9127 54.4086 40.7799C50.5276 39.6471 46.3847 39.7801 42.585 41.1595C28.2814 46.2242 3.7826 58.2972 1.14448 82.2242C-2.59285 116.226 51.9833 123.672 51.9833 123.672L53.7557 115.021C53.7557 115.021 -2.78522 83.5383 51.997 67.7147C51.997 67.7147 73.8302 60.4873 64.1571 47.4561Z" fill="white"/>
<path d="M57.6299 119.005L46.0469 209.621L55.665 211.263L70.7793 153.239C71.8989 149.06 74.2674 145.32 77.5705 142.513C80.8735 139.707 84.9551 137.967 89.2736 137.525L109.183 134.281C113.077 133.654 117.071 134.216 120.639 135.891C124.207 137.567 127.183 140.279 129.175 143.671L137.144 157.359L148.027 154.621L136.636 132.638C134.252 128.047 130.587 124.239 126.083 121.672C121.578 119.106 116.426 117.889 111.244 118.17L94.7559 119.087L57.6299 119.005Z" fill="#273782"/>
<path d="M53.7826 116.267C53.7826 116.267 63.1259 116.445 61.4909 122.262C59.8558 128.08 51.9414 123.631 51.9414 123.631L53.7826 116.267Z" fill="#F4A28C"/>
<path opacity="0.58" d="M436.077 197.753C436.077 197.753 424.37 194.577 421.828 183.722C421.828 183.722 439.951 180.081 440.474 198.78L436.077 197.753Z" fill="#525F9B"/>
<path opacity="0.73" d="M437.506 196.535C437.506 196.535 429.331 183.654 436.531 171.622C436.531 171.622 450.271 180.341 444.184 196.562L437.506 196.535Z" fill="#525F9B"/>
<path d="M439.608 196.548C439.608 196.548 443.937 182.942 456.99 180.369C456.99 180.369 459.436 189.198 448.54 196.576L439.608 196.548Z" fill="#525F9B"/>
<path d="M431.131 196.234L433.494 212.399L448.444 212.468L450.642 196.316L431.131 196.234Z" fill="#273782"/>
<path d="M133.723 14.6043C133.723 14.6043 129.601 5.20051 131.649 1.75108C133.696 -1.69836 135.633 8.18455 135.633 8.18455C135.633 8.18455 143.177 5.44691 141.033 13.7557L133.723 14.6043Z" fill="#F4A28C"/>
<path d="M137.063 174.35V189.048H133.956V177.299H133.87L130.504 179.409V176.653L134.142 174.35H137.063Z" fill="#273782"/>
</g>
<defs>
<clipPath id="clip0_358_10997">
<rect width="483.932" height="234" fill="white"/>
</clipPath>
</defs>
</svg>
