<svg width="331" height="261" viewBox="0 0 331 261" fill="none" xmlns="http://www.w3.org/2000/svg">
<g clip-path="url(#clip0_358_10948)">
<path opacity="0.37" d="M92.9717 33.1913C45.5876 45.5538 15.5713 87.8207 24.966 130.951C29.8965 153.628 45.4432 174.9 82.5555 184.927C181.532 211.678 284.752 193.704 315.367 152.001C345.983 110.299 321.253 20.8178 219.866 18.0841C170.272 16.6786 125.62 24.6804 92.9717 33.1913Z" fill="white"/>
<path d="M221.221 103.105C221.221 103.105 215.669 130.497 197.901 136.308C180.134 142.118 170.417 141.011 170.417 141.011V149.622C170.417 149.622 212.893 159.583 234.825 120.536L221.221 103.105Z" fill="#525F9B"/>
<path opacity="0.46" d="M221.221 103.105C221.221 103.105 215.669 130.497 197.901 136.308C180.134 142.118 170.417 141.011 170.417 141.011V149.622C170.417 149.622 212.893 159.583 234.825 120.536L221.221 103.105Z" fill="white"/>
<path opacity="0.45" d="M165.364 260.242C256.378 260.242 330.16 250.951 330.16 239.49C330.16 228.029 256.378 218.739 165.364 218.739C74.3506 218.739 0.569336 228.029 0.569336 239.49C0.569336 250.951 74.3506 260.242 165.364 260.242Z" fill="#E5E6EC"/>
<path d="M170.417 72.957C170.429 62.5538 167.88 52.3065 162.994 43.1133C158.108 33.9202 151.034 26.0617 142.392 20.2268C133.751 14.3918 123.805 10.7585 113.426 9.64535C103.048 8.53217 92.5544 9.97307 82.8648 13.8418C73.1751 17.7105 64.5856 23.8888 57.8489 31.8354C51.1122 39.7819 46.434 49.2541 44.2245 59.4215C42.015 69.589 42.3415 80.1414 45.1754 90.1538C48.0093 100.166 53.2642 109.333 60.4793 116.851C69.5333 126.481 74.5234 139.214 74.4158 152.411V154.624H137.602V153.009C137.703 139.61 143.041 126.778 152.483 117.238C164.028 105.375 170.464 89.4841 170.417 72.957Z" fill="#FEA771"/>
<path d="M89.4521 152.488L76.1152 72.0052" stroke="white" stroke-width="4" stroke-miterlimit="10" stroke-linecap="round"/>
<path d="M136.081 72.0052L122.744 152.488" stroke="white" stroke-width="4" stroke-miterlimit="10" stroke-linecap="round"/>
<path d="M142.755 144.785H70.4404V201.673H142.755V144.785Z" fill="#273782"/>
<path d="M94.627 86.0831C94.627 86.0831 100.624 74.3294 106.842 82.3312C114.538 92.292 119.802 81.2245 119.802 81.2245" stroke="white" stroke-width="4" stroke-miterlimit="10" stroke-linecap="round"/>
<path opacity="0.21" d="M147.13 45.8824C150.534 38.0592 145.146 28.1969 135.096 23.8543C125.046 19.5117 114.141 22.3333 110.737 30.1565C107.334 37.9797 112.722 47.842 122.772 52.1846C132.821 56.5271 143.727 53.7055 147.13 45.8824Z" fill="white"/>
<path d="M160.733 201.673H53.3496V239.479H160.733V201.673Z" fill="#B9BFD7"/>
<path d="M269.638 194.954L277.767 231.754H273.047L257.223 194.954H269.638Z" fill="#F4A28C"/>
<path d="M243.198 190.483L234.536 231.754H229.783L230.505 190.184L243.198 190.483Z" fill="#F4A28C"/>
<path d="M246.318 52.3271C245.062 54.9883 244.173 57.8065 243.675 60.7052C243.638 61.0535 243.671 61.4056 243.771 61.7413C243.871 62.077 244.037 62.3896 244.259 62.6612C244.481 62.9327 244.754 63.1579 245.064 63.3236C245.373 63.4894 245.713 63.5925 246.062 63.6271C247.18 63.8076 248.326 63.6635 249.364 63.2121C250.402 62.7607 251.287 62.0211 251.915 61.0815L255.002 57.2964C255.555 56.4697 255.833 55.4905 255.798 54.4974C255.762 53.5043 255.413 52.5476 254.802 51.7627C252.747 48.7634 247.55 49.3499 246.318 52.3271Z" fill="#F4A28C"/>
<path d="M268.616 151.393L282.575 214.61L255.09 214.024L243.197 165.913L250.282 154.591L268.616 151.393Z" fill="#273782"/>
<path d="M253.836 58.1597L255.091 75.4472H245.485L248.361 63.1954L253.836 58.1597Z" fill="#F4A28C"/>
<path d="M225.274 149.622L219.833 214.61H246.762L250.282 160.103L263.697 149.622H225.274Z" fill="#273782"/>
<path d="M260.433 75.1484C266.834 74.9435 273.089 77.0768 278.023 81.147C283.686 85.9392 288.428 94.1956 284.752 108.052C277.423 135.721 264.286 151.393 264.286 151.393L225.275 149.622C225.275 149.622 226.707 130.995 221.677 119.85C216.646 108.705 211.838 80.5272 245.474 75.4472L260.433 75.1484Z" fill="#525F9B"/>
<path d="M245.052 55.4149L242.953 56.8205C242.834 56.898 242.736 57.0038 242.669 57.1284C242.601 57.2531 242.565 57.3926 242.565 57.5344C242.565 57.6761 242.601 57.8157 242.669 57.9403C242.736 58.065 242.834 58.1708 242.953 58.2482L244.73 59.355L245.052 55.4149Z" fill="#F4A28C"/>
<path opacity="0.08" d="M265.074 86.4815C265.074 86.4815 253.914 93.2659 255.08 103.083C256.246 112.9 244.264 144.608 225.43 145.383L225.264 149.6L240.311 150.286L277.756 136.009L284.785 119.407L265.074 86.4815Z" fill="black"/>
<path opacity="0.31" d="M248.273 63.5385C249.434 63.3334 250.516 62.8168 251.404 62.0444C251.404 62.0444 252.026 65.7852 247.451 67.0469L248.273 63.5385Z" fill="#CE8172"/>
<path d="M250.704 57.9494C250.704 57.9494 251.448 56.0569 252.836 56.732C254.224 57.4071 253.158 60.1519 251.104 59.687L250.704 57.9494Z" fill="#F4A28C"/>
<path d="M277.767 231.754C277.767 231.754 280.388 235.074 283.741 234.908C287.095 234.742 287.584 239.468 282.187 238.981C280.508 238.835 278.844 238.55 277.212 238.129C275.71 237.785 274.143 237.842 272.67 238.295C272.38 238.361 272.077 238.338 271.801 238.227C271.525 238.116 271.289 237.923 271.126 237.675C269.594 235.882 273.347 231.754 273.347 231.754H277.767Z" fill="#525F9B"/>
<path d="M230.105 231.754C230.105 231.754 227.484 235.074 224.131 234.908C220.777 234.742 220.277 239.468 225.685 238.981C227.361 238.836 229.021 238.551 230.649 238.129C232.155 237.785 233.725 237.843 235.202 238.295C235.492 238.36 235.795 238.335 236.071 238.225C236.346 238.114 236.582 237.922 236.746 237.675C238.278 235.882 234.525 231.754 234.525 231.754H230.105Z" fill="#525F9B"/>
<path d="M140.901 218.728C143.562 218.728 145.72 216.577 145.72 213.924C145.72 211.271 143.562 209.121 140.901 209.121C138.239 209.121 136.081 211.271 136.081 213.924C136.081 216.577 138.239 218.728 140.901 218.728Z" fill="white"/>
<path opacity="0.48" d="M140.901 233.724C143.562 233.724 145.72 231.574 145.72 228.921C145.72 226.268 143.562 224.117 140.901 224.117C138.239 224.117 136.081 226.268 136.081 228.921C136.081 231.574 138.239 233.724 140.901 233.724Z" fill="white"/>
<path d="M124.321 213.227H73.3721V228.921H124.321V213.227Z" fill="#757FAF"/>
<path d="M259.744 112.656L230.567 117.997L238.039 158.541L267.216 153.2L259.744 112.656Z" fill="#FEA771"/>
<path opacity="0.08" d="M236.49 141.199L239.6 158.133L268.861 152.677L267.672 146.733L236.49 141.199Z" fill="black"/>
<path d="M267.562 82.8071C268.272 81.9402 269.149 81.2228 270.14 80.697C271.132 80.1711 272.219 79.8472 273.337 79.7442C274.455 79.6412 275.583 79.7611 276.654 80.097C277.726 80.4328 278.719 80.9779 279.577 81.7004C286.584 87.544 296.79 99.0543 296.234 116.22C295.424 142.262 277.268 153.85 238.689 142.284L240.622 135.389C240.622 135.389 264.319 141.941 276.868 127.365C288.461 113.863 250.261 104.345 267.562 82.8071Z" fill="#525F9B"/>
<path opacity="0.46" d="M267.562 82.8071C268.272 81.9402 269.149 81.2228 270.14 80.697C271.132 80.1711 272.219 79.8472 273.337 79.7442C274.455 79.6412 275.583 79.7611 276.654 80.097C277.726 80.4328 278.719 80.9779 279.577 81.7004C286.584 87.544 296.79 99.0543 296.234 116.22C295.424 142.262 277.268 153.85 238.689 142.284L240.622 135.389C240.622 135.389 264.319 141.941 276.868 127.365C288.461 113.863 250.261 104.345 267.562 82.8071Z" fill="white"/>
<path d="M247.451 52.482C248.867 53.4356 250.432 54.1498 252.082 54.5959C252.082 54.5959 250.605 60.3843 254.236 63.6713C254.236 63.6713 261.943 57.5399 258.423 52.1943C255.48 47.7673 253.459 44.0154 248.628 45.5538C247.937 45.7767 247.319 46.1843 246.844 46.7324C246.369 47.2804 246.053 47.9479 245.932 48.6622C245.81 49.3765 245.888 50.1103 246.156 50.7837C246.424 51.4572 246.872 52.0446 247.451 52.482Z" fill="#273782"/>
<path d="M262.22 56.4332C265.133 56.4332 267.495 54.0795 267.495 51.1761C267.495 48.2727 265.133 45.919 262.22 45.919C259.307 45.919 256.945 48.2727 256.945 51.1761C256.945 54.0795 259.307 56.4332 262.22 56.4332Z" fill="#273782"/>
<path d="M240.322 136.496C240.322 136.496 230.849 132.523 229.783 136.496C228.717 140.469 238.667 142.24 238.667 142.24L240.322 136.496Z" fill="#F4A28C"/>
<path opacity="0.58" d="M303.397 225.656C303.397 225.656 293.902 223.077 291.837 214.267C291.837 214.267 306.551 211.301 306.973 226.442L303.397 225.656Z" fill="#525F9B"/>
<path opacity="0.73" d="M304.563 224.715C304.563 224.715 297.9 214.267 303.763 204.484C303.763 204.484 314.957 211.567 309.982 224.737L304.563 224.715Z" fill="#525F9B"/>
<path d="M306.272 224.726C306.272 224.726 309.782 213.659 320.376 211.589C320.376 211.589 322.363 218.761 313.513 224.759L306.272 224.726Z" fill="#525F9B"/>
<path d="M299.388 224.483L301.309 237.609L313.435 237.653L315.223 224.549L299.388 224.483Z" fill="#273782"/>
<path d="M170.417 142.24C170.417 142.24 157.924 140.923 159.956 145.903C161.988 150.884 170.417 147.74 170.417 147.74V142.24Z" fill="#F4A28C"/>
<path d="M240.321 76.4765C240.321 76.4765 240.477 72.9902 245.874 72.0495C251.271 71.1087 259.51 68.0762 260.465 75.1927L240.321 76.4765Z" fill="#525F9B"/>
<path opacity="0.46" d="M240.321 76.4765C240.321 76.4765 240.477 72.9902 245.874 72.0495C251.271 71.1087 259.51 68.0762 260.465 75.1927L240.321 76.4765Z" fill="white"/>
<path d="M250.704 57.3628C250.704 57.3628 251.903 55.3264 253.458 56.4442C255.013 57.562 253.847 60.0412 251.237 60.0412L250.704 57.3628Z" fill="#F4A28C"/>
<path d="M234.313 0.752365V22.8874H248.661L251.804 31.6861L255.513 22.8874H269.86V0.752365H234.313Z" fill="#E5E6EC"/>
<path opacity="0.12" d="M250.294 16.756H250.238C250.078 16.7475 249.922 16.7045 249.78 16.63C249.638 16.5555 249.514 16.4512 249.417 16.3244L245.652 11.51C245.552 11.3964 245.477 11.2635 245.43 11.1197C245.384 10.9758 245.367 10.8241 245.382 10.6737C245.397 10.5233 245.442 10.3775 245.516 10.2453C245.589 10.1131 245.689 9.99723 245.809 9.9049C245.929 9.81256 246.066 9.74568 246.213 9.70839C246.36 9.67109 246.513 9.66417 246.663 9.68805C246.813 9.71193 246.956 9.7661 247.084 9.84723C247.212 9.92836 247.321 10.0347 247.407 10.1598L250.349 13.9449L257.634 6.10906C257.73 5.9912 257.849 5.89426 257.984 5.82424C258.119 5.75423 258.267 5.71264 258.419 5.70207C258.571 5.69149 258.724 5.71216 258.867 5.76277C259.011 5.81339 259.142 5.89287 259.254 5.99629C259.365 6.09972 259.454 6.22486 259.515 6.36396C259.575 6.50306 259.607 6.65313 259.607 6.80487C259.607 6.9566 259.576 7.10675 259.516 7.24598C259.455 7.38522 259.367 7.51057 259.255 7.61424L251.093 16.4019C250.991 16.5118 250.867 16.5999 250.73 16.6607C250.593 16.7216 250.444 16.754 250.294 16.756Z" fill="black"/>
</g>
<defs>
<clipPath id="clip0_358_10948">
<rect width="331" height="261" fill="white"/>
</clipPath>
</defs>
</svg>
