<svg width="447" height="277" viewBox="0 0 447 277" fill="none" xmlns="http://www.w3.org/2000/svg">
<g clip-path="url(#clip0_358_11028)">
<path opacity="0.3" d="M353.708 18.5958C400.672 33.7814 445.335 75.6171 446.557 129.779C447.779 183.942 432.067 239.182 346.363 260.775C265.863 281.06 65.116 294.508 24.176 221.611C-16.764 148.715 -8.13898 55.1733 75.8254 22.0007C134.691 -1.24457 261.982 -11.0426 353.708 18.5958Z" fill="#E5E6EC"/>
<path d="M90.6893 185.709L74.3018 195.852L93.2768 214.126C93.2768 214.126 111.001 202.475 115.314 201.886C119.626 201.297 128.639 206.684 135.784 201.886C142.928 197.087 144.998 181.916 144.998 181.916C144.998 181.916 128.165 172.664 90.6893 185.709Z" fill="#F4A28C"/>
<path d="M318.275 190.292L184.199 184.804L173.102 160.323L236.409 68.0172L318.275 190.292Z" fill="#E5E6EC"/>
<path d="M187.428 183.057C189.264 182.225 188.289 176.12 185.25 169.421C182.211 162.722 178.259 157.966 176.422 158.798C174.586 159.631 175.56 165.736 178.599 172.435C181.639 179.134 185.591 183.889 187.428 183.057Z" fill="#525F9B"/>
<path d="M157.804 171.838L95.001 200.297L102.546 216.928L165.349 188.469L157.804 171.838Z" fill="#525F9B"/>
<path d="M157.804 171.838L95.001 200.297L102.546 216.928L165.349 188.469L157.804 171.838Z" fill="#273782"/>
<path d="M166.273 190.55L189.402 185.12L176.192 155.984L156.857 169.791L166.273 190.55Z" fill="#525F9B"/>
<path d="M189.403 185.12L166.273 190.55L158.813 174.101L156.872 169.791L176.206 155.97L187.131 180.077L189.403 185.12Z" fill="#FEA771"/>
<path opacity="0.08" d="M189.402 185.12L166.273 190.55L158.812 174.101C160.125 174.941 161.505 175.671 162.938 176.284C168.722 178.546 174.869 179.739 181.079 179.804C183.049 179.905 185.09 179.948 187.117 180.077L189.402 185.12Z" fill="black"/>
<path d="M308.83 190.809C354.543 190.809 391.601 153.773 391.601 108.086C391.601 62.399 354.543 25.3625 308.83 25.3625C263.117 25.3625 226.059 62.399 226.059 108.086C226.059 153.773 263.117 190.809 308.83 190.809Z" fill="#B9BFD7"/>
<path d="M308.83 167.578C341.705 167.578 368.356 140.942 368.356 108.086C368.356 75.229 341.705 48.5934 308.83 48.5934C275.954 48.5934 249.303 75.229 249.303 108.086C249.303 140.942 275.954 167.578 308.83 167.578Z" fill="#E5E6EC"/>
<path d="M308.83 145.597C329.559 145.597 346.363 128.803 346.363 108.086C346.363 87.3688 329.559 70.5744 308.83 70.5744C288.101 70.5744 271.297 87.3688 271.297 108.086C271.297 128.803 288.101 145.597 308.83 145.597Z" fill="#B9BFD7"/>
<path d="M308.83 124.277C317.777 124.277 325.03 117.028 325.03 108.086C325.03 99.1436 317.777 91.8945 308.83 91.8945C299.882 91.8945 292.629 99.1436 292.629 108.086C292.629 117.028 299.882 124.277 308.83 124.277Z" fill="#E5E6EC"/>
<path d="M88.1885 187.347L88.8785 186.901C92.8028 184.387 112.353 172.132 121.495 170.897C131.673 169.46 150.878 179.517 150.245 187.347C149.613 195.177 132.808 184.014 132.808 184.014C132.808 184.014 123.407 200.851 108.716 195.952" fill="#F4A28C"/>
<path d="M150.533 205.19C150.978 204.73 151.395 204.256 151.798 203.753C154.371 200.478 155.808 195.708 152.229 192.547C150.622 191.243 148.765 190.28 146.773 189.717C144.781 189.154 142.695 189.003 140.643 189.272C138.759 189.627 136.938 190.256 135.238 191.139C129.931 193.891 125.328 197.823 121.783 202.633C120.461 204.269 119.483 206.155 118.908 208.178C118.419 210.032 119.67 211.554 121.078 212.747C126.756 217.56 134.275 214.988 140.154 212.086C143.988 210.407 147.5 208.074 150.533 205.19Z" fill="#F4A28C"/>
<path d="M97.4021 214.169L57.2671 256.134L41.0521 244.483L20.999 230.116L76.429 190.335C76.429 190.335 83.444 198.955 89.1653 205.865C92.9603 210.434 96.1803 214.212 96.3528 214.212L97.4021 214.169Z" fill="#525F9B"/>
<path opacity="0.08" d="M97.4027 214.169L57.2677 256.134L41.0527 244.483L89.1659 205.822C92.9609 210.391 96.1809 214.169 96.3534 214.169H97.4027Z" fill="black"/>
</g>
<defs>
<clipPath id="clip0_358_11028">
<rect width="447" height="277" fill="white"/>
</clipPath>
</defs>
</svg>
