<svg width="248" height="252" viewBox="0 0 248 252" fill="none" xmlns="http://www.w3.org/2000/svg">
<path opacity="0.45" d="M123.92 251.149C192.36 251.149 247.841 246.621 247.841 241.036C247.841 235.452 192.36 230.924 123.92 230.924C55.4811 230.924 0 235.452 0 241.036C0 246.621 55.4811 251.149 123.92 251.149Z" fill="#EEEFF5"/>
<path d="M184.603 115.629H179.02V202.453H184.603V115.629Z" fill="#EEEFF5"/>
<path d="M148.473 191.486H215.15L210.155 238.861H153.479L148.473 191.486Z" fill="#848DB7"/>
<path d="M232.878 133.488C227.765 142.235 219.837 148.989 210.389 152.647C194.849 158.519 184.049 151.837 184.049 151.837C184.049 151.837 187.745 139.738 203.341 133.877C212.858 130.407 223.272 130.27 232.878 133.488Z" fill="#EEEFF5"/>
<path opacity="0.05" d="M232.878 133.488C227.765 142.235 219.837 148.989 210.389 152.647C194.849 158.519 184.049 151.837 184.049 151.837L232.878 133.488Z" fill="black"/>
<path d="M130.734 151.903C135.84 160.657 143.764 167.419 153.212 171.084C168.807 176.945 179.552 170.263 179.552 170.263C179.552 170.263 175.867 158.164 160.271 152.303C150.755 148.83 140.341 148.689 130.734 151.903Z" fill="#EEEFF5"/>
<path opacity="0.05" d="M130.734 151.903C135.84 160.657 143.764 167.419 153.212 171.084C168.807 176.945 179.552 170.263 179.552 170.263L130.734 151.903Z" fill="black"/>
<path d="M182.828 122.044C191.944 122.044 199.334 119.058 199.334 115.373C199.334 111.689 191.944 108.702 182.828 108.702C173.712 108.702 166.322 111.689 166.322 115.373C166.322 119.058 173.712 122.044 182.828 122.044Z" fill="#848DB7"/>
<path d="M182.827 89.466C207.532 89.466 227.56 69.4384 227.56 44.733C227.56 20.0276 207.532 0 182.827 0C158.121 0 138.094 20.0276 138.094 44.733C138.094 69.4384 158.121 89.466 182.827 89.466Z" fill="#FEA670"/>
<path d="M201.054 86.269H164.602V115.373H201.054V86.269Z" fill="#51557D"/>
<path d="M163.559 41.5361H202.098L190.099 89.4659H175.547L163.559 41.5361Z" stroke="#24285B" stroke-miterlimit="10"/>
<path d="M82.8479 118.994C82.8479 118.994 87.7094 143.059 103.266 148.163C118.823 153.268 127.331 152.296 127.331 152.296V159.86C127.331 159.86 90.1402 168.611 70.937 134.308L82.8479 118.994Z" fill="#848DB7"/>
<path opacity="0.46" d="M82.8479 118.994C82.8479 118.994 87.7094 143.059 103.266 148.163C118.823 153.268 127.331 152.296 127.331 152.296V159.86C127.331 159.86 90.1402 168.611 70.937 134.308L82.8479 118.994Z" fill="white"/>
<path d="M40.4557 199.686L33.3384 232.015H37.4707L51.3262 199.686H40.4557Z" fill="#F4A28C"/>
<path d="M63.607 195.758L71.1911 232.015H75.3525L74.7205 195.495L63.607 195.758Z" fill="#F4A28C"/>
<path d="M60.8742 74.3844C61.974 76.7223 62.7524 79.1982 63.1883 81.7448C63.2206 82.0508 63.192 82.3601 63.1043 82.655C63.0165 82.9499 62.8713 83.2246 62.677 83.4631C62.4828 83.7017 62.2432 83.8995 61.9722 84.0451C61.7011 84.1908 61.404 84.2814 61.0978 84.3117C60.1192 84.4703 59.1156 84.3437 58.2069 83.9472C57.2982 83.5506 56.523 82.9008 55.9737 82.0754L53.2707 78.7501C52.7863 78.0238 52.5425 77.1636 52.5739 76.2911C52.6053 75.4186 52.9103 74.5781 53.4458 73.8885C55.2445 71.2536 59.7949 71.7689 60.8742 74.3844Z" fill="#F4A28C"/>
<path d="M41.3493 161.416L29.1273 216.954L53.192 216.439L63.6055 174.172L57.4021 164.226L41.3493 161.416Z" fill="#24285B"/>
<path d="M54.2927 79.5088L53.194 94.6963H61.6045L59.0862 83.9328L54.2927 79.5088Z" fill="#F4A28C"/>
<path d="M79.2992 159.861L84.0635 216.955H60.4849L57.4027 169.068L45.6572 159.861H79.2992Z" fill="#24285B"/>
<path d="M48.5155 94.4328C42.9109 94.2528 37.4336 96.1269 33.1141 99.7027C28.1553 103.913 24.0035 111.166 27.2219 123.34C33.6391 147.647 45.1416 161.415 45.1416 161.415L79.2988 159.86C79.2988 159.86 78.0445 143.496 82.4491 133.704C86.8537 123.913 91.0638 99.1582 61.6125 94.6953L48.5155 94.4328Z" fill="#848DB7"/>
<path d="M61.9837 77.0964L63.8214 78.3313C63.9257 78.3993 64.0114 78.4923 64.0707 78.6018C64.13 78.7113 64.1611 78.8339 64.1611 78.9584C64.1611 79.0829 64.13 79.2055 64.0707 79.315C64.0114 79.4245 63.9257 79.5175 63.8214 79.5855L62.2656 80.5579L61.9837 77.0964Z" fill="#F4A28C"/>
<path opacity="0.08" d="M44.4522 104.39C44.4522 104.39 54.224 110.35 53.203 118.975C52.1821 127.599 62.6733 155.456 79.1637 156.136L79.3096 159.841L66.1348 160.444L33.3484 147.901L27.1937 133.316L44.4522 104.39Z" fill="black"/>
<path opacity="0.31" d="M59.1643 84.234C58.148 84.0538 57.2001 83.6 56.4224 82.9214C56.4224 82.9214 55.8779 86.2078 59.8838 87.3162L59.1643 84.234Z" fill="#CE8172"/>
<path d="M57.0342 79.3231C57.0342 79.3231 56.3827 77.6605 55.1673 78.2536C53.9519 78.8467 54.8854 81.258 56.6841 80.8497L57.0342 79.3231Z" fill="#F4A28C"/>
<path d="M33.3402 232.016C33.3402 232.016 31.0456 234.933 28.1092 234.787C25.1728 234.641 24.745 238.793 29.4704 238.365C30.9406 238.236 32.3976 237.986 33.8264 237.616C35.1417 237.314 36.5135 237.364 37.8031 237.762C38.0571 237.82 38.3227 237.799 38.5644 237.702C38.8061 237.605 39.0121 237.436 39.1546 237.217C40.4964 235.642 37.21 232.016 37.21 232.016H33.3402Z" fill="#848DB7"/>
<path d="M75.071 232.016C75.071 232.016 77.3657 234.933 80.3021 234.787C83.2385 234.641 83.676 238.793 78.9408 238.365C77.4737 238.237 76.0199 237.987 74.5946 237.616C73.276 237.314 71.9012 237.364 70.6081 237.762C70.3542 237.819 70.089 237.797 69.8476 237.7C69.6063 237.603 69.4001 237.435 69.2566 237.217C67.9148 235.642 71.2013 232.016 71.2013 232.016H75.071Z" fill="#848DB7"/>
<path d="M49.1197 127.385L74.666 132.077L68.1239 167.695L42.5776 163.003L49.1197 127.385Z" fill="#FFA873"/>
<path opacity="0.08" d="M69.4795 152.461L66.757 167.338L41.1366 162.544L42.177 157.323L69.4795 152.461Z" fill="black"/>
<path d="M42.2746 101.161C41.6525 100.4 40.8851 99.7694 40.0169 99.3074C39.1488 98.8454 38.1974 98.5609 37.2182 98.4704C36.2389 98.3799 35.2515 98.4853 34.3134 98.7803C33.3753 99.0753 32.5054 99.5542 31.7542 100.189C25.619 105.323 16.6834 115.435 17.1696 130.515C17.8794 153.394 33.7766 163.574 67.5547 153.413L65.8629 147.356C65.8629 147.356 45.1138 153.112 34.1267 140.306C23.9757 128.444 57.4232 120.082 42.2746 101.161Z" fill="#848DB7"/>
<path opacity="0.46" d="M42.2746 101.161C41.6525 100.4 40.8851 99.7694 40.0169 99.3074C39.1488 98.8454 38.1974 98.5609 37.2182 98.4704C36.2389 98.3799 35.2515 98.4853 34.3134 98.7803C33.3753 99.0753 32.5054 99.5542 31.7542 100.189C25.619 105.323 16.6834 115.435 17.1696 130.515C17.8794 153.394 33.7766 163.574 67.5547 153.413L65.8629 147.356C65.8629 147.356 45.1138 153.112 34.1267 140.306C23.9757 128.444 57.4232 120.082 42.2746 101.161Z" fill="white"/>
<path d="M59.8817 74.5203C58.6414 75.358 57.2715 75.9854 55.8271 76.3774C55.8271 76.3774 57.1203 81.4625 53.9408 84.3503C53.9408 84.3503 47.193 78.9637 50.2752 74.2674C52.8519 70.3782 54.6215 67.0821 58.851 68.4336C59.4566 68.6294 59.9969 68.9876 60.4131 69.469C60.8293 69.9505 61.1056 70.5369 61.2119 71.1644C61.3181 71.7919 61.2503 72.4366 61.0158 73.0282C60.7813 73.6199 60.389 74.136 59.8817 74.5203Z" fill="#24285B"/>
<path d="M46.9509 77.9917C44.4001 77.9917 42.3324 75.9239 42.3324 73.3732C42.3324 70.8225 44.4001 68.7548 46.9509 68.7548C49.5016 68.7548 51.5693 70.8225 51.5693 73.3732C51.5693 75.9239 49.5016 77.9917 46.9509 77.9917Z" fill="#24285B"/>
<path d="M66.1266 148.328C66.1266 148.328 74.4204 144.838 75.3538 148.328C76.2873 151.819 67.5754 153.374 67.5754 153.374L66.1266 148.328Z" fill="#F4A28C"/>
<path d="M127.334 153.375C127.334 153.375 138.272 152.218 136.493 156.593C134.713 160.969 127.334 158.207 127.334 158.207V153.375Z" fill="#F4A28C"/>
<path d="M66.124 95.5996C66.124 95.5996 65.9879 92.5368 61.2625 91.7104C56.537 90.8839 49.3225 88.2198 48.4863 94.4717L66.124 95.5996Z" fill="#848DB7"/>
<path opacity="0.46" d="M66.124 95.5996C66.124 95.5996 65.9879 92.5368 61.2625 91.7104C56.537 90.8839 49.3225 88.2198 48.4863 94.4717L66.124 95.5996Z" fill="white"/>
<path d="M57.0342 78.8083C57.0342 78.8083 55.9841 77.0192 54.6228 78.0012C53.2616 78.9833 54.2825 81.1612 56.5675 81.1612L57.0342 78.8083Z" fill="#F4A28C"/>
<path d="M71.3867 29.0742V48.5204H58.8245L56.0728 56.2503L52.8253 48.5204H40.2631V29.0742H71.3867Z" fill="#EEEFF5"/>
<path opacity="0.12" d="M57.3932 43.1337H57.4418C57.582 43.1262 57.7189 43.0884 57.8431 43.023C57.9673 42.9575 58.0758 42.8659 58.1613 42.7545L61.4574 38.525C61.5449 38.4251 61.6109 38.3084 61.6516 38.182C61.6922 38.0557 61.7065 37.9223 61.6937 37.7902C61.6808 37.6581 61.641 37.53 61.5768 37.4139C61.5126 37.2977 61.4252 37.1959 61.3202 37.1148C61.2151 37.0337 61.0945 36.9749 60.9659 36.9422C60.8373 36.9094 60.7033 36.9033 60.5723 36.9243C60.4412 36.9453 60.3158 36.9929 60.2038 37.0642C60.0919 37.1354 59.9957 37.2289 59.9212 37.3387L57.3445 40.664L50.9662 33.7801C50.8822 33.6765 50.7779 33.5914 50.6596 33.5299C50.5413 33.4684 50.4117 33.4318 50.2787 33.4225C50.1457 33.4132 50.0123 33.4314 49.8866 33.4759C49.761 33.5203 49.6458 33.5902 49.5482 33.681C49.4507 33.7719 49.3729 33.8818 49.3196 34.004C49.2664 34.1262 49.2388 34.2581 49.2386 34.3914C49.2385 34.5247 49.2658 34.6566 49.3187 34.7789C49.3717 34.9012 49.4493 35.0113 49.5466 35.1024L56.6931 42.8226C56.7826 42.9191 56.8909 42.9965 57.0112 43.05C57.1315 43.1035 57.2615 43.132 57.3932 43.1337Z" fill="black"/>
</svg>
