<svg width="275" height="208" viewBox="0 0 275 208" fill="none" xmlns="http://www.w3.org/2000/svg">
<g clip-path="url(#clip0_358_11162)">
<path d="M100.891 34.3461C99.988 35.4327 99.3116 36.6901 98.9025 38.0439C98.4934 39.3976 98.3599 40.8199 98.5099 42.2264C98.6599 43.6328 99.0904 44.9947 99.7758 46.2311C100.461 47.4675 101.388 48.5532 102.5 49.4237C112.342 57.1298 126.585 70.8386 141.009 71.4368C159.713 72.1973 166.925 31.6287 166.925 31.6287L159.763 29.2155C159.763 29.2155 151.034 81.5359 119.109 33.7479C115.063 27.6641 105.555 28.6781 100.902 34.3461H100.891Z" fill="#525F9B"/>
<path opacity="0.46" d="M100.891 34.3461C99.988 35.4327 99.3116 36.6901 98.9025 38.0439C98.4934 39.3976 98.3599 40.8199 98.5099 42.2264C98.6599 43.6328 99.0904 44.9947 99.7758 46.2311C100.461 47.4675 101.388 48.5532 102.5 49.4237C112.342 57.1298 126.585 70.8386 141.009 71.4368C159.713 72.1973 166.925 31.6287 166.925 31.6287L159.763 29.2155C159.763 29.2155 151.034 81.5359 119.109 33.7479C115.063 27.6641 105.555 28.6781 100.902 34.3461H100.891Z" fill="white"/>
<path opacity="0.45" d="M137.92 207.074C213.583 207.074 274.92 203.135 274.92 198.277C274.92 193.418 213.583 189.479 137.92 189.479C62.2569 189.479 0.919922 193.418 0.919922 198.277C0.919922 203.135 62.2569 207.074 137.92 207.074Z" fill="#EEEFF5"/>
<path d="M132.795 129.628C132.795 129.628 135.152 131.291 137.277 130.054C139.401 128.817 141.323 130.409 139.856 132.193C138.389 133.978 132.138 134.921 132.138 134.921L129.761 131.119L132.795 129.628Z" fill="#525F9B"/>
<path d="M58.1733 149.289C58.1733 149.289 56.7976 151.824 58.2744 153.791C59.7513 155.758 58.3857 157.847 56.4536 156.61C54.5216 155.372 52.8525 149.238 52.8525 149.238L56.3323 146.399L58.1733 149.289Z" fill="#525F9B"/>
<path d="M85.1216 158.08H22.6182V197.401H85.1216V158.08Z" fill="#EEEFF5"/>
<path d="M170.344 134.749H107.841V197.401H170.344V134.749Z" fill="#FEA670"/>
<path d="M254.545 99.0267H192.042V197.401H254.545V99.0267Z" fill="#EEEFF5"/>
<path d="M112.656 7.80061C111.991 10.4836 110.97 13.0651 109.621 15.4763C109.443 15.7517 109.212 15.9892 108.942 16.175C108.672 16.3608 108.368 16.4914 108.048 16.5592C107.727 16.627 107.396 16.6308 107.075 16.5702C106.753 16.5097 106.446 16.386 106.172 16.2063C105.261 15.678 104.521 14.898 104.04 13.9594C103.559 13.0209 103.358 11.9635 103.461 10.9135V6.33036C103.55 5.41261 103.923 4.54564 104.527 3.84974C105.13 3.15385 105.935 2.66355 106.829 2.44689C110.076 1.43293 113.505 4.90068 112.656 7.80061Z" fill="#F4A28C"/>
<path d="M103.43 7.16187L95.9248 21.5703L104.149 25.1495L106.303 13.2254L103.43 7.16187Z" fill="#F4A28C"/>
<path d="M111.421 7.59781C109.953 7.17343 108.54 6.57431 107.213 5.81324C107.417 6.5947 107.389 7.41879 107.132 8.18432C106.875 8.94985 106.4 9.62351 105.767 10.1226C105.165 10.6168 104.411 10.8869 103.632 10.8869C102.854 10.8869 102.1 10.6168 101.498 10.1226L103.592 4.13006C103.864 3.25942 104.366 2.47864 105.045 1.87009C105.723 1.26154 106.553 0.847775 107.446 0.672451C108.221 0.51873 109.005 0.417108 109.793 0.368263C111.755 0.256728 113.91 2.26437 115.862 1.61544C116.058 1.5507 116.268 1.53818 116.471 1.57913C116.673 1.62008 116.862 1.71308 117.018 1.84902C117.174 1.98496 117.292 2.15919 117.361 2.35464C117.429 2.5501 117.446 2.76007 117.41 2.964C117.066 4.89053 115.761 7.67893 112.949 7.84116C112.429 7.85216 111.912 7.76973 111.421 7.59781Z" fill="#273782"/>
<path d="M106.323 10.1429C106.323 10.1429 106.89 8.32792 105.484 8.00345C104.078 7.67899 103.238 10.3153 105.008 11.1873L106.323 10.1429Z" fill="#F4A28C"/>
<path d="M111.765 10.8019L112.463 13.0529C112.499 13.1794 112.503 13.3129 112.475 13.4414C112.447 13.5699 112.388 13.6896 112.303 13.7898C112.218 13.89 112.11 13.9677 111.988 14.016C111.866 14.0643 111.734 14.0818 111.603 14.0668L109.691 13.7931L111.765 10.8019Z" fill="#F4A28C"/>
<path opacity="0.31" d="M105.949 15.8616C104.975 15.2286 104.208 14.3224 103.744 13.2557C103.744 13.2557 102.924 16.1151 105.079 19.9377L105.949 15.8616Z" fill="#CE8172"/>
<path d="M95.9244 21.5702L101.518 24.0038C102.877 24.6077 104.272 25.1258 105.696 25.5551C110.248 26.9341 123.388 32.1966 124.612 47.5885C126.099 66.2352 98.251 88.9277 98.251 88.9277L69.0072 79.1633C69.0072 79.1633 53.9958 9.19992 95.9244 21.5702Z" fill="#525F9B"/>
<path d="M161.119 29.6717C161.119 29.6717 161.332 21.053 164.154 19.1975C166.976 17.3419 164.852 25.484 164.852 25.484C164.852 25.484 171.518 26.0924 166.936 31.6287L161.119 29.6717Z" fill="#F4A28C"/>
<path d="M134.018 169.394V167.155L139.249 162.31C139.694 161.88 140.068 161.492 140.369 161.148C140.675 160.803 140.907 160.466 141.065 160.136C141.223 159.801 141.302 159.44 141.302 159.052C141.302 158.622 141.204 158.251 141.008 157.94C140.812 157.624 140.544 157.382 140.204 157.215C139.864 157.043 139.479 156.957 139.048 156.957C138.599 156.957 138.206 157.047 137.871 157.229C137.537 157.411 137.278 157.672 137.096 158.012C136.915 158.351 136.824 158.756 136.824 159.224H133.874C133.874 158.263 134.092 157.428 134.527 156.72C134.962 156.012 135.573 155.464 136.357 155.076C137.142 154.689 138.046 154.495 139.07 154.495C140.123 154.495 141.039 154.682 141.819 155.055C142.603 155.423 143.213 155.935 143.649 156.591C144.084 157.246 144.302 157.997 144.302 158.844C144.302 159.399 144.192 159.947 143.972 160.488C143.757 161.028 143.371 161.629 142.816 162.289C142.261 162.944 141.479 163.732 140.47 164.65L138.324 166.753V166.853H144.496V169.394H134.018Z" fill="#273782"/>
<path d="M164.153 26.4372C164.153 26.4372 167.309 19.3395 169.029 20.4345C170.749 21.5296 166.278 27.9784 166.278 27.9784L164.153 26.4372Z" fill="#F4A28C"/>
<path d="M69.0073 79.1632C69.0073 79.1632 63.2819 97.7998 77.393 101.602C91.5041 105.405 117.025 96.3803 128.982 131.585L134.515 128.939C134.515 128.939 133.756 97.6781 101.761 85.7945L69.0073 79.1632Z" fill="#273782"/>
<path d="M73.0031 87.8833C73.0031 87.8833 89.0563 118.748 54.6738 143.57L58.1738 149.289C58.1738 149.289 93.9016 136.564 94.4478 92.3143L73.0031 87.8833Z" fill="#273782"/>
<path opacity="0.08" d="M94.4478 38.1992C94.4478 38.1992 93.9218 45.7127 83.9379 54.5139C73.9539 63.315 85.1214 82.4383 85.1214 82.4383L69.0074 79.1633C69.0074 79.1633 64.678 56.2883 67.2069 41.9002C69.7358 27.5121 93.6285 38.1789 93.6285 38.1789L94.4478 38.1992Z" fill="black"/>
<path d="M79.7198 19.5524C61.6637 19.0353 23.2958 23.8212 34.8679 75.8171H42.8793C42.8793 75.8171 43.8909 37.5502 76.8471 41.9508C78.0768 42.1298 79.3169 42.228 80.5594 42.2449C86.1229 42.2449 99.5462 41.2309 94.974 29.9151C93.7085 26.8906 91.5925 24.3004 88.8839 22.4604C86.1754 20.6204 82.9913 19.61 79.7198 19.5524Z" fill="#525F9B"/>
<path opacity="0.46" d="M79.7198 19.5524C61.6637 19.0353 23.2958 23.8212 34.8679 75.8171H42.8793C42.8793 75.8171 43.8909 37.5502 76.8471 41.9508C78.0768 42.1298 79.3169 42.228 80.5594 42.2449C86.1229 42.2449 99.5462 41.2309 94.974 29.9151C93.7085 26.8906 91.5925 24.3004 88.8839 22.4604C86.1754 20.6204 82.9913 19.61 79.7198 19.5524Z" fill="white"/>
<path d="M41.4528 75.8171C41.9551 78.4165 41.731 81.1043 40.8054 83.5841C39.2578 87.0823 36.5468 87.7312 34.3518 86.3015C32.1567 84.8718 37.1942 79.2038 37.1942 79.2038L36.0309 75.8374L41.4528 75.8171Z" fill="#F4A28C"/>
</g>
<defs>
<clipPath id="clip0_358_11162">
<rect width="274" height="207" fill="white" transform="translate(0.919922 0.0742188)"/>
</clipPath>
</defs>
</svg>
