<svg width="735" height="545" viewBox="0 0 735 545" fill="none" xmlns="http://www.w3.org/2000/svg">
<path d="M680 189.956C680.301 189.006 680.603 188.057 680.753 187.107C683.389 170.094 695.814 74.3464 626.986 42.1403C593.099 26.3143 554.693 0.201249 430.441 48.4708C283.823 105.445 187.96 8.90559 165.369 8.90559C142.777 8.90559 91.5703 -25.9118 31.3267 42.1403C-18.6664 98.6132 3.94217 164.895 13.0833 185.816C15.0674 190.357 17.1257 194.796 18.7079 199.492C25.4313 219.446 43.2376 277.233 35.845 309.601C26.8084 349.166 16.2658 380.818 19.278 393.479C22.2901 406.14 23.7962 491.601 73.4972 510.592C123.198 529.583 106.631 526.418 222.6 520.088C338.569 513.757 398.813 531.166 422.91 540.662C447.008 550.157 483.154 546.992 547.916 501.096C612.678 455.201 627.739 469.444 660.873 448.87C694.007 428.296 778.197 314.507 707.562 232.053C680.226 200.243 679.322 191.934 680 189.956Z" fill="#DCDFEB"/>
<path opacity="0.45" d="M327.076 413.616C461.26 413.616 570.038 405.09 570.038 394.572C570.038 384.054 461.26 375.528 327.076 375.528C192.891 375.528 84.113 384.054 84.113 394.572C84.113 405.09 192.891 413.616 327.076 413.616Z" fill="#E5E6EC"/>
<path d="M191.985 373.293C191.985 373.293 192.071 378.901 196.446 380.837C200.82 382.773 200.493 387.584 196.047 387.342C191.601 387.1 182.908 378.275 182.908 378.275L186.2 370.162L191.985 373.293Z" fill="#525F9B"/>
<path d="M174.8 314.396C174.8 314.396 200.949 315.549 198.099 333.269C195.249 350.99 183.706 370.162 183.706 370.162L193.767 374.361C193.767 374.361 213.717 351.474 215.669 323.235C217.621 294.996 177.536 301.301 174.8 314.396Z" fill="#24285B"/>
<path opacity="0.08" d="M174.8 314.396C174.8 314.396 200.949 315.549 198.099 333.269C195.249 350.99 183.706 370.162 183.706 370.162L193.767 374.361C193.767 374.361 213.717 351.474 215.669 323.235C217.621 294.996 177.536 301.301 174.8 314.396Z" fill="black"/>
<path d="M156.717 207.219C147.226 199.889 132.948 203.646 128.972 214.962C127.75 218.483 127.715 222.307 128.872 225.85C133.389 240.326 140.514 260.01 167.105 267.127C193.695 274.244 216.039 279.567 218.177 270.244C220.314 260.921 214.372 249.065 192.527 241.777C176.98 236.511 168.786 216.527 156.717 207.219Z" fill="#525F9B"/>
<path opacity="0.08" d="M156.717 207.219C147.226 199.889 132.948 203.646 128.972 214.962C127.75 218.483 127.715 222.307 128.872 225.85C133.389 240.326 140.514 260.01 167.105 267.127C193.695 274.244 216.039 279.567 218.177 270.244C220.314 260.921 214.372 249.065 192.527 241.777C176.98 236.511 168.786 216.527 156.717 207.219Z" fill="black"/>
<path d="M213.004 374.517C213.004 374.517 213.004 380.125 217.465 382.061C221.925 383.997 221.512 388.808 217.051 388.566C212.591 388.324 203.927 379.499 203.927 379.499L207.147 371.372L213.004 374.517Z" fill="#525F9B"/>
<path d="M487.944 279.026L443.455 246.19C443.455 246.19 429.476 236.226 427.21 244.766C424.945 253.306 441.033 254.73 441.033 254.73C441.033 254.73 468.25 298.212 481.902 293.032C495.553 287.851 487.944 279.026 487.944 279.026Z" fill="#F4A28C"/>
<path opacity="0.08" d="M487.944 279.026L443.455 246.19C443.455 246.19 429.476 236.226 427.21 244.766C424.945 253.306 441.033 254.73 441.033 254.73C441.033 254.73 468.25 298.212 481.902 293.032C495.553 287.851 487.944 279.026 487.944 279.026Z" fill="black"/>
<path d="M445.792 331.391L485.436 374.503L490.908 372.141L460.997 319.064L445.792 331.391Z" fill="#F4A28C"/>
<path d="M484.709 373.407C484.709 373.407 484.709 378.773 481.146 381.207C477.584 383.641 480.833 388.779 485.877 384.054C487.434 382.613 488.864 381.041 490.152 379.357C491.397 377.843 493.019 376.685 494.855 375.998C495.197 375.841 495.482 375.585 495.673 375.261C495.865 374.938 495.952 374.564 495.924 374.19C496.08 371.201 489.084 369.92 489.084 369.92L484.709 373.407Z" fill="#525F9B"/>
<path d="M471.471 292.932C471.471 292.932 416.109 292.519 424.132 325.256C426.313 334.669 430.564 343.48 436.575 351.049C442.586 358.619 450.208 364.759 458.888 369.023L478.838 332.486L467.865 300.703L471.471 292.932Z" fill="#24285B"/>
<path opacity="0.08" d="M471.471 292.932C471.471 292.932 416.109 292.519 424.132 325.256C426.313 334.669 430.564 343.48 436.575 351.049C442.586 358.619 450.208 364.759 458.888 369.023L478.838 332.486L467.865 300.703L471.471 292.932Z" fill="black"/>
<path d="M502.65 322.295H496.75V373.123H502.65V322.295Z" fill="#B9BFD7"/>
<path d="M519.251 199.092C519.251 199.092 524.68 170.027 550.8 183.179C570.052 192.872 551.242 270.173 540.027 310.154C538.1 316.995 533.987 323.018 528.314 327.307C522.642 331.596 515.721 333.915 508.606 333.91H471.77C460.498 333.91 458.489 317.869 469.404 315.093L470.046 314.937C476.401 313.513 483.854 312.318 490.637 311.421C496.378 310.682 501.689 307.99 505.675 303.798C509.662 299.606 512.081 294.17 512.525 288.406L519.251 199.092Z" fill="#E5E6EC"/>
<path d="M493.074 171.493C493.047 174.749 493.454 177.995 494.285 181.143C494.41 181.51 494.606 181.848 494.863 182.139C495.119 182.429 495.43 182.667 495.778 182.837C496.126 183.008 496.504 183.108 496.891 183.133C497.278 183.157 497.666 183.105 498.033 182.979C499.238 182.644 500.321 181.969 501.153 181.035C501.984 180.101 502.529 178.948 502.721 177.713L504.075 172.489C504.237 171.414 504.061 170.314 503.571 169.343C503.081 168.372 502.301 167.576 501.339 167.067C497.862 164.96 492.931 167.935 493.074 171.493Z" fill="#F4A28C"/>
<path d="M504.944 175.578L506.597 194.679L495.995 194.85L498.973 181.229L504.944 175.578Z" fill="#F4A28C"/>
<path d="M493.23 175.18L491.805 177.557C491.723 177.692 491.676 177.845 491.668 178.003C491.661 178.161 491.694 178.318 491.763 178.46C491.833 178.602 491.937 178.724 492.067 178.815C492.196 178.906 492.346 178.962 492.504 178.98L494.769 179.222L493.23 175.18Z" fill="#F4A28C"/>
<path opacity="0.31" d="M498.888 181.613C500.161 181.37 501.343 180.784 502.308 179.919C502.308 179.919 503.063 184.047 498.033 185.513L498.888 181.613Z" fill="#CE8172"/>
<path d="M436.487 322.295V380.823L442.13 382.773L456.038 323.477L436.487 322.295Z" fill="#F4A28C"/>
<path d="M436.701 379.528C436.701 379.528 433.01 383.442 428.792 382.872C424.574 382.303 423.42 388.238 430.302 388.21C432.442 388.208 434.577 388.028 436.686 387.669C438.615 387.399 440.58 387.64 442.386 388.366C442.745 388.482 443.13 388.487 443.491 388.381C443.852 388.274 444.172 388.061 444.41 387.769C446.533 385.662 442.23 380.012 442.23 380.012L436.701 379.528Z" fill="#525F9B"/>
<path d="M504.545 175.635C504.545 175.635 504.402 173.386 506.112 173.429C507.822 173.472 508.022 176.717 505.742 177.201L504.545 175.635Z" fill="#F4A28C"/>
<path d="M494.271 171.18C496.135 171.483 498.035 171.483 499.899 171.18C499.899 171.18 501.096 177.67 506.255 179.307C506.255 179.307 511.143 169.6 505.143 165.843C500.127 162.697 496.38 159.907 492.247 163.651C491.65 164.192 491.214 164.888 490.987 165.661C490.76 166.433 490.751 167.254 490.96 168.032C491.169 168.81 491.588 169.515 492.172 170.07C492.756 170.626 493.482 171.01 494.271 171.18Z" fill="#24285B"/>
<path d="M508.492 168.846C511.711 168.846 514.321 166.239 514.321 163.024C514.321 159.809 511.711 157.203 508.492 157.203C505.273 157.203 502.664 159.809 502.664 163.024C502.664 166.239 505.273 168.846 508.492 168.846Z" fill="#24285B"/>
<path d="M499.8 174.539C499.8 174.539 500.056 171.934 502.137 172.347C504.217 172.76 504.189 175.792 501.567 176.987L499.8 174.539Z" fill="#F4A28C"/>
<path d="M495.254 197.882L505.614 194.907C505.614 194.907 533.273 197.882 532.988 220.043C532.774 236.468 513.58 297.857 513.58 297.857H471.471V276.236C471.564 266.003 469.163 255.901 464.474 246.802C457.962 234.476 454.556 213.026 495.254 197.882Z" fill="#525F9B"/>
<path d="M487.417 224.228C489.112 204.756 516.7 202.337 522.03 221.139C524.88 231.102 526.305 245.478 523.027 265.704C515.175 314.467 421.125 282.784 421.125 282.784V271.226C421.125 271.226 476.701 281.673 490.053 267.44C497.905 259.099 486.049 239.984 487.417 224.228Z" fill="#525F9B"/>
<path d="M471.471 287.751L513.579 297.857C513.579 297.857 515.617 316.004 500.968 317.427C486.319 318.851 441.432 313.869 458.888 369.023H424.175C424.175 369.023 403.071 309.756 454.656 297.857C460.912 296.433 471.4 295.238 471.499 288.818L471.471 287.751Z" fill="#24285B"/>
<path d="M283.1 180.446C274.623 185.565 267.531 192.682 262.446 201.173C257.361 209.664 254.437 219.271 253.93 229.152C252.135 261.462 255.07 296.12 296.068 292.234C337.065 288.349 283.1 180.446 283.1 180.446Z" fill="#525F9B"/>
<path opacity="0.08" d="M283.1 180.446C274.623 185.565 267.531 192.682 262.446 201.173C257.361 209.664 254.437 219.271 253.93 229.152C252.135 261.462 255.07 296.12 296.068 292.234C337.065 288.349 283.1 180.446 283.1 180.446Z" fill="black"/>
<path d="M307.966 146.656C307.457 150.434 307.457 154.264 307.966 158.043C308.059 158.484 308.239 158.903 308.494 159.275C308.749 159.647 309.076 159.965 309.454 160.211C309.833 160.456 310.256 160.625 310.7 160.708C311.144 160.79 311.6 160.784 312.042 160.69C313.483 160.474 314.832 159.848 315.926 158.886C317.021 157.924 317.814 156.668 318.212 155.267L320.52 149.389C320.869 148.17 320.83 146.873 320.409 145.677C319.987 144.481 319.205 143.446 318.169 142.713C314.45 139.753 308.308 142.514 307.966 146.656Z" fill="#F4A28C"/>
<path d="M320.164 150.414L322.701 172.632L310.346 173.158L313.452 156.776L320.164 150.414Z" fill="#F4A28C"/>
<path d="M307.624 150.954L305.615 153.488C305.5 153.633 305.423 153.805 305.392 153.987C305.361 154.17 305.376 154.357 305.438 154.532C305.499 154.707 305.603 154.863 305.742 154.987C305.88 155.111 306.047 155.197 306.228 155.239L308.807 155.836L307.624 150.954Z" fill="#F4A28C"/>
<path opacity="0.31" d="M312.626 160.334C314.178 160.019 315.601 159.251 316.716 158.128C316.716 158.128 316.359 162.213 311.7 166.042L312.626 160.334Z" fill="#CE8172"/>
<path d="M296.623 175.108C296.623 175.108 349.619 163.252 368.6 173.884C387.581 184.517 350.332 284.691 350.332 284.691L291.807 282.84C291.807 282.84 240.607 185.285 296.623 175.108Z" fill="#525F9B"/>
<path d="M308.465 378.759C308.465 378.759 305.729 383.67 300.955 383.299C296.182 382.929 294.201 387.328 298.234 389.221C302.266 391.114 314.094 387.441 314.094 387.441L315.106 378.759H308.465Z" fill="#525F9B"/>
<path d="M351.329 377.677C351.329 377.677 353.267 382.943 358.055 383.299C362.843 383.655 364.111 388.324 359.836 389.576C355.561 390.829 344.375 385.392 344.375 385.392L344.703 376.667L351.329 377.677Z" fill="#525F9B"/>
<path opacity="0.08" d="M342.637 183.179C342.637 183.179 325.85 193.953 334.4 218.748C342.95 243.542 344.304 261.249 324.197 255.043C304.09 248.837 305.558 221.125 305.558 221.125L285.052 224.299L283.1 263.611L291.807 282.841L342.637 279.652L363.356 274.372L371.08 248.439L357.015 204.5L342.637 183.179Z" fill="black"/>
<path d="M291.807 282.841L306.783 378.759H316.559C316.559 378.759 307.496 306.624 323.328 297.914C339.159 289.203 342.266 378.759 342.266 378.759L352.654 377.933L352.526 279.04L291.807 282.841Z" fill="#24285B"/>
<path d="M352.925 170.739C352.925 170.739 385.899 165.188 385.899 217.011C385.899 268.835 377.976 314.951 301.824 268.735L307.61 259.911C307.61 259.911 348.65 277.93 357.414 262.102C366.177 246.275 323.171 179.521 352.925 170.739Z" fill="#525F9B"/>
<path opacity="0.46" d="M352.925 170.739C352.925 170.739 385.899 165.188 385.899 217.011C385.899 268.835 377.976 314.951 301.824 268.735L307.61 259.911C307.61 259.911 348.65 277.93 357.414 262.102C366.177 246.275 323.171 179.521 352.925 170.739Z" fill="white"/>
<path d="M292.699 216.828L264.784 223.842L275.293 265.569L303.208 258.555L292.699 216.828Z" fill="#FF914D"/>
<path d="M307.71 259.911C307.71 259.911 293.973 249.036 291.807 257.349C289.641 265.661 303.905 265.704 303.905 265.704L307.71 259.911Z" fill="#F4A28C"/>
<path d="M374.899 126.003C393.558 126.003 408.685 113.43 408.685 97.921C408.685 82.4115 393.558 69.8386 374.899 69.8386C356.239 69.8386 341.112 82.4115 341.112 97.921C341.112 113.43 356.239 126.003 374.899 126.003Z" fill="#FF914D"/>
<path d="M351.329 110.745L339.302 131.184L359.109 116.51L351.329 110.745Z" fill="#FF914D"/>
<path d="M361.589 102.091C363.895 102.091 365.764 100.224 365.764 97.9211C365.764 95.6179 363.895 93.7507 361.589 93.7507C359.283 93.7507 357.414 95.6179 357.414 97.9211C357.414 100.224 359.283 102.091 361.589 102.091Z" fill="white"/>
<path d="M374.97 102.091C377.276 102.091 379.145 100.224 379.145 97.9211C379.145 95.6179 377.276 93.7507 374.97 93.7507C372.664 93.7507 370.794 95.6179 370.794 97.9211C370.794 100.224 372.664 102.091 374.97 102.091Z" fill="white"/>
<path d="M388.208 102.091C390.514 102.091 392.383 100.224 392.383 97.9211C392.383 95.6179 390.514 93.7507 388.208 93.7507C385.902 93.7507 384.033 95.6179 384.033 97.9211C384.033 100.224 385.902 102.091 388.208 102.091Z" fill="white"/>
<path d="M309.292 146.983C309.796 147.152 310.31 147.289 310.831 147.396C311.571 147.556 312.293 147.794 312.982 148.108L313.538 148.35C313.931 148.521 314.265 148.803 314.499 149.163C314.732 149.522 314.854 149.943 314.849 150.371C314.849 152.549 315.533 156.548 320.806 157.004C320.806 157.004 326.164 148.976 321.874 142.77C320.613 141.077 318.988 139.686 317.119 138.701C315.25 137.716 313.184 137.161 311.073 137.077C305.33 136.878 303.834 145.147 309.292 146.983Z" fill="#24285B"/>
<path d="M154.479 373.108H160.379V322.281H154.479V373.108Z" fill="#B9BFD7"/>
<path d="M137.878 199.092C137.878 199.092 132.449 170.027 106.4 183.179C87.1483 192.872 105.958 270.173 117.173 310.154C119.1 316.995 123.213 323.018 128.886 327.307C134.559 331.596 141.48 333.915 148.594 333.91H185.431C196.702 333.91 198.712 317.869 187.796 315.093L187.155 314.937C180.799 313.513 173.347 312.318 166.564 311.421C160.83 310.673 155.529 307.977 151.551 303.786C147.573 299.595 145.16 294.164 144.718 288.406L137.878 199.092Z" fill="#E5E6EC"/>
<path d="M160.379 373.123L181.497 389.761H134.472L154.465 373.123H160.379Z" fill="#B9BFD7"/>
<path d="M156.945 161.046C157.701 164.714 157.964 168.467 157.729 172.205C157.598 173.087 157.123 173.882 156.407 174.416C155.692 174.949 154.794 175.178 153.91 175.051C152.475 174.94 151.102 174.42 149.956 173.552C148.809 172.683 147.935 171.505 147.44 170.155L144.747 164.561C144.324 163.382 144.279 162.1 144.619 160.893C144.958 159.687 145.665 158.616 146.642 157.829C150.091 154.74 156.275 156.947 156.945 161.046Z" fill="#F4A28C"/>
<path d="M145.231 165.629L144.362 187.662L156.546 187.278L152.299 171.408L145.231 165.629Z" fill="#F4A28C"/>
<path d="M155.32 161.53C153.28 161.849 151.21 161.935 149.15 161.786C149.855 162.622 150.3 163.645 150.429 164.73C150.558 165.816 150.366 166.915 149.877 167.892C149.421 168.85 148.645 169.62 147.683 170.069C146.721 170.518 145.633 170.619 144.604 170.355L143.706 161.815C143.531 160.59 143.691 159.341 144.17 158.2C144.65 157.06 145.43 156.071 146.428 155.338C147.296 154.682 148.205 154.083 149.15 153.545C151.501 152.25 155.334 153.545 157.344 151.538C157.549 151.347 157.801 151.212 158.074 151.146C158.346 151.08 158.632 151.085 158.902 151.161C159.173 151.236 159.419 151.38 159.618 151.578C159.816 151.777 159.961 152.022 160.037 152.292C160.735 154.869 160.749 159.025 157.386 160.832C156.741 161.178 156.043 161.414 155.32 161.53Z" fill="#24285B"/>
<path d="M150.575 167.607C150.575 167.607 150.219 165.045 148.309 165.472C146.4 165.899 146.884 169.614 149.563 169.643L150.575 167.607Z" fill="#F4A28C"/>
<path d="M157.6 165.245L159.766 167.593C159.89 167.727 159.978 167.89 160.021 168.067C160.065 168.244 160.064 168.429 160.017 168.605C159.97 168.781 159.879 168.942 159.753 169.074C159.627 169.205 159.47 169.303 159.296 169.358L156.802 170.141L157.6 165.245Z" fill="#F4A28C"/>
<path opacity="0.31" d="M153.425 174.838C151.846 174.656 150.357 174.006 149.15 172.973C149.15 172.973 149.805 176.959 154.679 180.389L153.425 174.838Z" fill="#CE8172"/>
<path d="M144.362 187.662L156.546 187.278C156.546 187.278 183.293 192.971 189.848 226.889C196.403 260.807 177.65 291.138 177.65 291.138L139.175 291.48C139.175 291.48 88.1601 193.398 144.362 187.662Z" fill="#525F9B"/>
<path d="M139.175 291.48C139.175 291.48 139.688 313.513 154.622 315.406C169.556 317.3 203.756 305.827 208.031 324.43C212.306 343.033 203.756 372.61 203.756 372.61L214.173 375.457C214.173 375.457 237.571 330.736 223.792 309.528C210.012 288.32 177.693 291.025 177.693 291.025L139.175 291.48Z" fill="#24285B"/>
<path opacity="0.08" d="M134.9 212.115C134.9 212.115 125.125 239.4 142.025 254.217C158.926 269.034 168.63 270.813 160.051 291.48L177.65 291.138C177.65 291.138 186.898 274.343 188.765 262.444C190.632 250.545 134.9 212.115 134.9 212.115Z" fill="black"/>
<path d="M163.599 198.693C154.109 191.363 139.83 195.12 135.855 206.436C134.633 209.957 134.598 213.781 135.755 217.324C140.272 231.8 147.397 251.484 174.002 258.601C200.607 265.718 222.922 271.041 225.06 261.732C227.197 252.424 221.255 240.553 199.41 233.266C183.877 227.985 175.669 208.002 163.599 198.693Z" fill="#525F9B"/>
<path opacity="0.46" d="M163.599 198.693C154.109 191.363 139.83 195.12 135.855 206.436C134.633 209.957 134.598 213.781 135.755 217.324C140.272 231.8 147.397 251.484 174.002 258.601C200.607 265.718 222.922 271.041 225.06 261.732C227.197 252.424 221.255 240.553 199.41 233.266C183.877 227.985 175.669 208.002 163.599 198.693Z" fill="white"/>
<path d="M194.935 231.216C194.935 231.216 202.303 225.779 208.003 231.216C213.703 236.653 202.417 244.468 194.935 231.216Z" fill="#F4A28C"/>
<path opacity="0.08" d="M492.333 213.339C492.333 213.339 471.799 220.755 478.838 245.663C485.878 270.571 471.457 274.372 471.457 274.372L490.053 292.533L513.58 297.857L520.947 273.076L492.333 213.339Z" fill="black"/>
<path d="M230.774 294.64H221.198V390.373H230.774V294.64Z" fill="#989FC3"/>
<path d="M428.92 294.64H419.344V390.373H428.92V294.64Z" fill="#989FC3"/>
<path d="M437.77 279.638H211.537V304.845H437.77V279.638Z" fill="#E5E6EC"/>
<path d="M314.963 154.1C314.78 153.865 314.661 153.587 314.618 153.292C314.576 152.998 314.611 152.697 314.721 152.421C315.106 151.495 315.861 150.286 317.101 150.471C318.34 150.656 318.611 152.691 317.742 154.043C317.583 154.264 317.375 154.443 317.133 154.567C316.892 154.691 316.624 154.755 316.352 154.755C316.081 154.755 315.813 154.691 315.572 154.567C315.33 154.443 315.121 154.264 314.963 154.043V154.1Z" fill="#F4A28C"/>
<path d="M487.417 224.228C489.112 204.756 516.7 202.337 522.03 221.139C524.88 231.102 526.305 245.478 523.027 265.704C515.175 314.467 421.125 282.784 421.125 282.784V271.226C421.125 271.226 476.701 281.673 490.053 267.44C497.905 259.099 486.049 239.984 487.417 224.228Z" fill="#F4A28C"/>
<path d="M371.136 279.638L358.953 234.276L364.866 233.01L376.352 272.706L409.597 275.553V279.638H371.136Z" fill="#FF914D"/>
<path d="M421.126 271.283C421.126 271.283 408.928 265.362 405.094 270.102C401.261 274.841 405.693 281.958 421.126 282.841V271.283Z" fill="#F4A28C"/>
<path d="M425.609 269.544L420.121 268.997L418.581 284.407L424.069 284.954L425.609 269.544Z" fill="#525F9B"/>
<path d="M496.75 373.123L475.632 389.761H522.657L502.664 373.123H496.75Z" fill="#B9BFD7"/>
<path d="M490.053 199.946C489.72 198.41 489.931 196.807 490.651 195.41C491.371 194.013 492.555 192.909 494 192.288C499.258 189.683 511.727 186.595 513.579 196.757C513.579 196.8 501.994 204.287 490.053 199.946Z" fill="#525F9B"/>
<path opacity="0.46" d="M490.053 199.946C489.72 198.41 489.931 196.807 490.651 195.41C491.371 194.013 492.555 192.909 494 192.288C499.258 189.683 511.727 186.595 513.579 196.757C513.579 196.8 501.994 204.287 490.053 199.946Z" fill="white"/>
</svg>
