<svg width="568" height="384" viewBox="0 0 568 384" fill="none" xmlns="http://www.w3.org/2000/svg">
<path d="M505.881 1.18816H113.875V271.641H505.881V1.18816Z" fill="#DDE0EC"/>
<path opacity="0.44" d="M505.881 57.4967H113.875V271.641H505.881V57.4967Z" fill="#EEEFF5"/>
<path opacity="0.08" d="M490.906 214.713L461.043 257.194H489.15V271.641H505.881L504.831 219.827L490.906 214.713Z" fill="black"/>
<path opacity="0.08" d="M118.765 80.4506C118.765 80.4506 126.889 74.9747 130.693 95.0874C134.496 115.2 123.343 132.282 150.056 136.415C176.769 140.547 194.257 129.251 200.419 161.349C206.581 193.446 241.28 207.963 229.421 236.978C217.562 265.993 207.665 271.641 207.665 271.641H113.876C113.876 271.641 113.171 91.8845 118.765 80.4506Z" fill="#1F2C68"/>
<path opacity="0.45" d="M128.247 382.95C198.421 382.95 255.307 379.264 255.307 374.719C255.307 370.173 198.421 366.488 128.247 366.488C58.0741 366.488 1.1875 370.173 1.1875 374.719C1.1875 379.264 58.0741 382.95 128.247 382.95Z" fill="#E6E6E6"/>
<path opacity="0.45" d="M503.368 380.16C538.454 380.16 566.898 377.292 566.898 373.754C566.898 370.216 538.454 367.349 503.368 367.349C468.281 367.349 439.838 370.216 439.838 373.754C439.838 377.292 468.281 380.16 503.368 380.16Z" fill="#E6E6E6"/>
<path d="M145.494 33.544C149.658 33.544 153.033 30.1673 153.033 26.0018C153.033 21.8363 149.658 18.4596 145.494 18.4596C141.33 18.4596 137.955 21.8363 137.955 26.0018C137.955 30.1673 141.33 33.544 145.494 33.544Z" fill="#273782"/>
<path d="M167.922 33.544C172.085 33.544 175.461 30.1673 175.461 26.0018C175.461 21.8363 172.085 18.4596 167.922 18.4596C163.758 18.4596 160.383 21.8363 160.383 26.0018C160.383 30.1673 163.758 33.544 167.922 33.544Z" fill="#525F9B"/>
<path d="M189.058 33.544C193.222 33.544 196.597 30.1673 196.597 26.0018C196.597 21.8363 193.222 18.4596 189.058 18.4596C184.895 18.4596 181.52 21.8363 181.52 26.0018C181.52 30.1673 184.895 33.544 189.058 33.544Z" fill="#FF914D"/>
<path d="M70.6728 360.633C70.6728 360.633 68.5557 366.522 63.2372 366.97C57.9187 367.417 56.5417 372.618 61.3094 373.961C66.0772 375.304 78.4183 369.174 78.4183 369.174L78.0568 361.511L70.6728 360.633Z" fill="#525F9B"/>
<path d="M143.652 360.633C143.652 360.633 145.752 366.522 151.07 366.97C156.389 367.417 157.766 372.618 152.998 373.961C148.23 375.304 135.906 369.174 135.906 369.174L136.251 361.511L143.652 360.633Z" fill="#525F9B"/>
<path d="M220.555 141.202C220.154 140.802 219.837 140.327 219.62 139.804C219.403 139.281 219.291 138.72 219.291 138.154C219.291 137.588 219.403 137.027 219.62 136.504C219.837 135.981 220.154 135.506 220.555 135.106L246.218 109.449C247.038 108.715 248.107 108.324 249.207 108.355C250.306 108.386 251.351 108.836 252.129 109.614C252.906 110.392 253.357 111.438 253.388 112.538C253.418 113.637 253.027 114.707 252.294 115.527L226.631 141.202C225.824 142.006 224.732 142.458 223.593 142.458C222.454 142.458 221.362 142.006 220.555 141.202Z" fill="white"/>
<path d="M246.633 141.615L220.969 115.94C220.559 115.543 220.232 115.067 220.007 114.542C219.782 114.016 219.664 113.451 219.66 112.88C219.656 112.308 219.766 111.741 219.983 111.213C220.2 110.684 220.52 110.204 220.925 109.8C221.329 109.396 221.81 109.077 222.339 108.862C222.868 108.646 223.435 108.538 224.007 108.544C224.578 108.549 225.142 108.669 225.667 108.895C226.192 109.122 226.666 109.45 227.062 109.862L252.708 135.519C253.12 135.916 253.448 136.39 253.675 136.915C253.901 137.44 254.02 138.005 254.026 138.576C254.032 139.148 253.924 139.715 253.708 140.244C253.493 140.774 253.174 141.255 252.77 141.66C252.367 142.064 251.887 142.385 251.358 142.602C250.83 142.819 250.263 142.929 249.692 142.925C249.121 142.92 248.556 142.803 248.031 142.578C247.505 142.353 247.03 142.026 246.633 141.615Z" fill="white"/>
<path d="M362.866 141.202C362.465 140.802 362.147 140.327 361.93 139.804C361.713 139.281 361.602 138.72 361.602 138.154C361.602 137.588 361.713 137.027 361.93 136.504C362.147 135.981 362.465 135.506 362.866 135.106L388.529 109.449C388.919 109.012 389.394 108.66 389.925 108.413C390.456 108.166 391.032 108.031 391.617 108.014C392.202 107.998 392.784 108.101 393.328 108.318C393.872 108.534 394.366 108.86 394.78 109.274C395.194 109.688 395.519 110.182 395.735 110.726C395.952 111.27 396.055 111.853 396.038 112.438C396.022 113.023 395.887 113.599 395.64 114.13C395.394 114.662 395.041 115.137 394.605 115.527L368.959 141.202C368.147 142.003 367.053 142.452 365.912 142.452C364.772 142.452 363.677 142.003 362.866 141.202Z" fill="white"/>
<path d="M388.994 141.615L363.331 115.94C362.92 115.543 362.593 115.067 362.368 114.542C362.144 114.016 362.026 113.451 362.022 112.88C362.017 112.308 362.127 111.741 362.344 111.213C362.561 110.684 362.882 110.204 363.286 109.8C363.691 109.396 364.172 109.077 364.701 108.862C365.23 108.646 365.797 108.538 366.368 108.544C366.939 108.549 367.504 108.669 368.028 108.895C368.553 109.122 369.027 109.45 369.424 109.862L395.07 135.519C395.481 135.916 395.81 136.39 396.036 136.915C396.262 137.44 396.382 138.005 396.387 138.576C396.393 139.148 396.285 139.715 396.069 140.244C395.854 140.774 395.535 141.255 395.132 141.66C394.728 142.064 394.248 142.385 393.72 142.602C393.191 142.819 392.625 142.929 392.053 142.925C391.482 142.92 390.917 142.803 390.392 142.578C389.867 142.353 389.391 142.026 388.994 141.615Z" fill="white"/>
<path d="M273.569 214.713C272.49 214.712 271.451 214.303 270.66 213.569C269.868 212.835 269.383 211.829 269.301 210.752C268.096 196.098 273.655 167.255 303.243 163.054C312.486 161.762 320.214 163.88 326.204 169.39C340.266 182.323 338.872 209.512 338.821 210.718C338.789 211.283 338.646 211.837 338.401 212.347C338.155 212.857 337.812 213.314 337.39 213.691C336.968 214.069 336.476 214.359 335.942 214.546C335.407 214.733 334.842 214.813 334.277 214.782C333.712 214.75 333.158 214.607 332.648 214.362C332.138 214.116 331.682 213.772 331.304 213.35C330.927 212.928 330.637 212.436 330.45 211.901C330.263 211.367 330.183 210.801 330.215 210.236C330.215 209.995 331.437 185.956 320.369 175.796C316.307 172.077 311.109 170.734 304.448 171.664C275.394 175.641 277.752 208.651 277.872 210.081C277.963 211.218 277.599 212.344 276.86 213.213C276.121 214.081 275.067 214.621 273.931 214.713H273.569Z" fill="white"/>
<path d="M150.45 125.342C150.45 125.342 188.317 133.005 185.202 168.392C182.086 203.778 216.51 223.116 195.408 243.539C174.306 263.961 146.182 252.476 146.182 252.476L150.45 125.342Z" fill="#525F9B"/>
<path opacity="0.39" d="M150.45 125.342C150.45 125.342 188.317 133.005 185.202 168.392C182.086 203.778 216.51 223.116 195.408 243.539C174.306 263.961 146.182 252.476 146.182 252.476L150.45 125.342Z" fill="white"/>
<path d="M119.108 90.3175C120.709 94.4421 121.751 98.7624 122.206 103.163C122.224 103.69 122.139 104.214 121.954 104.707C121.769 105.2 121.488 105.651 121.129 106.035C120.769 106.419 120.336 106.728 119.857 106.945C119.377 107.161 118.859 107.281 118.333 107.296C116.644 107.461 114.944 107.132 113.438 106.349C111.932 105.567 110.685 104.365 109.848 102.888L105.596 96.9126C104.872 95.6228 104.566 94.14 104.721 92.6688C104.875 91.1976 105.481 89.8105 106.457 88.6988C109.865 84.3767 117.559 85.7198 119.108 90.3175Z" fill="#F4A28C"/>
<path d="M107.559 98.4108L107.886 124.464L122.223 123.259L116.216 104.782L107.559 98.4108Z" fill="#F4A28C"/>
<path d="M106.405 103.112C106.448 103.272 106.546 103.413 106.68 103.51C106.815 103.607 106.979 103.655 107.145 103.646C108.298 103.629 109.415 103.237 110.325 102.528C111.235 101.82 111.889 100.834 112.188 99.7195C112.545 98.4944 112.54 97.1922 112.173 95.9701C111.807 94.7479 111.095 93.6579 110.123 92.8316C112.573 92.5961 114.988 92.0761 117.318 91.2818C118.104 91.019 118.843 90.6293 119.504 90.1281L119.762 83.8256C119.762 83.8256 121.208 77.1788 117.473 76.9378C113.738 76.6967 113.273 81.0016 109.744 79.0041C106.216 77.0066 105.269 76.1629 102.859 78.5047C100.45 80.8466 104.323 82.1381 99.6924 83.464C95.0624 84.79 95.4927 86.7186 96.0607 88.8366C96.3573 89.5438 96.8615 90.1442 97.5065 90.5586C101.748 93.6739 104.869 98.0771 106.405 103.112Z" fill="#FF914D"/>
<path d="M112.945 99.2545C112.945 99.2545 112.016 96.3272 109.881 97.2054C107.747 98.0836 109.055 102.371 112.171 101.82L112.945 99.2545Z" fill="#F4A28C"/>
<path d="M120.709 95.0874L123.687 97.3948C123.855 97.5256 123.988 97.6966 124.073 97.8922C124.159 98.0878 124.193 98.3016 124.175 98.5141C124.156 98.7266 124.084 98.931 123.966 99.1085C123.847 99.286 123.686 99.431 123.497 99.5301L120.743 100.942L120.709 95.0874Z" fill="#F4A28C"/>
<path opacity="0.31" d="M117.043 107.262C114.99 107.139 113 106.499 111.26 105.402C111.26 105.402 112.155 110.568 118.85 112.686L117.043 107.262Z" fill="#CE8172"/>
<path d="M134.961 121.95C111.312 122.371 87.9683 127.364 66.2156 136.656C62.8806 138.067 59.8702 140.147 57.3702 142.767C54.8702 145.387 52.9338 148.493 51.6805 151.891C50.4271 155.29 49.8836 158.909 50.0833 162.526C50.283 166.143 51.2219 169.681 52.8418 172.921L90.2437 247.568L159.574 243.453C159.574 243.453 172.208 201.505 169.678 154.065C169.167 145.259 165.265 136.993 158.792 131.004C152.318 125.016 143.776 121.771 134.961 121.95Z" fill="#525F9B"/>
<path d="M90.2424 247.568L69.5879 361.7H79.9152L105.888 299.709C115.086 277.763 131.304 259.49 152 247.758L159.607 243.435L90.2424 247.568Z" fill="#273782"/>
<path opacity="0.08" d="M84.5113 146.574C89.4239 150.581 93.22 155.787 95.5327 161.691C97.8454 167.594 98.5964 173.995 97.713 180.273C94.546 201.884 91.2241 218.691 111.19 213.645C131.156 208.6 141.879 162.279 141.879 162.279L165.116 162.847L161.105 214.506L147.628 215.436C144.44 215.654 141.411 216.914 139.01 219.024C136.608 221.134 134.968 223.976 134.34 227.111L130.709 245.14L90.243 247.534L84.5113 238.924L59.2611 211.648L56.1113 168.013L84.5113 146.574Z" fill="black"/>
<path d="M112.041 206.33L157.068 209.484L161.385 147.785L116.358 144.632L112.041 206.33Z" fill="#FFB98D"/>
<path d="M159.575 243.453L148.886 361.7H135.116C135.116 361.7 138.335 272.726 113.48 253.784L159.575 243.453Z" fill="#273782"/>
<path d="M86.0603 153.256C85.9646 149.774 84.7955 146.407 82.7131 143.616C80.6308 140.825 77.7369 138.746 74.4278 137.663C71.1187 136.581 67.5561 136.549 64.2279 137.571C60.8997 138.593 57.9685 140.619 55.8358 143.371C47.8838 153.531 40.5514 170.475 41.1539 198.302C42.4448 257.71 77.2993 273.639 131.087 208.634L120.485 200.455C120.485 200.455 99.3136 218.432 79.9156 218.691C65.4057 218.897 87.0414 181.599 86.0603 153.256Z" fill="#525F9B"/>
<path opacity="0.39" d="M86.0603 153.256C85.9646 149.774 84.7955 146.407 82.7131 143.616C80.6308 140.825 77.7369 138.746 74.4278 137.663C71.1187 136.581 67.5561 136.549 64.2279 137.571C60.8997 138.593 57.9685 140.619 55.8358 143.371C47.8838 153.531 40.5514 170.475 41.1539 198.302C42.4448 257.71 77.2993 273.639 131.087 208.634L120.485 200.455C120.485 200.455 99.3136 218.432 79.9156 218.691C65.4057 218.897 87.0414 181.599 86.0603 153.256Z" fill="white"/>
<path opacity="0.08" d="M159.177 176.933C159.177 176.933 143.686 205.397 112.704 197.355L112.033 207.326L156.957 210.373L159.177 176.933Z" fill="black"/>
<path d="M122.447 201.953C122.447 201.953 128.781 190.76 136.527 193.722C144.272 196.684 131.088 208.634 131.088 208.634L122.447 201.953Z" fill="#F4A28C"/>
<path opacity="0.58" d="M192.226 355.605C192.226 355.605 177.561 351.592 174.377 337.954C174.377 337.954 197.08 333.357 197.734 356.81L192.226 355.605Z" fill="#525F9B"/>
<path opacity="0.73" d="M194.015 354.141C194.015 354.141 183.773 337.954 192.793 322.801C192.793 322.801 210.005 333.787 202.38 354.175L194.015 354.141Z" fill="#525F9B"/>
<path d="M196.648 354.158C196.648 354.158 202.07 337.059 218.422 333.822C218.422 333.822 221.486 344.928 207.836 354.21L196.648 354.158Z" fill="#525F9B"/>
<path d="M186.029 353.779L188.99 374.116L207.717 374.185L210.471 353.883L186.029 353.779Z" fill="#273782"/>
<path opacity="0.08" d="M505.898 84.4283H427.531V111.446H505.898V84.4283Z" fill="#1F2C68"/>
<path d="M510.39 235.067H499.254V347.201H510.39V235.067Z" fill="#E6E6E6"/>
<path d="M505.881 176.02L461.043 244.744H505.881H550.735L505.881 176.02Z" fill="#FF914D"/>
<path d="M521.664 337.593H489.15V374.202H521.664V337.593Z" fill="#273782"/>
<path d="M508.704 201.574H502.336V222.238H508.704V201.574Z" fill="#525F9B"/>
<path d="M508.704 226.267H502.336V232.639H508.704V226.267Z" fill="#525F9B"/>
</svg>
