<svg width="695" height="446" viewBox="0 0 695 446" fill="none" xmlns="http://www.w3.org/2000/svg">
<path d="M52.0067 155.139C51.7219 154.363 51.4371 153.588 51.2946 152.812C48.8024 138.918 37.0534 60.7195 102.136 34.4164C134.179 21.4911 170.494 0.164362 287.985 39.5866C426.623 86.1177 517.269 7.27329 538.631 7.27329C559.993 7.27329 608.413 -21.1624 665.378 34.4164C722.343 89.9953 679.619 157.207 679.619 157.207C679.619 157.207 652.561 220.541 661.106 252.854C669.651 285.168 679.619 311.018 676.771 321.358C673.923 331.699 672.499 401.495 625.503 417.006C578.506 432.516 594.172 429.931 484.514 424.761C374.856 419.591 317.891 433.809 295.105 441.564C272.319 449.319 238.14 446.734 176.903 409.251C115.665 371.767 101.424 383.4 70.0931 366.597C38.7623 349.794 -40.8464 256.861 25.9452 189.52C51.7931 163.54 52.6476 156.755 52.0067 155.139Z" fill="#DCDFEB"/>
<path opacity="0.3" d="M403.261 93.5844C442.551 106.337 477.128 139.928 479.04 186.213C480.107 211.953 474.49 277.988 392.744 295.14C261.529 322.682 143.517 313.369 118.742 247.077C96.6757 188.038 131.64 109.508 197.171 93.3036C243.355 81.8961 326.509 68.6634 403.261 93.5844Z" fill="#E5E6EC"/>
<path d="M185.926 75.5547H415.959V279.977H185.926V75.5547Z" fill="#E5E6EC"/>
<path d="M397.751 99.0716C394.714 99.0716 392.252 96.6149 392.252 93.5843C392.252 90.5538 394.714 88.097 397.751 88.097C400.788 88.097 403.25 90.5538 403.25 93.5843C403.25 96.6149 400.788 99.0716 397.751 99.0716Z" fill="#FF914D"/>
<path d="M382.263 99.0716C379.226 99.0716 376.764 96.6149 376.764 93.5843C376.764 90.5538 379.226 88.097 382.263 88.097C385.3 88.097 387.762 90.5538 387.762 93.5843C387.762 96.6149 385.3 99.0716 382.263 99.0716Z" fill="#525F9B"/>
<path d="M367.417 99.0716C364.38 99.0716 361.918 96.6149 361.918 93.5843C361.918 90.5538 364.38 88.097 367.417 88.097C370.454 88.097 372.916 90.5538 372.916 93.5843C372.916 96.6149 370.454 99.0716 367.417 99.0716Z" fill="#273782"/>
<path d="M257.847 87.243H343.053V99.9258H257.847V87.243Z" fill="white"/>
<path opacity="0.09" d="M302.555 131.527C302.555 131.527 278.296 154.927 290.701 176.842C291.1 177.544 291.51 178.21 291.944 178.877C297.807 187.863 306.964 194.158 316.567 198.533C320.346 200.251 324.24 201.705 328.221 202.886C331.387 203.833 335.409 204.173 337.601 206.911C338.401 207.991 339.056 209.171 339.548 210.421C341.073 213.595 342.082 216.991 342.538 220.483C342.819 223.77 341.858 226.999 341.693 230.299C341.201 240.373 344.941 250.329 350.628 258.683C354.15 263.736 358.207 268.396 362.728 272.583C364.956 274.689 367.242 276.818 369.646 278.737C371.393 280.117 372.307 279.989 374.441 279.907C380.55 279.907 386.659 279.907 392.768 279.907L371.311 223.606L352.797 187.336C352.797 187.336 319.686 186.061 309.344 172.641C299.003 159.221 302.555 131.527 302.555 131.527Z" fill="black"/>
<path d="M155.289 115.089H260.756V259.631H155.289V115.089Z" fill="#525F9B"/>
<path d="M404.844 240.033C404.844 240.033 388.206 196.264 363.959 199.996C339.711 203.728 337.8 276.865 397.961 275.519L404.844 240.033Z" fill="#F4A28C"/>
<path opacity="0.1" d="M348.493 234.838C350.029 247.568 356.326 260.731 368.989 268.523C374.949 272.101 381.619 274.34 388.534 275.086C391.674 275.455 394.836 275.6 397.996 275.519L404.855 240.033C404.855 240.033 388.206 196.264 363.959 199.996C356.924 201.084 351.729 208.069 349.431 217.382C348.086 223.1 347.768 229.01 348.493 234.838Z" fill="black"/>
<path opacity="0.1" d="M348.494 234.839C354.521 241.859 365.249 245.93 367.09 256.776C367.747 260.649 368.403 264.732 368.99 268.476C374.95 272.054 381.62 274.294 388.535 275.04L385.018 252.225L350.745 216.142C350.295 216.529 349.868 216.944 349.467 217.382C348.11 223.098 347.781 229.008 348.494 234.839Z" fill="black"/>
<path d="M344.316 188.066L358.225 183.567L367.534 212.226L353.626 216.725L344.316 188.066Z" fill="#525F9B"/>
<path d="M326.427 110.269C334.62 107.619 343.417 107.453 351.705 109.792C359.993 112.131 367.399 116.87 372.988 123.409C378.576 129.948 382.096 137.995 383.102 146.53C384.108 155.066 382.555 163.707 378.639 171.362C374.723 179.017 368.621 185.341 361.103 189.535C353.585 193.729 344.99 195.603 336.404 194.923C327.818 194.242 319.628 191.036 312.868 185.71C306.108 180.384 301.083 173.177 298.428 165.001C294.868 154.038 295.817 142.113 301.068 131.849C306.319 121.584 315.441 113.822 326.427 110.269ZM349.959 182.692C356.123 180.702 361.557 176.933 365.574 171.861C369.592 166.79 372.012 160.644 372.53 154.2C373.047 147.756 371.638 141.304 368.481 135.659C365.324 130.014 360.561 125.43 354.793 122.486C349.025 119.542 342.513 118.371 336.078 119.12C329.643 119.869 323.576 122.505 318.642 126.695C313.709 130.885 310.131 136.44 308.361 142.659C306.591 148.877 306.709 155.48 308.699 161.632C311.377 169.879 317.228 176.728 324.966 180.671C332.703 184.614 341.694 185.328 349.959 182.657V182.692Z" fill="#273782"/>
<path d="M351.604 208.268L364.23 204.184C367.137 203.243 370.258 204.833 371.201 207.734L383.641 246.032C384.584 248.934 382.991 252.048 380.083 252.988L367.457 257.072C364.55 258.013 361.429 256.423 360.486 253.522L348.046 215.224C347.103 212.323 348.696 209.208 351.604 208.268Z" fill="#273782"/>
<path d="M383.248 226.157C383.248 226.157 361.568 209.929 353.747 212.866C347.299 215.299 349.339 228.556 365.578 237.342C368.874 239.103 371.752 241.55 374.017 244.518C376.283 247.485 377.883 250.903 378.71 254.541C380.07 260.649 383.248 267.669 390.435 272.243C405.431 281.872 413.651 270.208 409.934 254.693C406.217 239.179 404.599 234.604 383.248 226.157Z" fill="#F4A28C"/>
<path d="M393.025 315.802L382.707 270.851L416.779 254.541L445.939 315.802H393.025Z" fill="#525F9B"/>
<path opacity="0.1" d="M393.026 315.802L382.708 270.851L398.97 263.059L414.154 315.802H393.026Z" fill="black"/>
<path opacity="0.43" d="M215.958 147.287H193.141V153.816H215.958V147.287Z" fill="#E5E6EC"/>
<path opacity="0.36" d="M177.934 160.637C182.739 160.637 186.634 156.75 186.634 151.956C186.634 147.161 182.739 143.274 177.934 143.274C173.129 143.274 169.234 147.161 169.234 151.956C169.234 156.75 173.129 160.637 177.934 160.637Z" fill="#E5E6EC"/>
<path d="M217.334 227.07H169.719V240.946H217.334V227.07Z" fill="#525F9B"/>
<path d="M216.572 171.12H169.719V176.888H216.572V171.12Z" fill="#E5E6EC"/>
<path opacity="0.44" d="M242.941 186.213H169.719V191.981H242.941V186.213Z" fill="#E5E6EC"/>
<path opacity="0.44" d="M242.941 198.849H169.719V204.617H242.941V198.849Z" fill="#E5E6EC"/>
<path opacity="0.44" d="M227.195 211.977H169.719V217.745H227.195V211.977Z" fill="#E5E6EC"/>
<path d="M250.531 130.545C248.349 130.545 246.58 128.779 246.58 126.602C246.58 124.424 248.349 122.659 250.531 122.659C252.713 122.659 254.482 124.424 254.482 126.602C254.482 128.779 252.713 130.545 250.531 130.545Z" fill="#FF914D"/>
<path d="M239.392 130.545C237.21 130.545 235.441 128.779 235.441 126.602C235.441 124.424 237.21 122.659 239.392 122.659C241.575 122.659 243.344 124.424 243.344 126.602C243.344 128.779 241.575 130.545 239.392 130.545Z" fill="#525F9B"/>
<path d="M228.723 130.545C226.54 130.545 224.771 128.779 224.771 126.602C224.771 124.424 226.54 122.659 228.723 122.659C230.905 122.659 232.674 124.424 232.674 126.602C232.674 128.779 230.905 130.545 228.723 130.545Z" fill="white"/>
<path d="M339.501 178.994C344.941 179.004 350.262 177.402 354.79 174.393C359.318 171.383 362.85 167.1 364.938 162.087C367.026 157.074 367.576 151.555 366.519 146.23C365.463 140.904 362.847 136.011 359.002 132.17C355.158 128.329 350.258 125.712 344.922 124.651C339.586 123.59 334.055 124.132 329.029 126.209C324.002 128.286 319.706 131.804 316.684 136.319C313.662 140.833 312.05 146.141 312.053 151.57C312.062 158.834 314.956 165.799 320.1 170.939C325.245 176.079 332.221 178.976 339.501 178.994ZM339.501 131.528C343.473 131.528 347.357 132.703 350.66 134.905C353.962 137.107 356.537 140.238 358.057 143.9C359.577 147.562 359.975 151.592 359.2 155.48C358.425 159.367 356.512 162.939 353.703 165.742C350.894 168.544 347.315 170.453 343.419 171.227C339.523 172 335.485 171.603 331.815 170.086C328.145 168.569 325.008 166 322.801 162.704C320.594 159.409 319.416 155.534 319.416 151.57C319.419 146.255 321.536 141.159 325.302 137.401C329.068 133.643 334.175 131.531 339.501 131.528Z" fill="#B9BFD7"/>
<path d="M339.5 178.994C346.219 178.998 352.707 176.542 357.732 172.091L352.82 166.569C349.149 169.822 344.409 171.617 339.5 171.612V178.994Z" fill="#273782"/>
<path d="M312.052 151.57H319.45C319.456 146.256 321.575 141.162 325.34 137.404C329.105 133.647 334.21 131.534 339.535 131.527V124.133C332.247 124.142 325.26 127.036 320.108 132.18C314.955 137.324 312.058 144.297 312.052 151.57Z" fill="#525F9B"/>
<path d="M339.5 178.994V171.612C334.176 171.602 329.073 169.488 325.308 165.731C321.543 161.975 319.424 156.882 319.415 151.57H312.052C312.061 158.834 314.955 165.799 320.099 170.939C325.244 176.079 332.22 178.976 339.5 178.994Z" fill="#FF914D"/>
<path opacity="0.08" d="M320.623 237.927H331.949V256.261H320.623V237.927Z" fill="black"/>
<path opacity="0.08" d="M301.523 218.236H312.85V256.273H301.523V218.236Z" fill="black"/>
<path opacity="0.08" d="M281.381 204.992H292.707V256.273H281.381V204.992Z" fill="black"/>
<path d="M213.563 82.5513C211.346 82.5186 209.144 82.916 207.079 83.7213C205.322 84.3893 203.698 85.3639 202.283 86.5995C201.721 87.0792 201.205 87.594 200.689 88.1088C200.396 88.4355 200.237 88.8605 200.244 89.2989C200.251 89.7374 200.423 90.1572 200.726 90.4745C201.029 90.7919 201.441 90.9836 201.88 91.0113C202.318 91.0391 202.751 90.9009 203.092 90.6243C203.62 90.1563 204.089 89.6415 204.617 89.1852C206.874 87.2764 209.709 86.1818 212.666 86.0778C215.623 85.9738 218.528 86.8665 220.914 88.6119C221.751 89.2333 222.535 89.922 223.259 90.6711C223.571 91.0564 224.013 91.3145 224.502 91.3965C224.837 91.4442 225.179 91.3932 225.485 91.2498C225.791 91.1064 226.049 90.8768 226.226 90.5892C226.428 90.2904 226.526 89.9328 226.502 89.5727C226.479 89.2126 226.336 88.8705 226.097 88.6002C225.1 87.4646 223.974 86.4477 222.743 85.5699C221.259 84.526 219.61 83.7352 217.866 83.2299C216.471 82.8034 215.022 82.575 213.563 82.5513Z" fill="#525F9B"/>
<path d="M212.706 88.8693C211.32 88.9356 209.96 89.2777 208.708 89.8755C207.308 90.5607 206.07 91.5336 205.073 92.7303C204.78 93.0683 204.619 93.5002 204.619 93.9471C204.619 94.3939 204.78 94.8258 205.073 95.1639C205.337 95.4888 205.707 95.7111 206.118 95.7924C206.53 95.8736 206.956 95.8085 207.325 95.6085C207.778 95.3155 208.195 94.9699 208.567 94.5789C209.321 93.8082 210.266 93.2498 211.306 92.9601C212.345 92.6705 213.443 92.6598 214.489 92.9292C215.732 93.2569 216.853 93.9401 217.713 94.8948C218.061 95.2802 218.455 95.622 218.885 95.9127C219.251 96.118 219.675 96.1929 220.089 96.1248C220.502 96.0567 220.88 95.8498 221.16 95.5383C221.449 95.2242 221.622 94.8219 221.652 94.3969C221.681 93.9719 221.566 93.5493 221.324 93.1983C220.933 92.7256 220.51 92.28 220.058 91.8645C219.482 91.3008 218.845 90.8025 218.158 90.3786C217.025 89.6951 215.765 89.2492 214.453 89.0682C213.879 88.9278 213.293 88.9161 212.706 88.8693Z" fill="#525F9B"/>
<path d="M210.208 99.1303C210.197 99.7317 210.364 100.323 210.69 100.83C211.015 101.336 211.483 101.735 212.036 101.976C212.588 102.217 213.2 102.289 213.793 102.183C214.387 102.077 214.936 101.797 215.37 101.38C215.804 100.963 216.105 100.427 216.234 99.839C216.363 99.2514 216.315 98.6387 216.095 98.0786C215.875 97.5184 215.493 97.0359 214.999 96.692C214.504 96.3482 213.918 96.1584 213.315 96.1467C212.914 96.1359 212.515 96.2047 212.141 96.3493C211.766 96.494 211.425 96.7114 211.136 96.9891C210.846 97.2668 210.615 97.5991 210.456 97.9667C210.297 98.3343 210.213 98.7298 210.208 99.1303Z" fill="#525F9B"/>
<g opacity="0.08">
<path d="M262.061 89.0331L263.234 93.5493C263.492 94.5438 263.738 95.4681 263.902 96.3807C264.113 95.4798 264.406 94.5321 264.7 93.5727L266.153 89.0331H267.619L269.003 93.4791C269.331 94.5438 269.589 95.4798 269.788 96.3807C269.958 95.4088 270.185 94.4477 270.468 93.5025L271.735 89.0331H273.341L270.468 97.9251H268.991L267.619 93.678C267.314 92.6952 267.056 91.806 266.833 90.7647C266.616 91.7571 266.346 92.7373 266.024 93.7014L264.582 97.9251H263.117L260.432 89.0331H262.061Z" fill="black"/>
<path d="M275.827 89.0331L277 93.5493C277.258 94.5438 277.492 95.4681 277.656 96.3807H277.715C277.914 95.4798 278.207 94.5321 278.5 93.5727L279.954 89.0331H281.314L282.698 93.4791C283.026 94.5438 283.284 95.4798 283.495 96.3807C283.671 95.41 283.898 94.4492 284.175 93.5025L285.453 89.0331H287.048L284.175 97.9251H282.71L281.35 93.678C281.033 92.7215 280.767 91.749 280.552 90.7647C280.34 91.7584 280.07 92.739 279.743 93.7014L278.313 97.9251H276.835L274.15 89.0331H275.827Z" fill="black"/>
<path d="M289.604 89.0331L290.777 93.5493C291.035 94.5438 291.281 95.4681 291.445 96.3807C291.656 95.4798 291.949 94.5321 292.243 93.5727L293.696 89.0331H295.057L296.44 93.4791C296.768 94.5438 297.026 95.4798 297.226 96.3807H297.284C297.454 95.4088 297.681 94.4477 297.964 93.5025L299.278 89.0331H300.884L298.011 97.9251H296.534L295.174 93.678C294.869 92.6952 294.611 91.806 294.388 90.7647C294.17 91.7571 293.9 92.7373 293.579 93.7014L292.137 97.9251H290.671L287.975 89.0331H289.604Z" fill="black"/>
<path d="M301.398 96.9656C301.383 96.8125 301.399 96.6577 301.447 96.5113C301.495 96.3649 301.573 96.2302 301.676 96.1158C301.78 96.0015 301.906 95.91 302.047 95.8475C302.188 95.7849 302.34 95.7526 302.495 95.7526C302.649 95.7526 302.802 95.7849 302.943 95.8475C303.084 95.91 303.21 96.0015 303.313 96.1158C303.417 96.2302 303.495 96.3649 303.543 96.5113C303.59 96.6577 303.607 96.8125 303.591 96.9656C303.607 97.1188 303.59 97.2736 303.543 97.42C303.495 97.5664 303.417 97.7011 303.313 97.8155C303.21 97.9298 303.084 98.0212 302.943 98.0838C302.802 98.1464 302.649 98.1787 302.495 98.1787C302.34 98.1787 302.188 98.1464 302.047 98.0838C301.906 98.0212 301.78 97.9298 301.676 97.8155C301.573 97.7011 301.495 97.5664 301.447 97.42C301.399 97.2736 301.383 97.1188 301.398 96.9656Z" fill="black"/>
</g>
</svg>
