<svg width="695" height="502" viewBox="0 0 695 502" fill="none" xmlns="http://www.w3.org/2000/svg">
<path d="M642.993 173.089C643.278 172.224 643.563 171.358 643.705 170.493C646.198 154.991 657.947 67.7449 592.864 38.3985C560.821 23.9777 524.506 0.183379 407.015 44.1668C268.377 96.0817 177.731 8.11482 156.369 8.11482C135.007 8.11482 86.5869 -23.6109 29.6218 38.3985C-27.3432 100.408 15.3806 175.396 15.3806 175.396C15.3806 175.396 42.439 246.058 33.8942 282.11C25.3495 318.162 15.3806 347.004 18.2288 358.54C21.0771 370.077 22.5012 447.949 69.4974 465.254C116.494 482.559 100.828 479.675 210.486 473.907C320.144 468.139 377.109 484.001 399.895 492.654C422.681 501.306 456.86 498.422 518.097 456.602C579.335 414.782 593.576 427.76 624.907 409.013C656.238 390.266 735.846 286.581 669.055 211.448C643.207 182.462 642.352 174.891 642.993 173.089Z" fill="#DCDFEB"/>
<path d="M144.35 255.384C144.35 255.384 109.254 289.79 115.941 314.853C122.629 339.915 159.771 349.606 159.771 349.606L167.314 334.595L144.35 255.384Z" fill="#525F9B"/>
<path opacity="0.08" d="M144.35 255.384C144.35 255.384 109.254 289.79 115.941 314.853C122.629 339.915 159.771 349.606 159.771 349.606L167.314 334.595L144.35 255.384Z" fill="black"/>
<path opacity="0.45" d="M300.503 466.792C423.434 466.792 523.09 454.583 523.09 439.524C523.09 424.464 423.434 412.256 300.503 412.256C177.572 412.256 77.916 424.464 77.916 439.524C77.916 454.583 177.572 466.792 300.503 466.792Z" fill="#EEEFF5"/>
<path d="M423.446 150.215H162.58V331.107H423.446V150.215Z" fill="#EEEFF5"/>
<path opacity="0.08" d="M169.762 204.337C176.416 211.387 180.784 220.281 182.295 229.854C184.354 245.132 198.786 253.059 198.786 253.059C198.786 253.059 218.394 245.587 229.094 255.384C235.831 261.688 241.632 268.921 246.321 276.865L284.654 216.006L290.753 218.679L270.797 251.174C270.797 251.174 279.665 256.774 274.208 264.353C268.751 271.932 236.637 340.744 236.637 340.744L201.862 341.359L189.638 301.031L164.225 245.693L155.665 221.473L162.647 205.433L169.762 204.337Z" fill="black"/>
<path d="M162.634 229.667L167.315 243.702L156.2 250.759L152.201 226.432L162.634 229.667Z" fill="#FFDDD3"/>
<path d="M148.363 212.865C148.943 211.53 149.848 210.362 150.996 209.465C152.143 208.569 153.496 207.973 154.932 207.731C156.368 207.489 157.842 207.61 159.219 208.082C160.597 208.553 161.835 209.361 162.821 210.432C167.556 215.485 173.254 223.505 166.834 227.809C156.963 234.492 147.895 222.008 147.895 222.008C147.152 218.98 147.315 215.801 148.363 212.865Z" fill="#FFDDD3"/>
<path opacity="0.61" d="M398.074 257.683H192.059V313.516H398.074V257.683Z" fill="#989FC3"/>
<path d="M155.598 221.473C155.598 221.473 153.071 219.361 151.92 222.355C150.77 225.35 155.251 226.82 156.588 225.296C157.926 223.772 155.598 221.473 155.598 221.473Z" fill="#FFDDD3"/>
<path d="M423.446 329.195H189.638V341.292H423.446V329.195Z" fill="#989FC3"/>
<path d="M160.332 316.358L123.031 335.205L138.721 366.22L176.022 347.373L160.332 316.358Z" fill="#FF914D"/>
<path d="M143.226 257.643C144.901 253.923 147.36 250.609 150.435 247.926C153.51 245.243 157.128 243.255 161.042 242.098C176.142 237.553 203.949 242.526 212.429 256.641C224.025 275.969 207.079 337.362 207.079 337.362L156.294 341.279C156.294 341.279 128.38 290.98 143.226 257.643Z" fill="#525F9B"/>
<path d="M207.039 337.362L200.365 424.553H189.812L180.396 356.811L157.057 341.292L207.039 337.362Z" fill="#273782"/>
<path d="M157.056 341.292L142.504 424.553H153.819L178.255 355.38L157.056 341.292Z" fill="#273782"/>
<path opacity="0.08" d="M165.429 240.761C165.429 240.761 141.675 317.219 210.235 322.244L207.038 337.362L156.293 341.279C156.293 341.279 136.766 308.717 139.173 273.804C139.173 273.804 139.601 254.315 153.324 245.734C156.958 243.232 161.085 241.537 165.429 240.761Z" fill="black"/>
<path d="M288.8 172.391H192.059V238.582H288.8V172.391Z" fill="#989FC3"/>
<path d="M145.153 424.366L138.332 429.392C138.089 429.583 137.911 429.844 137.823 430.139C137.734 430.435 137.739 430.751 137.837 431.044C137.935 431.336 138.122 431.592 138.371 431.775C138.619 431.957 138.919 432.059 139.228 432.065H150.65C151.047 432.065 151.428 431.907 151.709 431.627C151.99 431.346 152.148 430.965 152.148 430.568V424.339L145.153 424.366Z" fill="#525F9B"/>
<path d="M198.746 232.26L218.916 191.719L239.085 222.075L256.486 198.576L279.437 231.431L198.746 232.26Z" fill="#EEEFF5"/>
<path d="M239.085 200.581C243.051 200.581 246.267 197.367 246.267 193.403C246.267 189.439 243.051 186.225 239.085 186.225C235.118 186.225 231.902 189.439 231.902 193.403C231.902 197.367 235.118 200.581 239.085 200.581Z" fill="white"/>
<path d="M199.054 424.366L205.46 429.392C205.698 429.588 205.87 429.853 205.952 430.15C206.035 430.447 206.025 430.763 205.923 431.054C205.821 431.345 205.632 431.598 205.382 431.779C205.132 431.959 204.833 432.059 204.524 432.065H196.405C195.834 432.067 195.268 431.956 194.74 431.738C194.212 431.52 193.732 431.2 193.328 430.797C192.924 430.393 192.604 429.913 192.386 429.385C192.168 428.857 192.057 428.292 192.059 427.721V424.339L199.054 424.366Z" fill="#525F9B"/>
<path d="M288.469 209.403L285.376 207.619L253.129 263.438L256.222 265.222L288.469 209.403Z" fill="#273782"/>
<path d="M186.12 241.697C183.595 245.755 182.256 250.438 182.256 255.217C182.256 259.996 183.595 264.68 186.12 268.738C191.658 278.094 207.761 296.246 218.769 308.263C220.011 309.62 221.558 310.663 223.283 311.306C225.008 311.949 226.861 312.173 228.689 311.961C230.517 311.748 232.269 311.104 233.8 310.082C235.33 309.061 236.597 307.69 237.494 306.084L261.141 264.42L253.116 259.274L231.435 291.033C231.435 291.033 216.575 242.365 186.12 241.697Z" fill="#525F9B"/>
<path opacity="0.08" d="M420.102 205.487C420.102 205.487 410.071 196.785 405.015 210.125C402.567 216.608 400.468 240.507 411.061 243.034C421.654 245.56 383.762 244.491 380.646 262.629C377.529 280.768 373.504 315.962 348.091 298.585L334.275 276.865C334.275 276.865 325.354 273.643 325.354 280.327C325.354 287.01 331.56 336.908 373.504 341.359H396.535L427.378 301.032L426.509 235L420.102 205.487Z" fill="black"/>
<path opacity="0.2" d="M186.12 241.697C183.595 245.755 182.256 250.438 182.256 255.217C182.256 259.996 183.595 264.68 186.12 268.738C191.658 278.094 207.761 296.246 218.769 308.263C220.011 309.62 221.558 310.663 223.283 311.306C225.008 311.949 226.861 312.173 228.689 311.961C230.517 311.748 232.269 311.104 233.8 310.082C235.33 309.061 236.597 307.69 237.494 306.084L261.141 264.42L253.116 259.274L231.435 291.033C231.435 291.033 216.575 242.365 186.12 241.697Z" fill="white"/>
<path d="M258.359 262.629C258.359 262.629 271.734 257.697 266.303 250.105C260.873 242.512 253.129 259.274 253.129 259.274L258.359 262.629Z" fill="#FFDDD3"/>
<path d="M152.936 230.897L145.406 223.117C144.624 222.303 144.018 221.338 143.625 220.28C143.231 219.222 143.059 218.095 143.119 216.969C143.306 212.959 144.149 206.703 147.426 201.958C152.575 194.539 159.463 191.719 161.122 198.148C162.78 204.578 163.168 196.945 167.314 200.354C171.461 203.762 170.605 205.767 167.314 207.585C164.024 209.403 157.203 212.01 156.614 217.423C156.026 222.837 161.122 227.248 152.936 230.897Z" fill="#273782"/>
<path d="M397.579 178.82H303.513V189.072H397.579V178.82Z" fill="#989FC3"/>
<path opacity="0.61" d="M397.579 199.218H303.513V209.47H397.579V199.218Z" fill="#989FC3"/>
<path opacity="0.21" d="M397.579 219.602H303.513V229.854H397.579V219.602Z" fill="#989FC3"/>
<path d="M418.538 242.967C418.538 242.967 396.455 240.026 392.028 258.459C387.601 276.891 386.959 302.448 369.291 307.554C351.622 312.661 341.725 277.212 341.725 277.212C341.725 277.212 337.605 267.267 333.178 265.917C328.751 264.567 325.568 274.365 333.178 280.38C333.178 280.38 339.585 325.653 373.598 324.062C407.61 322.472 418.538 275.782 418.538 242.967Z" fill="#FFDDD3"/>
<path opacity="0.08" d="M418.538 242.967C418.538 242.967 396.455 240.026 392.028 258.459C387.601 276.891 386.959 302.448 369.291 307.554C351.622 312.661 341.725 277.212 341.725 277.212C341.725 277.212 337.605 267.267 333.178 265.917C328.751 264.567 325.568 274.365 333.178 280.38C333.178 280.38 339.585 325.653 373.598 324.062C407.61 322.472 418.538 275.782 418.538 242.967Z" fill="black"/>
<path d="M418.538 210.125C418.538 210.125 403.972 227.261 415.609 233.436C432.675 242.499 434.762 211.167 434.762 211.167L418.538 210.125Z" fill="#273782"/>
<path d="M419.634 211.849C417.943 215.427 416.746 219.218 416.076 223.117C416.024 223.586 416.066 224.06 416.199 224.512C416.333 224.964 416.554 225.385 416.852 225.751C417.149 226.116 417.516 226.419 417.932 226.642C418.348 226.864 418.803 227.002 419.273 227.047C420.771 227.295 422.31 227.106 423.704 226.504C425.099 225.902 426.29 224.912 427.137 223.652L431.284 218.559C432.012 217.452 432.377 216.145 432.329 214.821C432.281 213.496 431.822 212.22 431.016 211.167C428.247 207.051 421.279 207.826 419.634 211.849Z" fill="#FFDDD3"/>
<path d="M429.719 219.695L431.391 242.967H418.497L422.362 226.459L429.719 219.695Z" fill="#FFDDD3"/>
<path d="M417.923 216.006L415.114 217.878C414.954 217.982 414.822 218.125 414.731 218.293C414.64 218.461 414.593 218.649 414.593 218.84C414.593 219.031 414.64 219.219 414.731 219.387C414.822 219.555 414.954 219.698 415.114 219.802L417.495 221.233L417.923 216.006Z" fill="#FFDDD3"/>
<path opacity="0.31" d="M422.256 226.927C423.813 226.656 425.266 225.962 426.455 224.922C426.455 224.922 427.285 229.961 421.105 231.605L422.256 226.927Z" fill="#CE8172"/>
<path d="M425.52 219.401C425.52 219.401 426.523 216.862 428.382 217.771C430.241 218.68 428.81 222.382 426.055 221.781L425.52 219.401Z" fill="#FFDDD3"/>
<path d="M395.198 375.471L384.298 425.021H390.638L411.864 375.471H395.198Z" fill="#FFDDD3"/>
<path d="M430.695 369.456L442.318 425.021H448.698L447.735 369.068L430.695 369.456Z" fill="#FFDDD3"/>
<path d="M384.297 425.021C384.297 425.021 380.766 429.485 376.272 429.258C371.778 429.031 371.096 435.407 378.345 434.752C380.603 434.56 382.841 434.176 385.033 433.602C387.054 433.138 389.162 433.211 391.145 433.816C391.534 433.904 391.941 433.872 392.311 433.724C392.681 433.576 392.998 433.319 393.218 432.987C395.265 430.581 390.222 424.967 390.222 424.967L384.297 425.021Z" fill="#525F9B"/>
<path d="M448.23 425.021C448.23 425.021 451.761 429.485 456.255 429.258C460.749 429.031 461.418 435.407 454.168 434.752C451.91 434.56 449.673 434.176 447.481 433.602C445.46 433.138 443.352 433.211 441.368 433.816C440.98 433.904 440.573 433.872 440.203 433.724C439.833 433.576 439.516 433.319 439.295 432.987C437.249 430.581 442.291 424.967 442.291 424.967L448.23 425.021Z" fill="#525F9B"/>
<path d="M420.477 201.677C419.44 202.072 418.515 202.715 417.783 203.549C417.051 204.383 416.534 205.383 416.277 206.462C415.836 208.441 416.197 210.807 419.367 212.424C425.693 215.645 428.462 213.52 427.927 217.61C427.392 221.7 420.531 235.909 434.615 234.987C448.698 234.065 444.124 225.523 441.583 220.497C439.042 215.472 438.908 211.141 437.998 207.866C437.183 204.832 429.96 197.921 420.477 201.677Z" fill="#273782"/>
<path d="M418.538 242.967H431.431C431.431 242.967 432.314 242.967 433.839 242.967C461.926 243.862 478.311 275.047 463.371 298.933C455.065 312.193 445.141 330.064 444.485 340.744L394.342 338.204C394.342 338.204 398.154 305.71 388.859 287.13C388.818 287.13 371.725 257.897 418.538 242.967Z" fill="#525F9B"/>
<path opacity="0.08" d="M445.997 253.059C445.997 253.059 424.945 261.079 434.722 294.789C439.818 312.38 394.597 310.468 394.597 310.468C394.597 310.468 395.426 323.969 394.958 330.104L417.99 331.32L446.077 333.152L447.415 329.142L455.948 313.102L456.737 292.21L450.049 280.581L445.997 253.059Z" fill="black"/>
<path d="M389.209 281.009L374.233 286.277L382.337 309.287L397.313 304.02L389.209 281.009Z" fill="#FF914D"/>
<path d="M394.904 330.117L446.103 332.804L459.772 384.64L385.769 381.993L394.904 330.117Z" fill="#273782"/>
<path d="M441.275 262.415C441.182 260.131 441.809 257.875 443.069 255.966C444.328 254.058 446.156 252.593 448.294 251.779C450.432 250.965 452.771 250.843 454.982 251.43C457.193 252.017 459.164 253.283 460.615 255.05C467.866 263.779 471.706 274.839 471.422 286.181C470.994 316.51 466.902 349.339 401.444 313.463L404.975 303.852C404.975 303.852 434.026 317.807 446.157 313.275C455.118 310.001 442.238 283.294 441.275 262.415Z" fill="#FFDDD3"/>
<path d="M405.015 303.852C405.015 303.852 394.101 298.666 389.447 303.852C384.792 309.038 392.189 313.676 401.484 313.463L405.015 303.852Z" fill="#FFDDD3"/>
<path opacity="0.58" d="M477.762 419.794C477.762 419.794 466.139 416.68 463.571 405.893C463.571 405.893 481.547 402.177 482.136 420.73L477.762 419.794Z" fill="#525F9B"/>
<path d="M481.279 418.645C481.279 418.645 485.506 405.091 498.453 402.471C498.453 402.471 500.914 411.253 490.134 418.645H481.279Z" fill="#525F9B"/>
<path d="M472.854 418.378L475.274 434.458H490.094L492.221 418.378H472.854Z" fill="#FF914D"/>
<path d="M278.435 433.722L274.208 430.461L290.338 409.649V330.117H295.688V411.467L278.435 433.722Z" fill="#989FC3"/>
<path d="M295.294 409.108L290.763 411.95L304.289 433.482L308.82 430.64L295.294 409.108Z" fill="#989FC3"/>
</svg>
