<svg width="440" height="297" viewBox="0 0 440 297" fill="none" xmlns="http://www.w3.org/2000/svg">
<path opacity="0.27" d="M156.235 118.018C119.324 150.183 111.298 201.494 138.943 236.064C153.47 254.244 176.875 266.444 214.574 258.958C315.12 238.999 399.519 176.978 408.334 125.908C417.148 74.8375 355.103 5.44441 263.11 48.0492C218.081 68.8282 181.67 95.8619 156.235 118.018Z" fill="#EEEFF5"/>
<path d="M220.84 115.745C220.84 115.745 215.29 143.218 197.53 149.045C179.77 154.873 170.058 153.763 170.058 153.763V162.398C170.058 162.398 212.515 172.388 234.438 133.228L220.84 115.745Z" fill="#525F9B"/>
<path opacity="0.46" d="M220.84 115.745C220.84 115.745 215.29 143.218 197.53 149.045C179.77 154.873 170.058 153.763 170.058 153.763V162.398C170.058 162.398 212.515 172.388 234.438 133.228L220.84 115.745Z" fill="white"/>
<path opacity="0.45" d="M165.007 273.343C255.982 273.343 329.731 264.025 329.731 252.53C329.731 241.036 255.982 231.718 165.007 231.718C74.0326 231.718 0.283203 241.036 0.283203 252.53C0.283203 264.025 74.0326 273.343 165.007 273.343Z" fill="#E6E6E6"/>
<rect x="3" y="267" width="300" height="13" fill="white"/>
<path d="M269.236 207.864L277.361 244.772H272.644L256.826 207.864H269.236Z" fill="#F4A28C"/>
<path d="M242.807 203.38L234.149 244.771H229.398L230.12 203.08L242.807 203.38Z" fill="#F4A28C"/>
<path d="M245.926 64.8181C244.671 67.4871 243.782 70.3136 243.284 73.2208C243.247 73.5701 243.28 73.9233 243.38 74.2599C243.48 74.5966 243.646 74.9101 243.868 75.1825C244.09 75.4548 244.363 75.6806 244.673 75.8469C244.982 76.0131 245.321 76.1166 245.671 76.1512C246.788 76.3322 247.934 76.1877 248.971 75.735C250.008 75.2823 250.893 74.5405 251.52 73.5982L254.606 69.802C255.159 68.9729 255.438 67.9908 255.402 66.9948C255.366 65.9988 255.018 65.0392 254.406 64.252C252.353 61.2439 247.158 61.8322 245.926 64.8181Z" fill="#F4A28C"/>
<path d="M268.215 164.174L282.167 227.578L254.695 226.989L242.807 178.738L249.888 167.382L268.215 164.174Z" fill="#24285B"/>
<path d="M253.441 70.668L254.695 88.0062H245.094L247.969 75.7185L253.441 70.668Z" fill="#F4A28C"/>
<path d="M224.891 162.398L219.452 227.577H246.37L249.888 172.91L263.297 162.398H224.891Z" fill="#24285B"/>
<path d="M260.034 87.7064C266.433 87.5009 272.686 89.6405 277.617 93.7226C283.278 98.5289 288.018 106.81 284.343 120.707C277.017 148.457 263.886 164.174 263.886 164.174L224.892 162.398C224.892 162.398 226.324 143.717 221.295 132.539C216.267 121.362 211.461 93.101 245.083 88.0061L260.034 87.7064Z" fill="#525F9B"/>
<path d="M244.661 67.915L242.563 69.3247C242.444 69.4024 242.346 69.5085 242.278 69.6336C242.21 69.7586 242.175 69.8985 242.175 70.0407C242.175 70.1829 242.21 70.3228 242.278 70.4478C242.346 70.5728 242.444 70.679 242.563 70.7566L244.339 71.8666L244.661 67.915Z" fill="#F4A28C"/>
<path opacity="0.08" d="M264.674 99.0728C264.674 99.0728 253.519 105.877 254.684 115.723C255.85 125.568 243.873 157.37 225.047 158.147L224.881 162.376L239.921 163.064L277.351 148.745L284.377 132.095L264.674 99.0728Z" fill="black"/>
<path opacity="0.31" d="M247.88 76.0625C249.04 75.8567 250.122 75.3387 251.01 74.564C251.01 74.564 251.632 78.3158 247.059 79.5812L247.88 76.0625Z" fill="#CE8172"/>
<path d="M250.311 70.4571C250.311 70.4571 251.054 68.559 252.442 69.2361C253.829 69.9132 252.764 72.666 250.71 72.1998L250.311 70.4571Z" fill="#F4A28C"/>
<path d="M277.361 244.771C277.361 244.771 279.98 248.101 283.333 247.935C286.685 247.768 287.173 252.508 281.779 252.02C280.1 251.873 278.437 251.587 276.806 251.165C275.304 250.82 273.738 250.878 272.266 251.332C271.976 251.398 271.673 251.374 271.397 251.263C271.121 251.152 270.886 250.959 270.723 250.71C269.191 248.912 272.943 244.771 272.943 244.771H277.361Z" fill="#525F9B"/>
<path d="M229.72 244.771C229.72 244.771 227.1 248.101 223.748 247.935C220.396 247.768 219.896 252.508 225.302 252.02C226.977 251.874 228.636 251.588 230.263 251.165C231.769 250.82 233.338 250.878 234.814 251.332C235.104 251.397 235.407 251.372 235.683 251.261C235.958 251.15 236.193 250.958 236.357 250.71C237.889 248.912 234.137 244.771 234.137 244.771H229.72Z" fill="#525F9B"/>
<path d="M140.554 231.707C143.214 231.707 145.371 229.55 145.371 226.889C145.371 224.229 143.214 222.072 140.554 222.072C137.893 222.072 135.736 224.229 135.736 226.889C135.736 229.55 137.893 231.707 140.554 231.707Z" fill="white"/>
<path opacity="0.48" d="M140.554 246.747C143.214 246.747 145.371 244.59 145.371 241.93C145.371 239.269 143.214 237.112 140.554 237.112C137.893 237.112 135.736 239.269 135.736 241.93C135.736 244.59 137.893 246.747 140.554 246.747Z" fill="white"/>
<path d="M123.981 226.19H73.0547V241.93H123.981V226.19Z" fill="#ADADAD"/>
<path d="M259.347 125.325L230.183 130.681L237.651 171.343L266.815 165.986L259.347 125.325Z" fill="#FFA873"/>
<path opacity="0.08" d="M236.103 153.951L239.211 170.934L268.459 165.462L267.271 159.501L236.103 153.951Z" fill="black"/>
<path d="M267.161 95.3876C267.871 94.5181 268.747 93.7986 269.738 93.2712C270.729 92.7438 271.815 92.419 272.933 92.3157C274.051 92.2124 275.178 92.3326 276.249 92.6695C277.32 93.0063 278.313 93.5529 279.171 94.2776C286.175 100.138 296.376 111.682 295.821 128.898C295.011 155.017 276.862 166.638 238.301 155.039L240.232 148.124C240.232 148.124 263.92 154.695 276.463 140.076C288.051 126.534 249.867 116.988 267.161 95.3876Z" fill="#525F9B"/>
<path opacity="0.46" d="M267.161 95.3876C267.871 94.5181 268.747 93.7986 269.738 93.2712C270.729 92.7438 271.815 92.419 272.933 92.3157C274.051 92.2124 275.178 92.3326 276.249 92.6695C277.32 93.0063 278.313 93.5529 279.171 94.2776C286.175 100.138 296.376 111.682 295.821 128.898C295.011 155.017 276.862 166.638 238.301 155.039L240.232 148.124C240.232 148.124 263.92 154.695 276.463 140.076C288.051 126.534 249.867 116.988 267.161 95.3876Z" fill="white"/>
<path d="M247.058 64.9735C248.474 65.9298 250.038 66.6462 251.686 67.0936C251.686 67.0936 250.21 72.8989 253.84 76.1956C253.84 76.1956 261.543 70.0462 258.025 64.6849C255.083 60.2449 253.063 56.482 248.234 58.0249C247.543 58.2485 246.926 58.6573 246.451 59.207C245.976 59.7566 245.66 60.426 245.539 61.1424C245.418 61.8588 245.495 62.5947 245.763 63.2702C246.031 63.9457 246.479 64.5348 247.058 64.9735Z" fill="#24285B"/>
<path d="M261.821 68.9364C264.733 68.9364 267.094 66.5758 267.094 63.6639C267.094 60.7519 264.733 58.3914 261.821 58.3914C258.909 58.3914 256.549 60.7519 256.549 63.6639C256.549 66.5758 258.909 68.9364 261.821 68.9364Z" fill="#24285B"/>
<path d="M239.932 149.234C239.932 149.234 230.464 145.249 229.398 149.234C228.333 153.219 238.278 154.995 238.278 154.995L239.932 149.234Z" fill="#F4A28C"/>
<path opacity="0.58" d="M302.98 238.655C302.98 238.655 293.489 236.069 291.425 227.233C291.425 227.233 306.132 224.259 306.554 239.443L302.98 238.655Z" fill="#525F9B"/>
<path d="M305.854 237.723C305.854 237.723 309.362 226.623 319.952 224.547C319.952 224.547 321.938 231.74 313.092 237.756L305.854 237.723Z" fill="#525F9B"/>
<path d="M298.973 237.479L300.893 250.643L313.014 250.688L314.801 237.545L298.973 237.479Z" fill="#24285B"/>
<path d="M170.058 154.994C170.058 154.994 157.57 153.674 159.601 158.669C161.633 163.664 170.058 160.511 170.058 160.511V154.994Z" fill="#F4A28C"/>
<path d="M239.932 89.0383C239.932 89.0383 240.087 85.5418 245.482 84.5983C250.876 83.6548 259.112 80.6134 260.067 87.7507L239.932 89.0383Z" fill="#525F9B"/>
<path opacity="0.46" d="M239.932 89.0383C239.932 89.0383 240.087 85.5418 245.482 84.5983C250.876 83.6548 259.112 80.6134 260.067 87.7507L239.932 89.0383Z" fill="white"/>
<path d="M250.311 69.8688C250.311 69.8688 251.509 67.8264 253.063 68.9475C254.617 70.0686 253.452 72.555 250.843 72.555L250.311 69.8688Z" fill="#F4A28C"/>
</svg>
