<svg width="72" height="72" viewBox="0 0 72 72" fill="none" xmlns="http://www.w3.org/2000/svg">
<g clip-path="url(#clip0_848_5129)">
<rect width="72" height="72" rx="4" fill="#525F9B"/>
<mask id="path-2-outside-1_848_5129" maskUnits="userSpaceOnUse" x="-1" y="-1" width="74" height="74" fill="black">
<rect fill="white" x="-1" y="-1" width="74" height="74"/>
<path d="M0 2C0 0.895432 0.895431 0 2 0H70C71.1046 0 72 0.895431 72 2V70C72 71.1046 71.1046 72 70 72H2C0.895432 72 0 71.1046 0 70V2ZM38.9531 64.4062C39.1078 64.3219 39.4875 63.8859 39.7969 63.4219C40.1577 62.8939 40.7559 62.5781 41.3954 62.5781H54.5766C66.1781 62.5781 68.8641 62.55 69.2297 62.3813C69.8203 62.1422 70.5375 61.3125 70.7344 60.6516C70.8469 60.2719 70.875 54 70.8187 39.0234C70.7906 27.4219 70.7484 17.775 70.7344 17.5781C70.7062 17.3813 70.7484 16.8891 70.8047 16.4953C70.9734 15.3703 70.6922 14.5688 69.8344 13.6969C69.3281 13.1906 68.9203 12.9375 68.4422 12.8109C67.6688 12.5859 66.6 12.6703 65.9672 13.0078C65.5875 13.2047 65.5312 13.2047 65.5312 13.0078C65.5312 12.6281 64.3641 11.5734 63.7734 11.4047C63.0281 11.2078 40.8656 11.1938 39.7969 11.3906C38.6578 11.6016 37.6312 12.1359 36.7734 12.9516C36.3394 13.3619 35.6606 13.3619 35.2266 12.9516C34.3688 12.1359 33.3422 11.6016 32.2031 11.3906C31.7812 11.3062 28.8703 11.25 25.3687 11.25H20.8125C19.9582 11.25 19.2656 10.5574 19.2656 9.70312C19.2656 8.24063 19.2516 8.12812 18.9141 7.80469C18.6047 7.48125 18.4781 7.45312 17.1141 7.45312C15.4406 7.45312 14.5687 7.66406 13.5984 8.31094C12.8531 8.80312 12.0375 9.84375 11.7562 10.6453C11.646 10.9675 11.3494 11.1891 11.0092 11.2034L9.9 11.25C8.01563 11.3344 7.57969 11.4891 6.83437 12.4172C6.4125 12.9375 6.39844 13.0359 6.32812 14.5266C6.28835 15.4175 5.5737 16.1301 4.68261 16.1672L4.57031 16.1719C2.79844 16.2422 2.55938 16.3266 1.94063 16.9734C1.06875 17.8875 1.125 16.3969 1.125 39.4031C1.125 59.5406 1.13906 60.4266 1.39219 60.9609C1.70156 61.6219 2.29219 62.2125 2.85469 62.4234C3.12187 62.5359 7.7625 62.5781 17.4375 62.5781H30.6046C31.2441 62.5781 31.8423 62.8939 32.2031 63.4219C32.5125 63.8719 32.8781 64.3219 33.0187 64.3922C33.3422 64.5891 38.6016 64.5891 38.9531 64.4062Z"/>
<path d="M33.6094 61.4672C33.3 61.0031 32.9625 60.5812 32.8781 60.5109C32.7797 60.4547 26.1141 60.3703 18.0703 60.3281L3.44531 60.2578L3.40313 39.6562C3.38906 28.3219 3.40313 18.9141 3.44531 18.7453C3.51563 18.4359 3.58594 18.4219 4.92188 18.4219H6.32813V37.0406C6.32813 49.8656 6.37031 55.7859 6.48281 56.0672C6.69375 56.6297 7.28438 57.2203 7.94531 57.5297C8.47969 57.7828 9.15469 57.7969 21.2766 57.7969H34.0594L34.4672 58.2047C34.7062 58.4437 34.875 58.7672 34.875 58.9781C34.875 59.5266 35.4516 60.0891 36 60.0891C36.5484 60.0891 37.125 59.5266 37.125 58.9781C37.125 58.7672 37.2937 58.4437 37.5328 58.2047L37.9406 57.7969H50.7234C62.8453 57.7969 63.5203 57.7828 64.0547 57.5297C64.7156 57.2203 65.3063 56.6297 65.5172 56.0672C65.6297 55.8 65.6719 51.0047 65.6719 40.9641V26.2547L67.1203 23.6672L68.5547 21.0797L68.5969 40.5281C68.6109 51.2297 68.5969 60.0609 68.5547 60.1594C68.5125 60.2859 65.475 60.3281 54.1125 60.3422C46.1953 60.3563 39.5719 60.3984 39.375 60.4547C39.1641 60.5109 38.7844 60.9047 38.4188 61.425L37.8141 62.2969H34.1859L33.6094 61.4672Z"/>
<path d="M21.5156 55.5469C14.4422 55.5047 8.63438 55.4625 8.62031 55.4344C8.59219 55.4203 8.57812 54.9 8.57812 54.2812V53.1422L20.2922 53.1844C33.3844 53.2266 32.5266 53.1562 33.6516 54.2531C34.2844 54.8578 34.8188 55.7578 34.4953 55.6594C34.425 55.6312 28.5891 55.5891 21.5156 55.5469Z"/>
<path d="M37.4062 55.575C37.4062 55.3781 37.8984 54.675 38.3484 54.2531C39.4734 53.1562 38.6156 53.2266 51.7219 53.1844L63.4219 53.1422V54.2812C63.4219 55.0547 63.3656 55.4344 63.2531 55.4766C63.0562 55.5469 37.4062 55.6453 37.4062 55.575Z"/>
<path d="M34.2844 51.8766C34.0875 51.7219 33.5391 51.4688 33.0891 51.3C32.2875 50.9906 32.1047 50.9906 24.0469 50.9484C19.5188 50.9203 15.6797 50.8781 15.5109 50.8359C14.6531 50.6391 13.6547 49.2328 13.6406 48.2344C13.6406 47.5453 14.1609 46.575 14.8078 46.0688C15.3141 45.6609 15.4406 45.6328 16.7063 45.5906C18.3656 45.5484 18.6328 45.4922 18.9844 45.1406C19.2375 44.8875 19.2656 44.6625 19.2656 42.75V40.6406H30.6703L31.0078 40.2891C31.5563 39.7547 31.3875 38.8547 30.6984 38.5453C30.4734 38.4469 28.575 38.3906 24.8203 38.3906H19.2656V35.8734L30.6844 35.7891L31.0219 35.3953C31.4297 34.9172 31.4578 34.4672 31.0641 33.975L30.7828 33.6094L25.0594 33.5813L19.3359 33.5391L19.2516 30.9375H30.6703L31.0078 30.5859C31.3875 30.2203 31.4578 29.6016 31.1766 29.2359C30.7688 28.7156 30.5156 28.6875 24.8344 28.6875H19.2656V26.1703L30.6844 26.0859L31.0219 25.6922C31.4297 25.2141 31.4578 24.7641 31.0641 24.2719L30.7828 23.9063L25.0594 23.8781L19.3359 23.8359L19.2516 21.2344H24.2156L24.6234 20.8266C25.1438 20.3063 25.1438 19.9125 24.6234 19.3922L24.2156 18.9844H19.2656V13.4859L32.1328 13.5703L32.9063 14.0063C33.75 14.4703 34.4813 15.3984 34.7344 16.2844C34.9031 16.8891 34.9313 52.1719 34.7766 52.1719C34.7063 52.1719 34.4953 52.0313 34.2844 51.8766ZM30.9516 45.1547C31.4578 44.6484 31.4719 44.1281 31.0078 43.6641C30.6703 43.3125 30.6563 43.3125 27.8719 43.3125C24.75 43.3125 24.5531 43.3688 24.3844 44.2547C24.3141 44.6344 24.3703 44.775 24.7219 45.1406L25.1438 45.5625H30.5438L30.9516 45.1547Z"/>
<path d="M37.125 34.4953C37.125 22.8797 37.1812 16.6219 37.2656 16.2844C37.5187 15.3984 38.25 14.4703 39.0938 14.0062L39.8672 13.5703L51.3281 13.5281C57.6281 13.5141 62.9297 13.5281 63.1125 13.5703C63.4078 13.6406 63.4219 13.7109 63.4219 14.9906V16.3266L61.2984 20.1234L59.175 23.9062H41.2172L40.9359 24.2719C40.5422 24.7641 40.5703 25.2141 40.9781 25.6922L41.3156 26.0859L57.9094 26.1703L57.2062 27.4219L56.5031 28.6875H49.05C42.7922 28.6875 41.5547 28.7156 41.2172 28.8984C40.5422 29.2359 40.4297 30.0375 40.9922 30.5859L41.3297 30.9375H48.2344C52.0172 30.9375 55.125 30.9797 55.125 31.05C55.125 31.1062 54.8156 31.6828 54.45 32.3437L53.775 33.5391L47.5031 33.5812L41.2172 33.6094L40.9359 33.975C40.5422 34.4672 40.5703 34.9172 40.9781 35.3953L41.3156 35.7891L52.4672 35.8734L51.975 36.7594C51.6938 37.2656 51.4688 37.8281 51.4688 38.025V38.3906H46.5469C43.2563 38.3906 41.5266 38.4469 41.3016 38.5453C40.6125 38.8547 40.4437 39.7547 40.9922 40.2891L41.3297 40.6406H50.9062V40.9359C50.9062 41.1047 50.7797 42.0047 50.625 42.9187C50.3578 44.4797 50.3438 44.6344 50.5547 44.9578C50.8922 45.45 51.3844 45.6469 51.8344 45.4359C52.0313 45.3516 53.3812 44.2969 54.8156 43.1016L57.4453 40.9359L60.2578 35.9156C61.8047 33.1594 63.1406 30.7687 63.2391 30.6C63.3797 30.3609 63.4078 32.4562 63.4219 40.5984V50.8922L51.5812 50.9344C39.7828 50.9766 39.7266 50.9906 38.9109 51.2859C38.4609 51.4547 37.9125 51.7219 37.7016 51.8906C37.4766 52.0453 37.2516 52.1719 37.2094 52.1719C37.1672 52.1719 37.125 44.2125 37.125 34.4953ZM48.6422 45.3516C49.3031 45.0141 49.4297 44.1844 48.9094 43.6359C48.6141 43.3125 48.5859 43.3125 44.9719 43.3125H41.3297L40.9922 43.6641C40.5281 44.1281 40.5422 44.6484 41.0484 45.1547L41.4562 45.5625H44.8594C47.5594 45.5625 48.3328 45.5203 48.6422 45.3516ZM50.8359 20.8828C51.0609 20.6719 51.1875 20.3766 51.1875 20.1094C51.1875 19.8422 51.0609 19.5469 50.8359 19.3359L50.4984 18.9844H41.3297L40.9922 19.3359C40.7672 19.5469 40.6406 19.8422 40.6406 20.1094C40.6406 20.3766 40.7672 20.6719 40.9922 20.8828L41.3297 21.2344H50.4984L50.8359 20.8828Z"/>
<path d="M8.57812 32.3719C8.57812 18.1406 8.62031 13.7953 8.74687 13.6687C8.85937 13.5562 9.37969 13.5 10.1531 13.5H11.3906L11.4187 31.4016C11.4609 50.3016 11.4328 49.275 12.0234 50.6672C12.1219 50.8922 11.9812 50.9062 10.35 50.9062H8.57812V32.3719Z"/>
<path d="M13.6406 28.0969C13.6406 17.5641 13.6969 11.9813 13.7812 11.6438C14.0906 10.5469 15.2156 9.71719 16.425 9.70312H17.0156V43.3125H16.2141C15.6797 43.3125 15.1031 43.4391 14.5547 43.6641C14.0906 43.8609 13.6969 44.0156 13.6828 44.0156C13.6547 44.0156 13.6406 36.8438 13.6406 28.0969Z"/>
<path d="M53.2125 41.0625C53.2547 40.8375 53.3391 40.4578 53.3812 40.2188C53.4797 39.7266 53.5078 39.7125 54.1125 40.0781L54.5766 40.3594L53.9297 40.9219C53.5781 41.2313 53.2406 41.4844 53.2125 41.4844C53.1703 41.4844 53.1703 41.3016 53.2125 41.0625Z"/>
<path d="M55.0266 38.0109C54.2391 37.5469 54.1687 37.4625 54.3094 37.2094C54.6047 36.6469 62.3391 22.8516 62.3812 22.7953C62.4656 22.6969 64.3359 23.85 64.3078 23.9906C64.2375 24.3422 56.2219 38.4609 56.0672 38.4891C55.9828 38.5031 55.5047 38.2922 55.0266 38.0109Z"/>
<path d="M64.5891 21.3891C64.1109 21.1078 63.675 20.8406 63.6328 20.7844C63.5344 20.6859 64.1391 19.5469 64.2937 19.5469C64.3641 19.5469 65.9953 20.4469 66.2062 20.6016C66.2344 20.6297 65.5312 21.9516 65.4891 21.9234C65.475 21.9234 65.0672 21.6844 64.5891 21.3891Z"/>
<path d="M66.4172 18.1547C65.9391 17.8734 65.5031 17.6063 65.4609 17.55C65.3203 17.4234 66.5016 15.3562 66.8391 15.1172C67.5422 14.625 68.625 15.1453 68.625 15.975C68.625 16.2562 67.4297 18.7453 67.3172 18.6891C67.3031 18.6891 66.8953 18.45 66.4172 18.1547Z"/>
</mask>
<path d="M0 2C0 0.895432 0.895431 0 2 0H70C71.1046 0 72 0.895431 72 2V70C72 71.1046 71.1046 72 70 72H2C0.895432 72 0 71.1046 0 70V2ZM38.9531 64.4062C39.1078 64.3219 39.4875 63.8859 39.7969 63.4219C40.1577 62.8939 40.7559 62.5781 41.3954 62.5781H54.5766C66.1781 62.5781 68.8641 62.55 69.2297 62.3813C69.8203 62.1422 70.5375 61.3125 70.7344 60.6516C70.8469 60.2719 70.875 54 70.8187 39.0234C70.7906 27.4219 70.7484 17.775 70.7344 17.5781C70.7062 17.3813 70.7484 16.8891 70.8047 16.4953C70.9734 15.3703 70.6922 14.5688 69.8344 13.6969C69.3281 13.1906 68.9203 12.9375 68.4422 12.8109C67.6688 12.5859 66.6 12.6703 65.9672 13.0078C65.5875 13.2047 65.5312 13.2047 65.5312 13.0078C65.5312 12.6281 64.3641 11.5734 63.7734 11.4047C63.0281 11.2078 40.8656 11.1938 39.7969 11.3906C38.6578 11.6016 37.6312 12.1359 36.7734 12.9516C36.3394 13.3619 35.6606 13.3619 35.2266 12.9516C34.3688 12.1359 33.3422 11.6016 32.2031 11.3906C31.7812 11.3062 28.8703 11.25 25.3687 11.25H20.8125C19.9582 11.25 19.2656 10.5574 19.2656 9.70312C19.2656 8.24063 19.2516 8.12812 18.9141 7.80469C18.6047 7.48125 18.4781 7.45312 17.1141 7.45312C15.4406 7.45312 14.5687 7.66406 13.5984 8.31094C12.8531 8.80312 12.0375 9.84375 11.7562 10.6453C11.646 10.9675 11.3494 11.1891 11.0092 11.2034L9.9 11.25C8.01563 11.3344 7.57969 11.4891 6.83437 12.4172C6.4125 12.9375 6.39844 13.0359 6.32812 14.5266C6.28835 15.4175 5.5737 16.1301 4.68261 16.1672L4.57031 16.1719C2.79844 16.2422 2.55938 16.3266 1.94063 16.9734C1.06875 17.8875 1.125 16.3969 1.125 39.4031C1.125 59.5406 1.13906 60.4266 1.39219 60.9609C1.70156 61.6219 2.29219 62.2125 2.85469 62.4234C3.12187 62.5359 7.7625 62.5781 17.4375 62.5781H30.6046C31.2441 62.5781 31.8423 62.8939 32.2031 63.4219C32.5125 63.8719 32.8781 64.3219 33.0187 64.3922C33.3422 64.5891 38.6016 64.5891 38.9531 64.4062Z" fill="#EEEFF5"/>
<path d="M33.6094 61.4672C33.3 61.0031 32.9625 60.5812 32.8781 60.5109C32.7797 60.4547 26.1141 60.3703 18.0703 60.3281L3.44531 60.2578L3.40313 39.6562C3.38906 28.3219 3.40313 18.9141 3.44531 18.7453C3.51563 18.4359 3.58594 18.4219 4.92188 18.4219H6.32813V37.0406C6.32813 49.8656 6.37031 55.7859 6.48281 56.0672C6.69375 56.6297 7.28438 57.2203 7.94531 57.5297C8.47969 57.7828 9.15469 57.7969 21.2766 57.7969H34.0594L34.4672 58.2047C34.7062 58.4437 34.875 58.7672 34.875 58.9781C34.875 59.5266 35.4516 60.0891 36 60.0891C36.5484 60.0891 37.125 59.5266 37.125 58.9781C37.125 58.7672 37.2937 58.4437 37.5328 58.2047L37.9406 57.7969H50.7234C62.8453 57.7969 63.5203 57.7828 64.0547 57.5297C64.7156 57.2203 65.3063 56.6297 65.5172 56.0672C65.6297 55.8 65.6719 51.0047 65.6719 40.9641V26.2547L67.1203 23.6672L68.5547 21.0797L68.5969 40.5281C68.6109 51.2297 68.5969 60.0609 68.5547 60.1594C68.5125 60.2859 65.475 60.3281 54.1125 60.3422C46.1953 60.3563 39.5719 60.3984 39.375 60.4547C39.1641 60.5109 38.7844 60.9047 38.4188 61.425L37.8141 62.2969H34.1859L33.6094 61.4672Z" fill="#EEEFF5"/>
<path d="M21.5156 55.5469C14.4422 55.5047 8.63438 55.4625 8.62031 55.4344C8.59219 55.4203 8.57812 54.9 8.57812 54.2812V53.1422L20.2922 53.1844C33.3844 53.2266 32.5266 53.1562 33.6516 54.2531C34.2844 54.8578 34.8188 55.7578 34.4953 55.6594C34.425 55.6312 28.5891 55.5891 21.5156 55.5469Z" fill="#EEEFF5"/>
<path d="M37.4062 55.575C37.4062 55.3781 37.8984 54.675 38.3484 54.2531C39.4734 53.1562 38.6156 53.2266 51.7219 53.1844L63.4219 53.1422V54.2812C63.4219 55.0547 63.3656 55.4344 63.2531 55.4766C63.0562 55.5469 37.4062 55.6453 37.4062 55.575Z" fill="#EEEFF5"/>
<path d="M34.2844 51.8766C34.0875 51.7219 33.5391 51.4688 33.0891 51.3C32.2875 50.9906 32.1047 50.9906 24.0469 50.9484C19.5188 50.9203 15.6797 50.8781 15.5109 50.8359C14.6531 50.6391 13.6547 49.2328 13.6406 48.2344C13.6406 47.5453 14.1609 46.575 14.8078 46.0688C15.3141 45.6609 15.4406 45.6328 16.7063 45.5906C18.3656 45.5484 18.6328 45.4922 18.9844 45.1406C19.2375 44.8875 19.2656 44.6625 19.2656 42.75V40.6406H30.6703L31.0078 40.2891C31.5563 39.7547 31.3875 38.8547 30.6984 38.5453C30.4734 38.4469 28.575 38.3906 24.8203 38.3906H19.2656V35.8734L30.6844 35.7891L31.0219 35.3953C31.4297 34.9172 31.4578 34.4672 31.0641 33.975L30.7828 33.6094L25.0594 33.5813L19.3359 33.5391L19.2516 30.9375H30.6703L31.0078 30.5859C31.3875 30.2203 31.4578 29.6016 31.1766 29.2359C30.7688 28.7156 30.5156 28.6875 24.8344 28.6875H19.2656V26.1703L30.6844 26.0859L31.0219 25.6922C31.4297 25.2141 31.4578 24.7641 31.0641 24.2719L30.7828 23.9063L25.0594 23.8781L19.3359 23.8359L19.2516 21.2344H24.2156L24.6234 20.8266C25.1438 20.3063 25.1438 19.9125 24.6234 19.3922L24.2156 18.9844H19.2656V13.4859L32.1328 13.5703L32.9063 14.0063C33.75 14.4703 34.4813 15.3984 34.7344 16.2844C34.9031 16.8891 34.9313 52.1719 34.7766 52.1719C34.7063 52.1719 34.4953 52.0313 34.2844 51.8766ZM30.9516 45.1547C31.4578 44.6484 31.4719 44.1281 31.0078 43.6641C30.6703 43.3125 30.6563 43.3125 27.8719 43.3125C24.75 43.3125 24.5531 43.3688 24.3844 44.2547C24.3141 44.6344 24.3703 44.775 24.7219 45.1406L25.1438 45.5625H30.5438L30.9516 45.1547Z" fill="#EEEFF5"/>
<path d="M37.125 34.4953C37.125 22.8797 37.1812 16.6219 37.2656 16.2844C37.5187 15.3984 38.25 14.4703 39.0938 14.0062L39.8672 13.5703L51.3281 13.5281C57.6281 13.5141 62.9297 13.5281 63.1125 13.5703C63.4078 13.6406 63.4219 13.7109 63.4219 14.9906V16.3266L61.2984 20.1234L59.175 23.9062H41.2172L40.9359 24.2719C40.5422 24.7641 40.5703 25.2141 40.9781 25.6922L41.3156 26.0859L57.9094 26.1703L57.2062 27.4219L56.5031 28.6875H49.05C42.7922 28.6875 41.5547 28.7156 41.2172 28.8984C40.5422 29.2359 40.4297 30.0375 40.9922 30.5859L41.3297 30.9375H48.2344C52.0172 30.9375 55.125 30.9797 55.125 31.05C55.125 31.1062 54.8156 31.6828 54.45 32.3437L53.775 33.5391L47.5031 33.5812L41.2172 33.6094L40.9359 33.975C40.5422 34.4672 40.5703 34.9172 40.9781 35.3953L41.3156 35.7891L52.4672 35.8734L51.975 36.7594C51.6938 37.2656 51.4688 37.8281 51.4688 38.025V38.3906H46.5469C43.2563 38.3906 41.5266 38.4469 41.3016 38.5453C40.6125 38.8547 40.4437 39.7547 40.9922 40.2891L41.3297 40.6406H50.9062V40.9359C50.9062 41.1047 50.7797 42.0047 50.625 42.9187C50.3578 44.4797 50.3438 44.6344 50.5547 44.9578C50.8922 45.45 51.3844 45.6469 51.8344 45.4359C52.0313 45.3516 53.3812 44.2969 54.8156 43.1016L57.4453 40.9359L60.2578 35.9156C61.8047 33.1594 63.1406 30.7687 63.2391 30.6C63.3797 30.3609 63.4078 32.4562 63.4219 40.5984V50.8922L51.5812 50.9344C39.7828 50.9766 39.7266 50.9906 38.9109 51.2859C38.4609 51.4547 37.9125 51.7219 37.7016 51.8906C37.4766 52.0453 37.2516 52.1719 37.2094 52.1719C37.1672 52.1719 37.125 44.2125 37.125 34.4953ZM48.6422 45.3516C49.3031 45.0141 49.4297 44.1844 48.9094 43.6359C48.6141 43.3125 48.5859 43.3125 44.9719 43.3125H41.3297L40.9922 43.6641C40.5281 44.1281 40.5422 44.6484 41.0484 45.1547L41.4562 45.5625H44.8594C47.5594 45.5625 48.3328 45.5203 48.6422 45.3516ZM50.8359 20.8828C51.0609 20.6719 51.1875 20.3766 51.1875 20.1094C51.1875 19.8422 51.0609 19.5469 50.8359 19.3359L50.4984 18.9844H41.3297L40.9922 19.3359C40.7672 19.5469 40.6406 19.8422 40.6406 20.1094C40.6406 20.3766 40.7672 20.6719 40.9922 20.8828L41.3297 21.2344H50.4984L50.8359 20.8828Z" fill="#EEEFF5"/>
<path d="M8.57812 32.3719C8.57812 18.1406 8.62031 13.7953 8.74687 13.6687C8.85937 13.5562 9.37969 13.5 10.1531 13.5H11.3906L11.4187 31.4016C11.4609 50.3016 11.4328 49.275 12.0234 50.6672C12.1219 50.8922 11.9812 50.9062 10.35 50.9062H8.57812V32.3719Z" fill="#EEEFF5"/>
<path d="M13.6406 28.0969C13.6406 17.5641 13.6969 11.9813 13.7812 11.6438C14.0906 10.5469 15.2156 9.71719 16.425 9.70312H17.0156V43.3125H16.2141C15.6797 43.3125 15.1031 43.4391 14.5547 43.6641C14.0906 43.8609 13.6969 44.0156 13.6828 44.0156C13.6547 44.0156 13.6406 36.8438 13.6406 28.0969Z" fill="#EEEFF5"/>
<path d="M53.2125 41.0625C53.2547 40.8375 53.3391 40.4578 53.3812 40.2188C53.4797 39.7266 53.5078 39.7125 54.1125 40.0781L54.5766 40.3594L53.9297 40.9219C53.5781 41.2313 53.2406 41.4844 53.2125 41.4844C53.1703 41.4844 53.1703 41.3016 53.2125 41.0625Z" fill="#EEEFF5"/>
<path d="M55.0266 38.0109C54.2391 37.5469 54.1687 37.4625 54.3094 37.2094C54.6047 36.6469 62.3391 22.8516 62.3812 22.7953C62.4656 22.6969 64.3359 23.85 64.3078 23.9906C64.2375 24.3422 56.2219 38.4609 56.0672 38.4891C55.9828 38.5031 55.5047 38.2922 55.0266 38.0109Z" fill="#EEEFF5"/>
<path d="M64.5891 21.3891C64.1109 21.1078 63.675 20.8406 63.6328 20.7844C63.5344 20.6859 64.1391 19.5469 64.2937 19.5469C64.3641 19.5469 65.9953 20.4469 66.2062 20.6016C66.2344 20.6297 65.5312 21.9516 65.4891 21.9234C65.475 21.9234 65.0672 21.6844 64.5891 21.3891Z" fill="#EEEFF5"/>
<path d="M66.4172 18.1547C65.9391 17.8734 65.5031 17.6063 65.4609 17.55C65.3203 17.4234 66.5016 15.3562 66.8391 15.1172C67.5422 14.625 68.625 15.1453 68.625 15.975C68.625 16.2562 67.4297 18.7453 67.3172 18.6891C67.3031 18.6891 66.8953 18.45 66.4172 18.1547Z" fill="#EEEFF5"/>
<path d="M0 2C0 0.895432 0.895431 0 2 0H70C71.1046 0 72 0.895431 72 2V70C72 71.1046 71.1046 72 70 72H2C0.895432 72 0 71.1046 0 70V2ZM38.9531 64.4062C39.1078 64.3219 39.4875 63.8859 39.7969 63.4219C40.1577 62.8939 40.7559 62.5781 41.3954 62.5781H54.5766C66.1781 62.5781 68.8641 62.55 69.2297 62.3813C69.8203 62.1422 70.5375 61.3125 70.7344 60.6516C70.8469 60.2719 70.875 54 70.8187 39.0234C70.7906 27.4219 70.7484 17.775 70.7344 17.5781C70.7062 17.3813 70.7484 16.8891 70.8047 16.4953C70.9734 15.3703 70.6922 14.5688 69.8344 13.6969C69.3281 13.1906 68.9203 12.9375 68.4422 12.8109C67.6688 12.5859 66.6 12.6703 65.9672 13.0078C65.5875 13.2047 65.5312 13.2047 65.5312 13.0078C65.5312 12.6281 64.3641 11.5734 63.7734 11.4047C63.0281 11.2078 40.8656 11.1938 39.7969 11.3906C38.6578 11.6016 37.6312 12.1359 36.7734 12.9516C36.3394 13.3619 35.6606 13.3619 35.2266 12.9516C34.3688 12.1359 33.3422 11.6016 32.2031 11.3906C31.7812 11.3062 28.8703 11.25 25.3687 11.25H20.8125C19.9582 11.25 19.2656 10.5574 19.2656 9.70312C19.2656 8.24063 19.2516 8.12812 18.9141 7.80469C18.6047 7.48125 18.4781 7.45312 17.1141 7.45312C15.4406 7.45312 14.5687 7.66406 13.5984 8.31094C12.8531 8.80312 12.0375 9.84375 11.7562 10.6453C11.646 10.9675 11.3494 11.1891 11.0092 11.2034L9.9 11.25C8.01563 11.3344 7.57969 11.4891 6.83437 12.4172C6.4125 12.9375 6.39844 13.0359 6.32812 14.5266C6.28835 15.4175 5.5737 16.1301 4.68261 16.1672L4.57031 16.1719C2.79844 16.2422 2.55938 16.3266 1.94063 16.9734C1.06875 17.8875 1.125 16.3969 1.125 39.4031C1.125 59.5406 1.13906 60.4266 1.39219 60.9609C1.70156 61.6219 2.29219 62.2125 2.85469 62.4234C3.12187 62.5359 7.7625 62.5781 17.4375 62.5781H30.6046C31.2441 62.5781 31.8423 62.8939 32.2031 63.4219C32.5125 63.8719 32.8781 64.3219 33.0187 64.3922C33.3422 64.5891 38.6016 64.5891 38.9531 64.4062Z" stroke="#EEEFF5" stroke-width="0.2" mask="url(#path-2-outside-1_848_5129)"/>
<path d="M33.6094 61.4672C33.3 61.0031 32.9625 60.5812 32.8781 60.5109C32.7797 60.4547 26.1141 60.3703 18.0703 60.3281L3.44531 60.2578L3.40313 39.6562C3.38906 28.3219 3.40313 18.9141 3.44531 18.7453C3.51563 18.4359 3.58594 18.4219 4.92188 18.4219H6.32813V37.0406C6.32813 49.8656 6.37031 55.7859 6.48281 56.0672C6.69375 56.6297 7.28438 57.2203 7.94531 57.5297C8.47969 57.7828 9.15469 57.7969 21.2766 57.7969H34.0594L34.4672 58.2047C34.7062 58.4437 34.875 58.7672 34.875 58.9781C34.875 59.5266 35.4516 60.0891 36 60.0891C36.5484 60.0891 37.125 59.5266 37.125 58.9781C37.125 58.7672 37.2937 58.4437 37.5328 58.2047L37.9406 57.7969H50.7234C62.8453 57.7969 63.5203 57.7828 64.0547 57.5297C64.7156 57.2203 65.3063 56.6297 65.5172 56.0672C65.6297 55.8 65.6719 51.0047 65.6719 40.9641V26.2547L67.1203 23.6672L68.5547 21.0797L68.5969 40.5281C68.6109 51.2297 68.5969 60.0609 68.5547 60.1594C68.5125 60.2859 65.475 60.3281 54.1125 60.3422C46.1953 60.3563 39.5719 60.3984 39.375 60.4547C39.1641 60.5109 38.7844 60.9047 38.4188 61.425L37.8141 62.2969H34.1859L33.6094 61.4672Z" stroke="#EEEFF5" stroke-width="0.2" mask="url(#path-2-outside-1_848_5129)"/>
<path d="M21.5156 55.5469C14.4422 55.5047 8.63438 55.4625 8.62031 55.4344C8.59219 55.4203 8.57812 54.9 8.57812 54.2812V53.1422L20.2922 53.1844C33.3844 53.2266 32.5266 53.1562 33.6516 54.2531C34.2844 54.8578 34.8188 55.7578 34.4953 55.6594C34.425 55.6312 28.5891 55.5891 21.5156 55.5469Z" stroke="#EEEFF5" stroke-width="0.2" mask="url(#path-2-outside-1_848_5129)"/>
<path d="M37.4062 55.575C37.4062 55.3781 37.8984 54.675 38.3484 54.2531C39.4734 53.1562 38.6156 53.2266 51.7219 53.1844L63.4219 53.1422V54.2812C63.4219 55.0547 63.3656 55.4344 63.2531 55.4766C63.0562 55.5469 37.4062 55.6453 37.4062 55.575Z" stroke="#EEEFF5" stroke-width="0.2" mask="url(#path-2-outside-1_848_5129)"/>
<path d="M34.2844 51.8766C34.0875 51.7219 33.5391 51.4688 33.0891 51.3C32.2875 50.9906 32.1047 50.9906 24.0469 50.9484C19.5188 50.9203 15.6797 50.8781 15.5109 50.8359C14.6531 50.6391 13.6547 49.2328 13.6406 48.2344C13.6406 47.5453 14.1609 46.575 14.8078 46.0688C15.3141 45.6609 15.4406 45.6328 16.7063 45.5906C18.3656 45.5484 18.6328 45.4922 18.9844 45.1406C19.2375 44.8875 19.2656 44.6625 19.2656 42.75V40.6406H30.6703L31.0078 40.2891C31.5563 39.7547 31.3875 38.8547 30.6984 38.5453C30.4734 38.4469 28.575 38.3906 24.8203 38.3906H19.2656V35.8734L30.6844 35.7891L31.0219 35.3953C31.4297 34.9172 31.4578 34.4672 31.0641 33.975L30.7828 33.6094L25.0594 33.5813L19.3359 33.5391L19.2516 30.9375H30.6703L31.0078 30.5859C31.3875 30.2203 31.4578 29.6016 31.1766 29.2359C30.7688 28.7156 30.5156 28.6875 24.8344 28.6875H19.2656V26.1703L30.6844 26.0859L31.0219 25.6922C31.4297 25.2141 31.4578 24.7641 31.0641 24.2719L30.7828 23.9063L25.0594 23.8781L19.3359 23.8359L19.2516 21.2344H24.2156L24.6234 20.8266C25.1438 20.3063 25.1438 19.9125 24.6234 19.3922L24.2156 18.9844H19.2656V13.4859L32.1328 13.5703L32.9063 14.0063C33.75 14.4703 34.4813 15.3984 34.7344 16.2844C34.9031 16.8891 34.9313 52.1719 34.7766 52.1719C34.7063 52.1719 34.4953 52.0313 34.2844 51.8766ZM30.9516 45.1547C31.4578 44.6484 31.4719 44.1281 31.0078 43.6641C30.6703 43.3125 30.6563 43.3125 27.8719 43.3125C24.75 43.3125 24.5531 43.3688 24.3844 44.2547C24.3141 44.6344 24.3703 44.775 24.7219 45.1406L25.1438 45.5625H30.5438L30.9516 45.1547Z" stroke="#EEEFF5" stroke-width="0.2" mask="url(#path-2-outside-1_848_5129)"/>
<path d="M37.125 34.4953C37.125 22.8797 37.1812 16.6219 37.2656 16.2844C37.5187 15.3984 38.25 14.4703 39.0938 14.0062L39.8672 13.5703L51.3281 13.5281C57.6281 13.5141 62.9297 13.5281 63.1125 13.5703C63.4078 13.6406 63.4219 13.7109 63.4219 14.9906V16.3266L61.2984 20.1234L59.175 23.9062H41.2172L40.9359 24.2719C40.5422 24.7641 40.5703 25.2141 40.9781 25.6922L41.3156 26.0859L57.9094 26.1703L57.2062 27.4219L56.5031 28.6875H49.05C42.7922 28.6875 41.5547 28.7156 41.2172 28.8984C40.5422 29.2359 40.4297 30.0375 40.9922 30.5859L41.3297 30.9375H48.2344C52.0172 30.9375 55.125 30.9797 55.125 31.05C55.125 31.1062 54.8156 31.6828 54.45 32.3437L53.775 33.5391L47.5031 33.5812L41.2172 33.6094L40.9359 33.975C40.5422 34.4672 40.5703 34.9172 40.9781 35.3953L41.3156 35.7891L52.4672 35.8734L51.975 36.7594C51.6938 37.2656 51.4688 37.8281 51.4688 38.025V38.3906H46.5469C43.2563 38.3906 41.5266 38.4469 41.3016 38.5453C40.6125 38.8547 40.4437 39.7547 40.9922 40.2891L41.3297 40.6406H50.9062V40.9359C50.9062 41.1047 50.7797 42.0047 50.625 42.9187C50.3578 44.4797 50.3438 44.6344 50.5547 44.9578C50.8922 45.45 51.3844 45.6469 51.8344 45.4359C52.0313 45.3516 53.3812 44.2969 54.8156 43.1016L57.4453 40.9359L60.2578 35.9156C61.8047 33.1594 63.1406 30.7687 63.2391 30.6C63.3797 30.3609 63.4078 32.4562 63.4219 40.5984V50.8922L51.5812 50.9344C39.7828 50.9766 39.7266 50.9906 38.9109 51.2859C38.4609 51.4547 37.9125 51.7219 37.7016 51.8906C37.4766 52.0453 37.2516 52.1719 37.2094 52.1719C37.1672 52.1719 37.125 44.2125 37.125 34.4953ZM48.6422 45.3516C49.3031 45.0141 49.4297 44.1844 48.9094 43.6359C48.6141 43.3125 48.5859 43.3125 44.9719 43.3125H41.3297L40.9922 43.6641C40.5281 44.1281 40.5422 44.6484 41.0484 45.1547L41.4562 45.5625H44.8594C47.5594 45.5625 48.3328 45.5203 48.6422 45.3516ZM50.8359 20.8828C51.0609 20.6719 51.1875 20.3766 51.1875 20.1094C51.1875 19.8422 51.0609 19.5469 50.8359 19.3359L50.4984 18.9844H41.3297L40.9922 19.3359C40.7672 19.5469 40.6406 19.8422 40.6406 20.1094C40.6406 20.3766 40.7672 20.6719 40.9922 20.8828L41.3297 21.2344H50.4984L50.8359 20.8828Z" stroke="#EEEFF5" stroke-width="0.2" mask="url(#path-2-outside-1_848_5129)"/>
<path d="M8.57812 32.3719C8.57812 18.1406 8.62031 13.7953 8.74687 13.6687C8.85937 13.5562 9.37969 13.5 10.1531 13.5H11.3906L11.4187 31.4016C11.4609 50.3016 11.4328 49.275 12.0234 50.6672C12.1219 50.8922 11.9812 50.9062 10.35 50.9062H8.57812V32.3719Z" stroke="#EEEFF5" stroke-width="0.2" mask="url(#path-2-outside-1_848_5129)"/>
<path d="M13.6406 28.0969C13.6406 17.5641 13.6969 11.9813 13.7812 11.6438C14.0906 10.5469 15.2156 9.71719 16.425 9.70312H17.0156V43.3125H16.2141C15.6797 43.3125 15.1031 43.4391 14.5547 43.6641C14.0906 43.8609 13.6969 44.0156 13.6828 44.0156C13.6547 44.0156 13.6406 36.8438 13.6406 28.0969Z" stroke="#EEEFF5" stroke-width="0.2" mask="url(#path-2-outside-1_848_5129)"/>
<path d="M53.2125 41.0625C53.2547 40.8375 53.3391 40.4578 53.3812 40.2188C53.4797 39.7266 53.5078 39.7125 54.1125 40.0781L54.5766 40.3594L53.9297 40.9219C53.5781 41.2313 53.2406 41.4844 53.2125 41.4844C53.1703 41.4844 53.1703 41.3016 53.2125 41.0625Z" stroke="#EEEFF5" stroke-width="0.2" mask="url(#path-2-outside-1_848_5129)"/>
<path d="M55.0266 38.0109C54.2391 37.5469 54.1687 37.4625 54.3094 37.2094C54.6047 36.6469 62.3391 22.8516 62.3812 22.7953C62.4656 22.6969 64.3359 23.85 64.3078 23.9906C64.2375 24.3422 56.2219 38.4609 56.0672 38.4891C55.9828 38.5031 55.5047 38.2922 55.0266 38.0109Z" stroke="#EEEFF5" stroke-width="0.2" mask="url(#path-2-outside-1_848_5129)"/>
<path d="M64.5891 21.3891C64.1109 21.1078 63.675 20.8406 63.6328 20.7844C63.5344 20.6859 64.1391 19.5469 64.2937 19.5469C64.3641 19.5469 65.9953 20.4469 66.2062 20.6016C66.2344 20.6297 65.5312 21.9516 65.4891 21.9234C65.475 21.9234 65.0672 21.6844 64.5891 21.3891Z" stroke="#EEEFF5" stroke-width="0.2" mask="url(#path-2-outside-1_848_5129)"/>
<path d="M66.4172 18.1547C65.9391 17.8734 65.5031 17.6063 65.4609 17.55C65.3203 17.4234 66.5016 15.3562 66.8391 15.1172C67.5422 14.625 68.625 15.1453 68.625 15.975C68.625 16.2562 67.4297 18.7453 67.3172 18.6891C67.3031 18.6891 66.8953 18.45 66.4172 18.1547Z" stroke="#EEEFF5" stroke-width="0.2" mask="url(#path-2-outside-1_848_5129)"/>
</g>
<defs>
<clipPath id="clip0_848_5129">
<rect width="72" height="72" fill="white"/>
</clipPath>
</defs>
</svg>
