<svg width="72" height="72" viewBox="0 0 72 72" fill="none" xmlns="http://www.w3.org/2000/svg">
<path d="M10.0547 68.189C7.17188 67.95 4.275 66.6843 2.15156 64.7718C1.50469 64.1953 1.40625 64.0265 1.40625 63.5765C1.40625 62.2265 2.41875 60.0046 3.68438 58.514C4.85156 57.1781 7.10156 55.7015 8.36719 55.4625C8.63438 55.4203 8.85938 55.3218 8.85938 55.2656C8.85938 55.2093 8.63438 55.0125 8.36719 54.8296C7.73438 54.3937 6.96094 53.3671 6.66563 52.5796C6.525 52.214 6.42656 51.525 6.4125 50.9062C6.4125 50.0062 6.46875 49.725 6.83437 48.9375C8.31094 45.8437 12.0937 45.0421 14.5828 47.3062C16.8187 49.3171 16.6219 53.0718 14.2031 54.8296C13.6547 55.2234 13.6125 55.4062 14.0484 55.4062C14.175 55.4062 14.9344 55.7296 15.7359 56.1234C16.9875 56.7281 17.3813 57.0234 18.3516 57.9937C19.8422 59.4843 20.8969 61.4812 21.1641 63.3234C21.2484 63.914 21.2344 63.9703 20.7141 64.4765C18.7313 66.4453 15.525 67.9359 12.8812 68.1468C12.3328 68.189 11.7281 68.2312 11.5312 68.2593C11.3344 68.2734 10.6734 68.2453 10.0547 68.189ZM14.4141 66.0375C15.5953 65.714 17.3531 64.8421 18.3938 64.0687C19.2797 63.4218 19.2938 63.3937 19.1953 62.8875C19.1531 62.6062 18.8719 61.889 18.5906 61.3125C16.9172 57.8953 12.6984 56.0812 8.95781 57.1921C6.45469 57.9375 4.30312 59.9906 3.50156 62.3953L3.19219 63.3234L3.52969 63.5906C5.13281 64.8562 6.67969 65.6578 8.40937 66.0937C9.77344 66.4453 13.0781 66.4031 14.4141 66.0375ZM12.6703 53.6203C13.1625 53.3531 13.5703 53.0156 13.8516 52.6218C14.2312 52.0734 14.2734 51.8906 14.2734 51.0046C14.2734 49.725 13.95 49.0359 13.0359 48.4171C10.6172 46.7859 7.5375 48.9796 8.33906 51.764C8.8875 53.6343 10.9125 54.5062 12.6703 53.6203Z" fill="#525F9B"/>
<path d="M59.4143 68.1891C56.4612 67.9359 53.3533 66.5156 51.2862 64.4766C50.7658 63.9703 50.7518 63.9141 50.8362 63.3234C51.0752 61.7063 52.1158 59.625 53.3252 58.3031C54.5908 56.9109 55.8424 56.1516 58.2049 55.3219C58.3315 55.2797 58.1908 55.1109 57.8112 54.8438C55.8987 53.4516 55.2799 50.7656 56.3908 48.6844C58.3174 45.0563 63.3518 45.1547 65.1237 48.8531C66.1643 51.0328 65.5174 53.4797 63.4924 54.9422C63.169 55.1672 63.1268 55.2656 63.2815 55.3219C65.4752 56.1094 66.4455 56.6719 67.7112 57.9094C68.2033 58.4016 68.9065 59.2594 69.244 59.8078C69.9612 60.9609 70.594 62.7188 70.594 63.5344C70.594 64.0406 70.5096 64.1672 69.8627 64.7719C67.8377 66.6 64.8143 67.95 62.3112 68.1469C61.8752 68.1891 61.3408 68.2313 61.1018 68.2453C60.8768 68.2734 60.1174 68.2453 59.4143 68.1891ZM63.5205 66.0938C65.2924 65.6719 66.9658 64.8281 68.4002 63.6469L68.794 63.3094L68.4987 62.3953C67.6971 59.9906 65.5455 57.9375 63.0424 57.1922C59.3018 56.0813 55.083 57.8953 53.4096 61.3125C53.1283 61.8891 52.8471 62.6063 52.8049 62.8875C52.7065 63.3938 52.7205 63.4219 53.6065 64.0547C54.5487 64.7578 55.9549 65.5172 56.883 65.8125C58.7815 66.4453 61.594 66.5578 63.5205 66.0938ZM61.6502 53.8453C62.494 53.6063 63.3799 52.7063 63.6471 51.7781C64.4627 48.9797 61.383 46.7859 58.9643 48.4172C58.0502 49.0359 57.7268 49.725 57.7268 51.0047C57.7268 51.8906 57.769 52.0734 58.1487 52.6219C58.4299 53.0156 58.8377 53.3531 59.3299 53.6203C60.1455 54.0281 60.7783 54.0844 61.6502 53.8453Z" fill="#525F9B"/>
<path d="M33.2582 60.1593C29.8832 59.8218 25.0879 58.3453 24.5535 57.4875C24.3426 57.1359 24.6098 56.489 25.0457 56.3343C25.341 56.2359 25.7348 56.3203 26.9863 56.7984C30.0519 57.9515 32.6816 58.4156 36.0004 58.4156C39.3191 58.4156 41.9488 57.9515 45.0145 56.7984C46.7723 56.1375 47.2082 56.1515 47.4473 56.8547C47.7285 57.6281 47.0957 58.064 44.5082 58.9078C40.7816 60.1172 37.0129 60.539 33.2582 60.1593Z" fill="#525F9B"/>
<path d="M34.7064 49.4859C30.5157 49.1343 26.5501 46.6031 24.3282 42.8906C22.8798 40.4437 22.2751 37.7437 22.5282 34.7343C22.9923 28.8562 27.422 23.9625 33.3845 22.6968C34.5376 22.4578 37.2657 22.4156 38.3767 22.6406C44.4235 23.8078 49.0079 28.8 49.472 34.7343C49.9079 40.1343 47.3907 45.0281 42.7501 47.7421C41.372 48.5437 39.0376 49.3312 37.6735 49.4296C37.111 49.4718 36.4782 49.5281 36.2814 49.5562C36.0845 49.5703 35.3814 49.5421 34.7064 49.4859ZM38.2501 47.5171C38.6298 47.4328 38.9532 47.3484 38.9532 47.3203C38.9532 47.2921 38.8548 46.8703 38.7423 46.3781C37.9548 42.9328 38.2501 39.5578 39.6142 36.675C40.3454 35.1 40.8657 34.9031 41.7517 35.8453C42.4126 36.5484 42.722 36.7031 43.5517 36.7031C44.1985 36.7031 44.2689 36.6609 44.7751 36.0562C45.6189 35.0437 46.5048 34.7343 47.461 35.114C47.686 35.1984 47.7001 35.1281 47.6157 34.3687C47.3907 32.5687 46.3079 30.0234 45.1689 28.6875L44.761 28.1953L44.1564 28.6171C43.3267 29.1937 43.0173 29.7281 43.1298 30.4031C43.2001 30.8953 43.1579 30.9937 42.5954 31.5562C41.4001 32.7515 40.2048 32.6953 38.7985 31.4015C37.4485 30.15 37.3642 29.939 37.4345 28.0828C37.4907 26.6062 37.6032 26.1 38.1657 24.7359C38.3064 24.4125 37.8985 24.3281 36.0001 24.3281C34.3126 24.3281 33.1173 24.539 31.7814 25.0593C30.9376 25.3828 29.5314 26.1281 29.5314 26.2546C29.5314 26.2968 29.897 26.7328 30.361 27.2109C31.3876 28.3218 32.1048 29.489 32.6532 30.9656C32.9907 31.9218 33.061 32.2734 33.0048 32.8921C32.8782 34.1578 33.2579 34.7484 34.4814 35.1421C35.311 35.4234 35.4376 35.7046 35.4376 37.4203C35.4376 39.6843 35.0017 40.7812 33.8485 41.3718C33.3564 41.6109 33.1173 41.6531 32.3017 41.5828C30.3189 41.414 28.6032 40.1906 27.4923 38.1234C26.7751 36.8156 26.2548 36.3937 25.3267 36.3937C24.947 36.3937 24.5673 36.4359 24.4829 36.4781C24.2579 36.6328 24.3001 37.4765 24.5954 38.7421C25.636 43.0171 28.9267 46.3078 33.2579 47.4046C34.397 47.6859 37.1392 47.7562 38.2501 47.5171ZM41.8923 46.139C44.761 44.4234 46.7017 41.7656 47.461 38.5031C47.6439 37.7015 47.6439 37.6734 47.2923 37.2656C46.8001 36.675 46.4907 36.7312 45.9704 37.4906C45.422 38.2921 44.8595 38.5453 43.6079 38.5593C42.722 38.5593 42.272 38.4328 41.1751 37.8562C41.0204 37.7859 40.711 38.6296 40.4298 39.8109C40.1204 41.189 40.1204 43.6921 40.4298 45.3937C40.5564 46.0968 40.7392 46.6875 40.8235 46.6875C40.9079 46.6875 41.386 46.4343 41.8923 46.139ZM33.1454 39.6843C33.4407 39.5015 33.6095 38.8125 33.6095 37.7718C33.6095 36.7453 33.6095 36.7312 33.1595 36.5484C32.5126 36.2812 31.8095 35.6203 31.472 34.9593C31.247 34.5234 31.1626 34.0875 31.1485 33.1875C31.1345 32.3437 31.036 31.7531 30.811 31.2046C30.4314 30.2203 29.3485 28.6593 28.561 27.9421L27.9704 27.4078L27.4079 28.0125C26.0298 29.5312 25.0032 31.4859 24.5532 33.4406C24.4267 33.989 24.3282 34.4671 24.3282 34.5093C24.3282 34.5375 24.7501 34.5656 25.2845 34.5656C26.8595 34.5515 28.1814 35.4375 29.0251 37.0828C29.7845 38.5875 30.5298 39.2906 31.7814 39.6703C32.2454 39.8109 32.9345 39.825 33.1454 39.6843ZM41.2032 30.0375C41.2032 29.3062 41.8079 28.2234 42.5954 27.5625C42.9892 27.225 43.3126 26.9156 43.3126 26.8734C43.3126 26.6343 40.5282 25.0312 40.1345 25.0312C40.0923 25.0312 39.8954 25.3968 39.6985 25.8468C39.4314 26.4515 39.3189 26.9718 39.2626 27.9562L39.1923 29.264L39.7407 29.8406C40.6267 30.7546 41.2032 30.839 41.2032 30.0375Z" fill="#525F9B"/>
<path d="M11.4191 44.1984C11.0253 43.875 10.2097 41.414 9.90034 39.6562C9.56284 37.7297 9.68941 34.5937 10.1675 32.7656C10.8847 30.0234 11.5175 29.0109 12.305 29.3625C12.966 29.6719 13.0222 30.0797 12.5441 31.3172C11.7707 33.314 11.4894 35.0719 11.5738 37.4062C11.6441 39.5719 11.8972 40.8234 12.6144 42.6515L12.98 43.6078L12.6988 43.9875C12.3613 44.4515 11.8269 44.5359 11.4191 44.1984Z" fill="#525F9B"/>
<path d="M59.4564 44.1984C59.0486 43.7203 59.0627 43.5937 59.6111 41.9484C60.3283 39.8109 60.5252 38.4047 60.4267 36.1547C60.3423 34.2562 60.0189 32.6953 59.4002 31.1625C58.9783 30.0937 59.0486 29.6578 59.6955 29.3625C60.2861 29.0953 60.7361 29.5593 61.2705 30.9515C61.9314 32.7234 62.1705 34.0312 62.2548 36.2812C62.3392 38.6859 62.1283 40.2047 61.3689 42.4687C60.8767 43.9875 60.5533 44.4375 59.9767 44.4375C59.808 44.4375 59.5689 44.325 59.4564 44.1984Z" fill="#525F9B"/>
<path d="M9.77359 25.9172C6.9189 25.5656 4.06421 24.2719 2.16577 22.4719C1.26577 21.6281 1.20952 21.2766 1.7439 19.7156C2.29234 18.0844 3.03765 16.9031 4.27515 15.6797C5.44234 14.5266 6.9189 13.6125 8.2689 13.2047C8.78921 13.05 9.08452 12.7969 8.73296 12.7969C8.39546 12.7969 7.28452 11.5734 6.86265 10.7297C6.4689 9.91407 6.41265 9.67501 6.41265 8.64844C6.41265 7.62188 6.4689 7.38282 6.86265 6.56719C7.7064 4.85157 9.33765 3.79688 11.1658 3.78282C12.1923 3.76876 12.6564 3.88126 13.5002 4.30313C14.372 4.72501 15.2439 5.62501 15.708 6.58126C16.0455 7.28438 16.1017 7.55157 16.1017 8.64844C16.1017 9.74532 16.0455 10.0125 15.708 10.7156C15.4548 11.2219 15.0048 11.7984 14.4845 12.2766L13.6408 13.0219L14.4564 13.275C16.0877 13.7813 17.8736 15.0188 19.083 16.4672C20.208 17.8453 21.3892 20.7141 21.1783 21.5859C21.0939 21.9234 19.9267 22.9922 18.8439 23.7234C16.3267 25.425 12.7408 26.2969 9.77359 25.9172ZM14.2736 23.7797C15.6236 23.4281 17.3673 22.5984 18.4642 21.7688C19.2236 21.1922 19.2658 21.1359 19.2095 20.6719C19.1673 20.4047 18.8861 19.6734 18.5767 19.0406C17.6627 17.1984 16.0033 15.75 13.9783 15.0188C12.8252 14.6109 10.5189 14.5125 9.29546 14.8219C6.9189 15.4266 4.99234 16.9875 3.96578 19.125C3.12203 20.8828 3.12202 20.9672 3.83921 21.5578C5.2314 22.6969 7.24234 23.625 9.08452 23.9766C10.5189 24.2438 12.783 24.1594 14.2736 23.7797ZM12.4877 11.4469C14.9064 10.4484 14.9767 7.10157 12.6002 5.87813C11.7564 5.44219 10.3361 5.55469 9.53452 6.11719C7.11578 7.83282 8.2689 11.6719 11.208 11.6719C11.6158 11.6719 12.1923 11.5734 12.4877 11.4469Z" fill="#525F9B"/>
<path d="M58.7111 25.875C56.8829 25.5937 54.6329 24.7219 53.1564 23.7234C52.0736 22.9922 50.9064 21.9234 50.822 21.5859C50.6111 20.714 51.7923 17.8453 52.9173 16.4672C54.1267 15.0187 55.9126 13.7812 57.5439 13.275L58.3595 13.0219L57.5158 12.2765C56.9954 11.7984 56.5454 11.2219 56.2923 10.7156C55.9548 10.0125 55.8986 9.7453 55.8986 8.64842C55.8986 7.57967 55.9548 7.25624 56.2642 6.60936C56.8689 5.32967 58.2329 4.19061 59.5548 3.88124C61.0173 3.51561 62.8314 3.97967 63.9423 4.99217C65.672 6.53905 66.1079 8.98592 65.0111 10.9969C64.6595 11.6437 63.5345 12.7969 63.2673 12.7969C62.9158 12.7969 63.2111 13.05 63.7454 13.2047C64.0689 13.3031 64.8423 13.6547 65.4611 13.964C66.8954 14.7094 68.6251 16.3828 69.3986 17.7609C70.0454 18.9422 70.5939 20.5172 70.5939 21.2344C70.5939 21.7125 70.4954 21.8531 69.6939 22.5984C68.147 24.0187 66.1361 25.0594 63.9142 25.6078C62.6064 25.9312 59.9486 26.0578 58.7111 25.875ZM63.7454 23.7797C65.0814 23.4281 66.8954 22.5562 67.922 21.7406C68.8642 21.0094 68.8783 20.8406 68.0345 19.125C66.9939 16.9875 65.0673 15.4265 62.7048 14.8219C61.4814 14.5125 59.1892 14.6109 57.9798 15.0469C56.8408 15.4406 55.5751 16.2703 54.6892 17.1844C53.9298 17.9859 52.9173 19.8422 52.7908 20.6719C52.7204 21.1359 52.7626 21.1922 53.4939 21.7265C55.2236 22.964 56.6861 23.6109 58.6829 23.9906C60.0189 24.2437 62.3251 24.1453 63.7454 23.7797ZM62.4095 11.2078C64.1954 10.0265 64.2236 7.36874 62.4658 6.13124C61.6642 5.55467 60.2439 5.44217 59.4001 5.87811C57.0658 7.07342 57.0658 10.2937 59.4142 11.4187C60.2579 11.8125 61.6501 11.714 62.4095 11.2078Z" fill="#525F9B"/>
<path d="M24.7502 15.4687C24.3987 15.1172 24.3846 14.5969 24.7221 14.3016C25.0877 13.9641 26.3534 13.4437 27.9284 12.9516C33.4268 11.25 39.0237 11.2922 44.4799 13.0922C47.0956 13.95 47.7284 14.3719 47.4471 15.1453C47.2081 15.8484 46.7721 15.8625 45.0143 15.2016C41.9487 14.0484 39.319 13.5844 36.0002 13.5844C32.6956 13.5844 30.0237 14.0625 27.0424 15.1875C25.3268 15.8344 25.1299 15.8484 24.7502 15.4687Z" fill="#525F9B"/>
</svg>
