<svg width="66" height="66" viewBox="0 0 66 66" fill="none" xmlns="http://www.w3.org/2000/svg">
<g clip-path="url(#clip0_325_4523)">
<path d="M34.0957 65.9098C27.702 65.7164 21.1793 63.3059 16.1133 59.2711C9.38437 53.8957 5.10469 45.7875 4.56328 37.4215L4.47305 36.0937H3.73828C2.19141 36.0937 0.966797 35.3977 0.360938 34.1859L0.0644531 33.5801V24.8789V16.1777L0.360938 15.5719C0.747656 14.7855 1.55977 14.1023 2.37188 13.8574C2.7457 13.7414 3.53203 13.6641 4.27969 13.6641C5.46563 13.6641 5.58164 13.6898 5.86523 13.9863C6.22617 14.3344 6.26484 14.7727 5.98125 15.1465C5.81367 15.3656 5.59453 15.4172 4.22813 15.4816C2.68125 15.5461 2.66836 15.5461 2.30742 15.9586L1.93359 16.3711V24.8789V33.3867L2.30742 33.7992L2.68125 34.2246L7.50234 34.2891C11.2793 34.3406 12.375 34.3922 12.6328 34.534C12.8133 34.6371 14.2699 35.6555 15.8941 36.8156C17.5055 37.9758 18.8719 38.9297 18.9363 38.9297C19.0008 38.9297 19.0781 38.2207 19.1039 37.3441C19.1426 35.823 19.1555 35.7328 19.5035 35.2816C20.0965 34.4953 20.6637 34.2891 22.1719 34.2891C23.7574 34.2891 24.2859 34.1086 24.5566 33.4641C24.8273 32.8066 24.8402 16.977 24.5695 16.3195C24.2086 15.4559 24.2988 15.4687 16.4484 15.4687C9.57773 15.4687 9.41016 15.4687 9.15234 15.2109C8.8043 14.8629 8.83008 14.3602 9.2168 13.9863C9.51328 13.677 9.57773 13.6641 11.4211 13.6641H13.3031L14.4117 12.6199C19.568 7.78594 26.6836 4.8082 33.7477 4.55039L35.707 4.47305V3.73828C35.707 2.19141 36.3902 0.966797 37.602 0.373828L38.2207 0.0644531H48.9844H59.748L60.457 0.451172C61.3207 0.928125 61.9395 1.71445 62.1199 2.57812C62.2875 3.32578 62.3004 19.3102 62.1457 19.8516C62.0684 20.0965 62.1715 20.4316 62.584 21.2695C64.1953 24.518 65.2266 27.8695 65.6906 31.3887C65.9484 33.2836 65.9355 37.1508 65.6777 39.1101C65.0848 43.6219 63.6281 47.6824 61.1789 51.6012C60.1863 53.2125 59.6191 53.5476 58.9746 52.9031C58.6266 52.5551 58.7684 52.0781 59.6449 50.6859C61.3594 47.9402 62.7773 44.5242 63.4219 41.5723C64.35 37.241 64.2855 32.2652 63.2414 28.1402C62.5453 25.3945 61.1016 21.8367 60.7277 21.9656C60.6117 21.9914 60.2895 22.1203 60.0059 22.2234C59.7223 22.3266 59.1035 22.4168 58.6266 22.4297C58.1367 22.4297 57.75 22.4555 57.75 22.4812C57.75 22.507 57.982 23.0098 58.2527 23.6027C58.8973 24.9949 59.1938 26.3098 59.1938 27.8437C59.2066 30.0867 58.6137 32.0977 57.4148 33.9152L56.7188 34.9852V43.6477V52.3102L56.3578 52.9934C55.9582 53.7668 55.159 54.45 54.4242 54.6562C54.1406 54.7336 52.1684 54.7851 49.4871 54.7851C44.1891 54.7851 44.2793 54.7594 45.0527 55.8293C45.3234 56.216 46.3031 57.4664 47.2184 58.6137L48.907 60.7148L49.4871 60.3668C51.6012 59.1551 53.4703 57.75 55.2621 56.0484C56.5512 54.8238 56.8605 54.6949 57.3375 55.2105C57.8789 55.7777 57.7371 56.1644 56.5641 57.2859C54.102 59.6191 51.7043 61.2949 48.6621 62.7902C44.073 65.0332 39.3035 66.0644 34.0957 65.9098ZM40.2188 63.7055C41.0309 63.5508 42.3328 63.2543 43.1191 63.0351C44.666 62.5969 47.1797 61.6559 47.1797 61.5012C47.1797 61.4625 46.7027 60.8437 46.1355 60.1348C45.5555 59.4258 44.6531 58.2656 44.1246 57.5566C43.5832 56.8476 43.1449 56.2547 43.1191 56.2289C43.1063 56.2031 41.9977 56.9766 40.6699 57.9434C38.3754 59.5934 38.2078 59.6836 37.6406 59.6836C37.2152 59.6836 36.9316 59.6062 36.6867 59.4129C36.068 58.923 35.9648 58.5492 35.9648 56.7961C35.9648 54.7336 36.0035 54.7851 34.1859 54.7851C33.0773 54.7851 32.6906 54.7336 32.2266 54.5144C31.4531 54.1664 30.9633 53.6894 30.6023 52.916L30.293 52.2715V45.2203C30.293 41.3273 30.2543 38.1562 30.2156 38.1562C30.0223 38.1562 29.3262 38.7621 28.875 39.3293C28.527 39.7676 28.2434 40.3863 27.9082 41.3789C27.5086 42.5777 27.3797 42.8355 27.0703 42.9902C26.6063 43.2351 26.1035 43.0676 25.8844 42.6035C25.6266 42.0234 26.5289 39.4582 27.4184 38.2594C27.9082 37.5762 29.1457 36.5836 29.8676 36.2871C30.2414 36.1324 30.293 36.0422 30.293 35.6297C30.293 34.534 30.9117 33.4769 31.943 32.8453C32.4199 32.5488 32.4199 32.5488 38.4141 32.4844L44.4082 32.4199L44.4984 31.7367C44.6402 30.8086 45.0914 29.9578 46.0195 28.9137C47.2313 27.573 47.8371 26.3355 48.1336 24.634C48.2367 24.0539 48.2109 24.0797 45.8133 25.7941C44.0473 27.0703 43.7508 27.2508 43.1836 27.3023C42.5777 27.3539 42.5133 27.341 42.0234 26.8383L41.5078 26.3227V24.6598C41.5078 22.4941 41.4691 22.4297 40.1156 22.4297H39.123L38.9039 23.4867C38.5559 25.1367 37.9242 26.2969 36.6867 27.5215C34.882 29.3133 33.2191 29.9836 30.7441 29.8676C29.5582 29.8289 29.1457 29.7387 28.2047 29.3906C27.573 29.1715 27.0316 28.9266 26.993 28.8621C26.9543 28.7977 26.8512 28.7461 26.748 28.7461C26.6063 28.7461 26.5676 29.2359 26.5289 31.2211C26.4902 34.0312 26.4 34.3277 25.4074 35.2301C24.7371 35.8359 23.8477 36.0937 22.3652 36.0937C21.6305 36.0937 21.1406 36.1453 21.0375 36.2484C20.9344 36.3516 20.8828 36.893 20.8828 37.8211C20.8828 38.6074 20.8184 39.4582 20.7539 39.716C20.4832 40.6957 19.323 41.2629 18.4852 40.8246C18.2789 40.7215 16.6934 39.6129 14.966 38.3625L11.8207 36.0937H9.075H6.31641V36.6609C6.31641 39.1875 7.48945 44.1891 8.67539 46.7027L9.08789 47.5793L9.84844 46.9992C13.0969 44.5629 15.4301 44.4211 17.2992 46.5352C18.0469 47.3988 18.7687 47.7726 19.9676 47.9273C21.3598 48.1207 22.7004 47.5922 23.7574 46.4191C24.5438 45.5426 24.9047 45.375 25.3687 45.723C26.0777 46.2387 25.8199 47.0508 24.5824 48.1465C22.984 49.6031 20.9473 50.1059 18.9105 49.5644C17.7633 49.268 17.1574 48.907 16.1004 47.8758C15.3785 47.1797 15.0176 46.9219 14.7469 46.909C13.9992 46.8703 13.4578 46.9477 12.9164 47.1797C12.4008 47.4117 10.8668 48.4301 10.2094 48.9844L9.9 49.2422L10.5445 50.2992C13.3031 54.8625 17.6086 58.7812 22.5199 61.1789C25.2012 62.4937 28.5656 63.4992 31.7109 63.9375C32.175 64.0019 33.941 64.0277 35.6426 64.0148C38.1047 63.9762 39.0457 63.9117 40.2188 63.7055ZM41.018 55.4684C42.6293 54.3082 44.1504 53.2769 44.3953 53.1738C44.7691 53.0191 45.6973 52.9805 49.4484 52.9805H54.0375L54.4758 52.5422L54.9141 52.1039V43.7121C54.9141 34.5855 54.927 34.766 54.2051 34.4437C53.9602 34.3277 51.2531 34.2891 43.4027 34.2891C33.6832 34.2891 32.9098 34.3148 32.6648 34.5211C32.5102 34.6371 32.3168 34.8691 32.2395 35.0238C32.1363 35.2172 32.0977 37.7695 32.0977 43.6992V52.1039L32.5359 52.5422L32.9742 52.9805H34.3406C36.2613 52.9805 36.9961 53.3285 37.5246 54.4629C37.7051 54.8625 37.7695 55.2879 37.7695 56.3707C37.7695 57.4535 37.8082 57.75 37.9371 57.6726C38.0145 57.6211 39.4066 56.6285 41.018 55.4684ZM56.3191 32.2266C56.6156 31.6723 56.9766 30.757 57.1184 30.2027C57.4406 28.9523 57.4664 26.9543 57.1699 25.8457C56.9379 24.9176 56.1902 23.3578 55.7391 22.8164L55.4039 22.4297H52.916C50.9309 22.4297 50.4023 22.4684 50.2863 22.6102C50.1961 22.7133 50.0672 23.3707 50.0027 24.0668C49.7449 26.5547 49.1262 28.05 47.5535 29.8805C46.6125 30.9891 46.2773 31.5949 46.2773 32.1621V32.4844H50.2734C54.0762 32.4844 54.2953 32.4973 54.8496 32.7551C55.1719 32.9098 55.4684 33.0773 55.507 33.1418C55.6488 33.3867 55.8035 33.2191 56.3191 32.2266ZM32.6906 27.9211C34.7531 27.3797 36.4418 25.691 37.0219 23.6027C37.3699 22.3266 37.3441 22.0945 36.6867 21.3984C35.8359 20.4832 35.6813 19.8258 35.7328 17.2605C35.7715 15.2625 35.7844 15.1852 36.0809 14.9402C36.4676 14.618 36.9316 14.6309 37.2539 14.9531C37.4859 15.1852 37.5117 15.3785 37.5117 17.2734C37.5117 20.393 37.6793 20.625 39.9867 20.625C41.5336 20.625 42.1781 20.857 42.7066 21.5402C43.1578 22.1461 43.3125 22.8164 43.3125 24.1957V25.3945L46.2 23.2934C47.7984 22.1461 49.3453 21.0762 49.6418 20.9215C50.1832 20.625 50.2734 20.625 54.7852 20.625C59.0906 20.625 59.3871 20.6121 59.7738 20.3672C60.0445 20.1996 60.225 19.9676 60.3152 19.6324C60.4055 19.3102 60.457 16.3711 60.457 11.1762C60.457 2.6168 60.457 2.60391 59.7996 2.13984C59.5289 1.95937 58.4977 1.93359 48.9586 1.93359H38.4141L38.0016 2.30742L37.5762 2.68125L37.5117 7.1543C37.4473 11.3824 37.4344 11.6273 37.2023 11.8078C36.8543 12.0527 36.4418 12.0398 36.0809 11.7434C35.7715 11.4984 35.7715 11.4469 35.7328 8.88164L35.6941 6.27773L33.7992 6.35508C31.1824 6.4582 27.6891 7.11562 25.7426 7.85039L25.3945 7.99219L25.9102 8.75273C27.7535 11.4469 28.1531 14.8887 26.8641 17.1059L26.5547 17.6473V22.0687V26.4902L27.3023 26.9543C27.9598 27.3797 29.1199 27.8566 29.8418 28.0113C30.4219 28.1402 32.0719 28.0887 32.6906 27.9211ZM25.7812 13.8059C25.7812 12.5426 25.2914 11.0859 24.4664 9.86133C24.1055 9.31992 23.7316 8.84297 23.6285 8.8043C23.1387 8.61094 19.0523 11.0473 16.9254 12.7746L15.9199 13.5996L19.9805 13.6641C23.7445 13.7285 24.0797 13.7414 24.6211 13.9992C24.9434 14.141 25.2785 14.3602 25.3816 14.4762C25.691 14.8629 25.7812 14.7082 25.7812 13.8059Z" fill="#525F9B"/>
<path d="M39.5741 49.4871C38.2593 49.384 37.1636 49.023 36.2483 48.3785C35.1655 47.6437 34.9464 47.1281 35.4233 46.5223C35.7843 46.084 36.3514 46.1484 36.9831 46.6898C37.7436 47.3344 38.9296 47.6953 40.296 47.6953C41.3788 47.6953 41.4175 47.6824 41.8429 47.257C42.2038 46.8961 42.2811 46.7156 42.2811 46.2902C42.2811 45.9938 42.1909 45.5684 42.0749 45.3621C41.7526 44.7305 41.237 44.6016 39.1874 44.6016C37.4343 44.6016 37.3569 44.5887 37.0604 44.2793C36.88 44.1117 36.7382 43.8539 36.7382 43.6992C36.7382 43.5445 36.88 43.2867 37.0604 43.1191C37.3569 42.8098 37.4343 42.7969 39.1874 42.7969C41.237 42.7969 41.7526 42.668 42.0749 42.0363C42.41 41.4047 42.3456 40.6828 41.9073 40.193L41.5335 39.7676L39.587 39.7031C37.821 39.6387 37.6276 39.6129 37.3698 39.3551C37.0089 39.007 37.0218 38.4656 37.3698 38.1176C37.6276 37.8469 37.7823 37.834 39.5483 37.834C41.3659 37.834 41.469 37.8469 42.178 38.1949C43.5057 38.8523 44.1503 39.948 44.0471 41.366C44.0085 41.8301 43.944 42.3457 43.8925 42.5133L43.8022 42.7969H45.7487H47.6952V41.25V39.7031H47.1151C45.955 39.7031 45.3233 39.1746 45.5682 38.4141C45.7358 37.8984 46.3546 37.7695 48.662 37.7695C51.0468 37.7695 51.6268 37.8984 51.7686 38.4656C51.962 39.2391 51.3561 39.7031 50.1444 39.7031H49.4999V44.3824C49.4999 48.7652 49.487 49.0875 49.2679 49.2809C48.9327 49.5902 48.3011 49.5516 48.0046 49.2293C47.7854 48.9844 47.7596 48.7008 47.721 46.7801L47.6823 44.6016H45.7358H43.8022L43.8925 44.898C43.944 45.0527 44.0085 45.5684 44.0471 46.0324C44.1503 47.4246 43.4929 48.5719 42.2425 49.1648C41.4175 49.5516 40.9663 49.6031 39.5741 49.4871Z" fill="#525F9B"/>
<path d="M42.7324 18.2402C42.0492 17.5699 42.3457 17.1703 44.2535 16.2422C45.723 15.5332 47.5148 14.3473 47.6437 13.9863C47.6824 13.8961 47.4504 13.4578 47.141 13.0066C46.8187 12.5555 46.3934 11.8336 46.1742 11.4082C45.7875 10.609 45.1172 8.73985 45.1172 8.43047C45.1172 8.28868 44.8465 8.25 43.8926 8.25C42.8355 8.25 42.6293 8.21133 42.4101 7.99219C42.0363 7.61836 42.075 7.03829 42.4875 6.71602C42.8098 6.45821 42.9902 6.44532 45.4523 6.44532H48.082V5.43985C48.082 4.5504 48.1207 4.39571 48.3785 4.15079C48.7652 3.77696 49.1777 3.78985 49.5644 4.18946C49.848 4.46016 49.8867 4.61485 49.8867 5.47852V6.44532H52.5164C54.9785 6.44532 55.159 6.45821 55.4812 6.71602C55.8937 7.03829 55.9324 7.61836 55.5586 7.99219C55.3394 8.21133 55.1332 8.25 54.1148 8.25H52.916L52.684 9.06211C52.2844 10.4027 51.7172 11.6531 50.9695 12.7746C50.5828 13.3676 50.2863 13.909 50.325 13.9992C50.4539 14.3473 52.2586 15.5461 53.7152 16.2422C55.2105 16.977 55.5586 17.2477 55.5586 17.7246C55.5586 18.0211 54.9785 18.5625 54.6691 18.5625C54.5144 18.5625 53.7539 18.2531 52.9547 17.8664C51.6785 17.2606 50.5699 16.5645 49.3453 15.5719L48.9844 15.2883L48.6363 15.5719C47.3988 16.5645 46.2902 17.2606 45.0141 17.8664C44.2148 18.2531 43.4543 18.5625 43.2996 18.5625C43.1578 18.5625 42.9 18.4207 42.7324 18.2402ZM49.6676 11.5113C50.1445 10.7121 51.0469 8.62383 51.0469 8.31446C51.0469 8.27579 50.1187 8.25 48.9844 8.25C47.85 8.25 46.9219 8.27579 46.9219 8.31446C46.9219 8.46915 47.5019 10.0418 47.7211 10.5059C48.0434 11.1633 48.8941 12.5039 48.9973 12.5039C49.0359 12.5039 49.3324 12.0527 49.6676 11.5113Z" fill="#525F9B"/>
<path d="M8.12109 31.3242C7.9793 31.1824 7.86328 30.9117 7.86328 30.7312C7.86328 30.5508 8.85586 27.7793 10.0547 24.5695C12.375 18.4336 12.5039 18.1758 13.2773 18.1758C14.0508 18.1758 14.1797 18.4336 16.4871 24.5051C17.6988 27.6633 18.7172 30.409 18.7559 30.5895C18.9234 31.234 18.0469 31.8012 17.4023 31.4531C17.2734 31.3758 16.9641 30.7828 16.6676 30.0352L16.1777 28.7461L13.2773 28.7719L10.3898 28.8105L9.95156 29.9707C9.71953 30.6152 9.41016 31.234 9.25547 31.3629C8.90742 31.6594 8.44336 31.6465 8.12109 31.3242ZM15.443 26.8254C14.2828 23.7188 13.3289 21.2695 13.2773 21.2695C13.2387 21.2695 12.852 22.2492 12.4137 23.4352C11.9625 24.6211 11.4855 25.8973 11.3438 26.2711L11.0859 26.9414H13.2902C14.5277 26.9414 15.4688 26.8898 15.443 26.8254Z" fill="#525F9B"/>
</g>
<defs>
<clipPath id="clip0_325_4523">
<rect width="66" height="66" fill="white"/>
</clipPath>
</defs>
</svg>
