<svg width="735" height="552" viewBox="0 0 735 552" fill="none" xmlns="http://www.w3.org/2000/svg">
<path d="M54.9999 192.365C54.6987 191.403 54.3975 190.442 54.2468 189.48C51.6112 172.251 39.1859 75.2892 108.014 42.6748C141.901 26.648 180.307 0.203801 304.559 49.0855C451.177 106.782 547.04 9.01853 569.631 9.01853C592.223 9.01853 643.43 -26.2404 703.673 42.6748C763.917 111.59 718.734 194.929 718.734 194.929C718.734 194.929 690.118 273.46 699.155 313.527C708.192 353.594 718.734 385.648 715.722 398.469C712.71 411.291 711.204 497.835 661.503 517.067C611.802 536.299 628.369 533.094 512.4 526.683C396.431 520.273 336.187 537.902 312.09 547.518C287.992 557.134 251.846 553.929 187.084 507.451C122.322 460.974 107.261 475.398 74.1272 454.563C40.9932 433.728 -43.1972 318.496 27.4384 234.996C54.774 202.782 55.6776 194.368 54.9999 192.365Z" fill="#DCDFEB"/>
<g clip-path="url(#clip0_796_13609)">
<path d="M202.121 104.555L203.858 99.3478C204.036 98.7654 204.438 98.2773 204.975 97.9909C205.513 97.7044 206.142 97.643 206.725 97.8203C207.308 97.9975 207.797 98.3989 208.084 98.936C208.371 99.4731 208.432 100.102 208.255 100.684L226.03 105.441L226.447 100.198L260.156 97.9418L260.869 101.674C262.137 100.568 263.59 99.693 265.161 99.0874C268.01 98.0286 271.555 97.7161 273.935 99.9727C275.176 101.057 276.051 102.498 276.44 104.099C276.828 105.699 276.712 107.38 276.107 108.912C274.576 111.564 272.446 113.823 269.887 115.509C268.044 116.635 265.972 117.335 263.823 117.557L264.883 123.146L225.057 125.802L225.422 118.859L206.152 106.708C205.824 107.151 205.347 107.46 204.808 107.58C204.27 107.7 203.706 107.622 203.221 107.361C202.735 107.099 202.36 106.672 202.165 106.156C201.969 105.641 201.966 105.073 202.156 104.555H202.121ZM266.863 112.592C268.719 111.586 270.323 110.174 271.555 108.461C272.203 107.821 272.603 106.972 272.684 106.066C272.587 105.076 272.194 104.138 271.555 103.375C271.343 103.052 271.058 102.783 270.723 102.59C270.388 102.397 270.012 102.285 269.626 102.264C268.639 102.218 267.654 102.389 266.742 102.767C264.714 103.456 262.956 104.769 261.72 106.517L263.041 113.599C264.373 113.507 265.675 113.165 266.881 112.592H266.863Z" fill="#FFA772"/>
<path d="M430.162 214.643C430.162 214.643 486.355 284.789 514.157 290.708C541.958 296.627 531.898 307.91 523.036 308.761C514.174 309.611 448.128 289.527 414.593 255.244L430.162 214.643Z" fill="#FCC7A1"/>
<path opacity="0.07" d="M430.162 214.643C430.162 214.643 486.355 284.789 514.157 290.708C541.958 296.627 531.898 307.91 523.036 308.761C514.174 309.611 448.128 289.527 414.593 255.244L430.162 214.643Z" fill="black"/>
<path opacity="0.45" d="M289 465.057C154.602 465.057 45.6511 456.212 45.6511 445.303C45.6511 434.393 154.602 425.549 289 425.549C423.398 425.549 532.35 434.393 532.35 445.303C532.35 456.212 423.398 465.057 289 465.057Z" fill="#E5E6EC"/>
<path d="M399.424 313.083L414.819 362.242C416.898 368.874 420.327 375.004 424.89 380.249C429.453 385.495 435.051 389.742 441.334 392.724L463.923 403.469L463.019 410.134L429.223 402.844C421.29 400.501 413.934 396.53 407.624 391.186C401.314 385.842 396.189 379.242 392.577 371.807L368.703 322.7L399.424 313.083Z" fill="#FCC7A1"/>
<path d="M348.443 326.952L341.197 432.232L347.922 434.558L374.681 336.066L348.443 326.952Z" fill="#FCC7A1"/>
<path d="M339.825 434.037C339.825 434.037 338.365 440.269 333.674 442.213C328.982 444.157 331.345 450.892 338.417 446.813C340.629 445.536 342.728 444.072 344.69 442.438C346.523 440.995 348.705 440.061 351.015 439.731C351.457 439.642 351.861 439.42 352.172 439.094C352.483 438.768 352.686 438.353 352.753 437.908C353.691 434.436 345.802 431.208 345.802 431.208L339.825 434.037Z" fill="#525F9B"/>
<path d="M463.037 410.134C463.037 410.134 467.815 413.78 467.659 418.518C467.502 423.257 474.244 423.865 473.41 416.244C473.169 413.868 472.728 411.516 472.089 409.214C471.565 407.094 471.607 404.873 472.211 402.774C472.299 402.364 472.26 401.936 472.098 401.549C471.937 401.161 471.661 400.832 471.307 400.604C468.718 398.487 462.932 403.903 462.932 403.903L463.037 410.134Z" fill="#525F9B"/>
<path d="M388.755 174.354L386.253 184.474L394.472 188.814L395.914 171.49L388.755 174.354Z" fill="#FCC7A1"/>
<path d="M397.843 161.682C397.358 160.776 396.655 160.005 395.796 159.438C394.938 158.872 393.952 158.529 392.927 158.439C391.902 158.349 390.871 158.517 389.928 158.925C388.984 159.334 388.157 159.971 387.522 160.78C384.481 164.598 380.919 170.57 385.784 173.278C393.117 177.426 398.781 168.07 398.781 168.07C399.104 165.895 398.778 163.673 397.843 161.682Z" fill="#FCC7A1"/>
<path d="M351.553 197.857C361.707 190.453 373.9 186.358 386.469 186.132C399.038 185.905 411.371 189.557 421.786 196.59C431.048 202.891 438.172 212.213 434.905 225.926C427.26 257.866 402.76 278.921 401.995 307.025L343.977 303.137V266.961C343.995 263.541 343.304 260.154 341.946 257.014C340.588 253.874 338.594 251.049 336.089 248.718C331.015 244.066 325.993 236.567 329.434 226.048C332.44 216.795 340.415 206.033 351.553 197.857Z" fill="#525F9B"/>
<path d="M393.255 168.192C393.255 168.192 394.993 166.56 395.897 168.608C396.8 170.657 393.811 171.924 392.786 170.934C391.761 169.945 393.255 168.192 393.255 168.192Z" fill="#FCC7A1"/>
<path opacity="0.08" d="M380.275 212.907C380.275 212.907 392.803 236.844 378.26 260.174C363.716 283.504 391.274 306.313 391.274 306.313L343.977 303.137V282.515L380.275 212.907Z" fill="black"/>
<path d="M404.428 198.586C403.298 194.264 398.138 186.435 405.418 172.219C406.965 169.216 408.163 162.186 405.279 157.325C398.329 145.678 387.243 149.653 388.546 156.18C389.849 162.706 390.788 165.814 390.788 165.814C390.788 165.814 369.728 180.898 372.804 192.025C375.532 201.902 409.102 216.604 404.428 198.586Z" fill="#CC743E"/>
<path d="M404.55 292.235H343.977L334.351 375.938L424.167 371.894L404.55 292.235Z" fill="#273782"/>
<path d="M377.86 229.936C379.29 228.198 380.36 226.194 381.01 224.041C381.659 221.887 381.875 219.626 381.643 217.388C381.412 215.151 380.739 212.981 379.664 211.006C378.588 209.03 377.13 207.286 375.375 205.877C371.864 203.149 368.153 200.689 364.272 198.517C341.18 185.307 302.796 156.11 286.654 115.838C286.654 115.838 282.849 101.118 271.607 101.639C260.364 102.16 264.239 116.116 275.447 115.977C275.447 115.977 284.586 203.36 351.796 235.872C356.178 237.943 361.13 238.484 365.856 237.407C370.582 236.331 374.81 233.7 377.86 229.936Z" fill="#FCC7A1"/>
<path d="M141.027 168.209L172.303 133.683L203.58 168.209H179.81V403.312H163.789V168.209H141.027Z" fill="#E5E6EC"/>
<path d="M215.899 372.605H124.711L133.92 445.303H206.69L215.899 372.605Z" fill="#B9BFD7"/>
<path d="M179.289 205.617C182.143 208.579 185.815 210.626 189.837 211.498C193.86 212.369 198.051 212.026 201.877 210.512C215.778 205.426 229.679 187.182 229.679 187.182C229.679 187.182 207.264 182.2 193.346 187.303C189.449 188.62 186.033 191.064 183.53 194.325C181.027 197.585 179.551 201.516 179.289 205.617Z" fill="#E5E6EC"/>
<path opacity="0.05" d="M179.289 205.617C182.143 208.579 185.815 210.626 189.837 211.498C193.86 212.369 198.051 212.026 201.877 210.512C215.778 205.426 229.679 187.182 229.679 187.182C229.679 187.182 199.375 190.845 179.289 205.617Z" fill="black"/>
<path d="M179.289 253.3C182.143 256.263 185.815 258.31 189.837 259.182C193.86 260.053 198.051 259.71 201.877 258.195C215.778 253.109 229.679 234.866 229.679 234.866C229.679 234.866 207.264 229.884 193.346 234.987C189.449 236.304 186.033 238.748 183.53 242.008C181.027 245.269 179.551 249.2 179.289 253.3Z" fill="#E5E6EC"/>
<path opacity="0.05" d="M179.289 253.3C182.143 256.263 185.815 258.31 189.837 259.181C193.86 260.053 198.051 259.71 201.877 258.195C215.778 253.109 229.679 234.866 229.679 234.866C229.679 234.866 199.375 238.528 179.289 253.3Z" fill="black"/>
<path d="M179.289 301.001C182.143 303.964 185.815 306.011 189.837 306.883C193.86 307.754 198.051 307.411 201.877 305.897C215.778 300.811 229.679 282.567 229.679 282.567C229.679 282.567 207.264 277.585 193.346 282.688C189.449 284.005 186.033 286.449 183.53 289.71C181.027 292.97 179.551 296.901 179.289 301.001Z" fill="#E5E6EC"/>
<path opacity="0.05" d="M179.289 301.001C182.143 303.964 185.815 306.011 189.837 306.883C193.86 307.754 198.051 307.411 201.877 305.897C215.778 300.811 229.679 282.567 229.679 282.567C229.679 282.567 199.375 286.229 179.289 301.001Z" fill="black"/>
<path d="M179.289 348.703C182.143 351.665 185.815 353.712 189.837 354.584C193.86 355.455 198.051 355.112 201.877 353.598C215.778 348.512 229.679 330.268 229.679 330.268C229.679 330.268 207.264 325.286 193.346 330.389C189.449 331.706 186.033 334.15 183.53 337.411C181.027 340.671 179.551 344.602 179.289 348.703Z" fill="#E5E6EC"/>
<path opacity="0.05" d="M179.289 348.703C182.143 351.665 185.815 353.712 189.837 354.584C193.86 355.455 198.051 355.112 201.877 353.598C215.778 348.512 229.679 330.268 229.679 330.268C229.679 330.268 199.375 333.93 179.289 348.703Z" fill="black"/>
<path d="M163.459 229.467C160.605 232.429 156.933 234.477 152.91 235.348C148.888 236.22 144.697 235.877 140.87 234.362C126.97 229.276 113.069 211.032 113.069 211.032C113.069 211.032 135.484 206.05 149.402 211.154C153.298 212.47 156.715 214.914 159.218 218.175C161.721 221.436 163.197 225.366 163.459 229.467Z" fill="#E5E6EC"/>
<path opacity="0.05" d="M163.459 229.467C160.605 232.43 156.933 234.477 152.91 235.348C148.888 236.22 144.697 235.877 140.87 234.362C126.97 229.276 113.069 211.032 113.069 211.032C113.069 211.032 143.372 214.695 163.459 229.467Z" fill="black"/>
<path d="M163.459 277.151C160.605 280.113 156.933 282.16 152.91 283.032C148.888 283.904 144.697 283.561 140.87 282.046C126.97 276.96 113.069 258.716 113.069 258.716C113.069 258.716 135.484 253.734 149.402 258.838C153.298 260.154 156.715 262.598 159.218 265.859C161.721 269.12 163.197 273.05 163.459 277.151Z" fill="#E5E6EC"/>
<path opacity="0.05" d="M163.459 277.151C160.605 280.113 156.933 282.16 152.91 283.032C148.888 283.904 144.697 283.561 140.87 282.046C126.97 276.96 113.069 258.716 113.069 258.716C113.069 258.716 143.372 262.361 163.459 277.151Z" fill="black"/>
<path d="M163.459 324.852C160.605 327.814 156.933 329.862 152.91 330.733C148.888 331.605 144.697 331.262 140.87 329.747C126.97 324.661 113.069 306.417 113.069 306.417C113.069 306.417 135.484 301.435 149.402 306.539C153.298 307.855 156.715 310.299 159.218 313.56C161.721 316.821 163.197 320.751 163.459 324.852Z" fill="#E5E6EC"/>
<path opacity="0.05" d="M163.459 324.852C160.605 327.814 156.933 329.862 152.91 330.733C148.888 331.605 144.697 331.262 140.87 329.747C126.97 324.661 113.069 306.417 113.069 306.417C113.069 306.417 143.372 310.08 163.459 324.852Z" fill="black"/>
<path d="M189.628 106.135C191.513 104.933 193.523 103.938 195.622 103.167C195.846 103.108 196.083 103.138 196.285 103.252C196.486 103.365 196.635 103.553 196.7 103.774C196.749 103.995 196.714 104.226 196.602 104.422C196.489 104.618 196.307 104.765 196.091 104.833C194.134 105.568 192.259 106.504 190.496 107.628C190.3 107.716 190.078 107.729 189.874 107.664C189.669 107.598 189.496 107.459 189.387 107.273C189.279 107.088 189.244 106.868 189.288 106.658C189.333 106.448 189.454 106.261 189.628 106.135Z" fill="#E5E6EC"/>
<path d="M180.297 113.078C181.533 111.362 183.128 109.934 184.971 108.895C185.169 108.781 185.405 108.75 185.626 108.809C185.847 108.867 186.036 109.01 186.152 109.207C186.211 109.305 186.25 109.413 186.266 109.526C186.282 109.639 186.275 109.754 186.246 109.864C186.217 109.974 186.166 110.077 186.096 110.167C186.026 110.257 185.939 110.332 185.84 110.388C185.423 110.631 185.006 110.891 184.623 111.169L184.363 111.36H184.241L183.685 111.829C183.324 112.138 182.987 112.474 182.677 112.835C182.506 113.006 182.344 113.186 182.191 113.373L182.104 113.495V113.582L181.965 113.755C181.849 113.952 181.66 114.096 181.438 114.154C181.217 114.213 180.982 114.182 180.783 114.068C180.6 113.985 180.451 113.841 180.363 113.66C180.274 113.48 180.251 113.274 180.297 113.078Z" fill="#E5E6EC"/>
<path d="M174.319 121.081C175.226 119.306 176.398 117.679 177.794 116.255C177.875 116.174 177.971 116.109 178.077 116.065C178.183 116.021 178.296 115.998 178.411 115.998C178.525 115.998 178.639 116.021 178.745 116.065C178.851 116.109 178.947 116.174 179.028 116.255C179.109 116.334 179.173 116.429 179.217 116.533C179.261 116.637 179.283 116.749 179.283 116.863C179.283 116.976 179.261 117.088 179.217 117.192C179.173 117.296 179.109 117.391 179.028 117.47C178.697 117.801 178.384 118.148 178.089 118.512L177.863 118.789L177.759 118.928L177.672 119.032L177.568 119.171L177.36 119.466C176.81 120.237 176.322 121.049 175.9 121.897C175.78 122.09 175.589 122.229 175.368 122.284C175.147 122.338 174.913 122.304 174.717 122.187C174.521 122.071 174.379 121.883 174.321 121.663C174.262 121.443 174.293 121.209 174.406 121.011L174.319 121.081Z" fill="#E5E6EC"/>
<path d="M189.001 100.494C191.025 99.9159 193.117 99.6123 195.222 99.5909C195.451 99.5954 195.669 99.6883 195.831 99.8501C195.993 100.012 196.086 100.23 196.091 100.459C196.091 100.689 195.999 100.91 195.836 101.073C195.673 101.235 195.452 101.327 195.222 101.327C193.269 101.341 191.327 101.627 189.453 102.177C189.232 102.236 188.997 102.205 188.798 102.091C188.6 101.977 188.454 101.79 188.393 101.57C188.334 101.347 188.365 101.109 188.478 100.908C188.592 100.707 188.78 100.558 189.001 100.494Z" fill="#E5E6EC"/>
<path d="M174.893 107.645C176.67 106.12 178.653 104.852 180.783 103.878C180.883 103.82 180.992 103.782 181.106 103.767C181.22 103.751 181.336 103.758 181.448 103.787C181.559 103.816 181.663 103.866 181.755 103.936C181.847 104.005 181.924 104.092 181.982 104.191C182.04 104.29 182.078 104.4 182.094 104.514C182.11 104.627 182.103 104.743 182.074 104.855C182.045 104.966 181.994 105.07 181.925 105.162C181.856 105.253 181.769 105.331 181.67 105.389C179.665 106.274 177.798 107.443 176.127 108.86C175.959 109.017 175.739 109.103 175.51 109.103C175.281 109.103 175.06 109.017 174.893 108.86C174.738 108.696 174.651 108.479 174.651 108.253C174.651 108.027 174.738 107.81 174.893 107.645Z" fill="#E5E6EC"/>
<path d="M165.631 118.008C166.542 115.918 168.008 114.117 169.871 112.801C169.969 112.742 170.077 112.703 170.19 112.687C170.303 112.671 170.418 112.678 170.528 112.707C170.638 112.736 170.741 112.787 170.831 112.857C170.922 112.927 170.997 113.014 171.053 113.113C171.166 113.311 171.198 113.547 171.139 113.768C171.08 113.989 170.937 114.178 170.74 114.293L170.583 114.415L170.305 114.641L169.732 115.144C169.362 115.499 169.014 115.876 168.689 116.272L168.446 116.602C168.307 116.81 168.168 117.019 168.047 117.227C167.769 117.677 167.525 118.147 167.317 118.633C167.197 118.831 167.005 118.975 166.781 119.033C166.557 119.092 166.319 119.06 166.118 118.946C165.945 118.865 165.803 118.729 165.715 118.559C165.627 118.39 165.598 118.196 165.631 118.008Z" fill="#E5E6EC"/>
<path d="M160.644 129.968L161.947 126.844C162.016 126.629 162.157 126.445 162.347 126.323C162.549 126.216 162.784 126.185 163.007 126.236C163.224 126.301 163.41 126.443 163.528 126.635C163.575 126.742 163.599 126.858 163.599 126.974C163.599 127.09 163.575 127.206 163.528 127.312L162.225 130.42C162.161 130.636 162.018 130.822 161.825 130.94C161.625 131.054 161.388 131.085 161.165 131.027C160.945 130.966 160.757 130.821 160.643 130.623C160.529 130.424 160.498 130.189 160.557 129.968H160.644Z" fill="#E5E6EC"/>
<path d="M170.844 129.621C171.039 128.644 171.442 127.721 172.026 126.913C172.141 126.717 172.328 126.574 172.547 126.514C172.759 126.429 172.996 126.429 173.208 126.514C173.404 126.629 173.547 126.816 173.607 127.035C173.64 127.147 173.65 127.266 173.635 127.382C173.62 127.499 173.581 127.611 173.52 127.712C173.263 128.068 173.047 128.452 172.877 128.857C172.718 129.225 172.601 129.609 172.53 130.003C172.464 130.215 172.322 130.394 172.13 130.506C172.023 130.553 171.908 130.577 171.791 130.577C171.675 130.577 171.56 130.553 171.453 130.506C171.268 130.446 171.109 130.326 170.999 130.166C170.889 130.006 170.835 129.815 170.844 129.621Z" fill="#E5E6EC"/>
<path d="M190.774 113.078C192.571 110.863 194.846 109.083 197.429 107.871C197.629 107.754 197.868 107.72 198.093 107.779C198.318 107.838 198.51 107.983 198.628 108.183C198.745 108.384 198.778 108.622 198.72 108.847C198.661 109.072 198.515 109.264 198.315 109.381C195.86 110.516 193.701 112.203 192.008 114.311C191.927 114.392 191.831 114.457 191.725 114.501C191.619 114.545 191.505 114.568 191.391 114.568C191.276 114.568 191.162 114.545 191.057 114.501C190.951 114.457 190.855 114.392 190.774 114.311C190.617 114.144 190.531 113.923 190.531 113.695C190.531 113.466 190.617 113.246 190.774 113.078Z" fill="#E5E6EC"/>
<path d="M182.85 122.834C183.629 120.91 184.754 119.145 186.169 117.626C186.247 117.543 186.341 117.477 186.446 117.432C186.551 117.387 186.663 117.363 186.777 117.363C186.891 117.363 187.004 117.387 187.109 117.432C187.213 117.477 187.307 117.543 187.385 117.626C187.545 117.789 187.634 118.007 187.634 118.234C187.634 118.461 187.545 118.679 187.385 118.842L186.916 119.38L186.708 119.64L186.604 119.779C186.725 119.64 186.604 119.779 186.604 119.866L186.464 120.022C186.411 120.121 186.347 120.214 186.273 120.3L185.874 120.907C185.627 121.295 185.401 121.694 185.196 122.105C185.092 122.313 184.988 122.504 184.901 122.712L184.744 123.06C184.744 123.06 184.744 123.181 184.744 123.251C184.682 123.481 184.531 123.677 184.324 123.796C184.117 123.914 183.871 123.946 183.641 123.884C183.41 123.822 183.214 123.671 183.095 123.464C182.976 123.258 182.944 123.012 183.007 122.782L182.85 122.834Z" fill="#E5E6EC"/>
<path d="M180.157 135.02L180.835 130.593C180.896 130.373 181.042 130.186 181.24 130.072C181.439 129.958 181.674 129.927 181.895 129.986C182.116 130.047 182.303 130.192 182.417 130.39C182.531 130.588 182.562 130.824 182.503 131.044C182.277 132.52 182.069 133.995 181.843 135.471C181.813 135.582 181.761 135.686 181.69 135.777C181.62 135.867 181.532 135.943 181.431 136C181.331 136.056 181.221 136.092 181.106 136.106C180.992 136.119 180.876 136.11 180.766 136.078C180.548 136.014 180.363 135.868 180.25 135.67C180.136 135.473 180.103 135.24 180.157 135.02Z" fill="#E5E6EC"/>
</g>
<defs>
<clipPath id="clip0_796_13609">
<rect width="490" height="368" fill="white" transform="matrix(-1 0 0 1 534 97.4558)"/>
</clipPath>
</defs>
</svg>
