<svg width="695" height="473" viewBox="0 0 695 473" fill="none" xmlns="http://www.w3.org/2000/svg">
<path d="M642.993 164.686C643.278 163.863 643.563 163.04 643.705 162.217C646.198 147.467 657.947 64.4563 592.864 36.5345C560.821 22.8137 524.506 0.174477 407.015 42.0228C268.377 91.4176 177.731 7.7209 156.369 7.7209C135.007 7.7209 86.5869 -22.4648 29.6218 36.5345C-27.3432 95.5338 15.3806 166.882 15.3806 166.882C15.3806 166.882 42.439 234.114 33.8942 268.415C25.3495 302.717 15.3806 330.159 18.2288 341.136C21.0771 352.112 22.5012 426.204 69.4974 442.669C116.494 459.134 100.828 456.39 210.486 450.902C320.144 445.413 377.109 460.506 399.895 468.739C422.681 476.971 456.86 474.227 518.097 434.437C579.335 394.647 593.576 406.995 624.907 389.158C656.238 371.321 735.846 272.669 669.055 201.184C643.207 173.605 642.352 166.402 642.993 164.686Z" fill="#DCDFEB"/>
<g clip-path="url(#clip0_795_13562)">
<path opacity="0.3" d="M199.935 100.569C121.172 137.294 93.5696 236.969 142.587 308.67C164.636 340.868 203.889 367.816 273.552 368.254C469.908 369.446 491.731 274.57 482.932 196.532C473.787 115.537 308.957 49.751 199.935 100.569Z" fill="#EEEFF5"/>
<path d="M282.003 336.025L288.009 408.571H398.314L375.405 348.79L282.003 336.025Z" fill="#273782"/>
<path d="M245.301 251.182C245.301 251.182 210.59 312.095 241.136 334.003C271.681 355.912 297.14 307.04 297.14 307.04L245.301 251.182Z" fill="#FBD9CF"/>
<path opacity="0.1" d="M245.557 251.031C245.557 251.031 210.846 311.944 241.391 333.852C271.937 355.761 297.396 306.889 297.396 306.889L245.557 251.031Z" fill="black"/>
<path d="M344.256 117.71L349.78 155.929L322.434 156.698L329.844 120.546L344.256 117.71Z" fill="#FBD9CF"/>
<path opacity="0.31" d="M327.881 128.392C331.351 127.763 334.558 126.126 337.102 123.685C337.102 123.685 336.182 132.738 325.738 141.036L327.881 128.392Z" fill="#CE8172"/>
<path d="M313.665 104.794C313.665 104.794 316.366 119.656 321.437 128.649C321.926 129.523 322.584 130.291 323.374 130.908C324.163 131.526 325.067 131.979 326.034 132.243C327 132.508 328.01 132.576 329.003 132.446C329.997 132.316 330.954 131.99 331.82 131.485C336.347 128.86 341.614 123.941 341.147 115.884L342.022 101.972C342.022 101.972 342.278 93.221 332.454 89.5545C322.629 85.8879 311.567 95.8313 313.665 104.794Z" fill="#FBD9CF"/>
<path d="M315.854 114.073L313.318 120.788C313.175 121.17 313.131 121.582 313.189 121.986C313.247 122.39 313.406 122.772 313.651 123.099C313.896 123.425 314.22 123.684 314.591 123.852C314.963 124.021 315.371 124.093 315.778 124.062L321.634 123.594L315.854 114.073Z" fill="#FBD9CF"/>
<path d="M322.433 156.698L349.779 155.929C349.779 155.929 412.907 156.713 422.219 210.036C431.53 263.359 375.435 348.85 375.435 348.85L282.033 336.085C282.033 336.085 273.763 284.513 270.337 239.278C266.912 194.042 274.186 165.781 322.433 156.698Z" fill="#525F9B"/>
<path d="M313.665 104.794C311.377 99.3936 308.327 94.3482 304.61 89.8109C303.607 88.592 302.94 87.132 302.675 85.5757C302.41 84.0194 302.557 82.4209 303.101 80.9389C305.682 72.4441 314.45 80.9389 320.291 74.2245C326.131 67.5101 331.654 67.5101 336.333 72.7157C341.011 77.9212 339.049 82.0102 345.931 81.1351C352.813 80.2599 356.058 90.3994 348.331 93.2964C340.604 96.1934 344.241 117.649 344.241 117.649L338.461 118.796L337.193 117C334.877 113.905 332.038 111.24 328.802 109.124C327.218 108.008 326.025 105.744 327.61 101.082L313.665 104.794Z" fill="#273782"/>
<path d="M266.927 186.036L267.468 185.995C268.318 185.93 269.159 186.206 269.806 186.762C270.453 187.317 270.852 188.107 270.916 188.957L273.64 224.915L266.702 225.44L263.979 189.482C263.915 188.635 264.189 187.796 264.741 187.15C265.294 186.505 266.079 186.104 266.927 186.036Z" fill="#273782"/>
<path d="M266.67 225.472L270.79 233.816L273.612 224.943L266.67 225.472Z" fill="#273782"/>
<path d="M334.265 116.035C334.265 116.035 332.847 110.392 337.178 109.683C341.509 108.973 343.622 117.091 338.098 119.415L334.265 116.035Z" fill="#FBD9CF"/>
<path opacity="0.1" d="M373.005 183.375C373.005 183.375 340.091 193.228 340.211 239.202C340.332 285.177 331.368 317.994 316.382 312.713C301.396 307.432 276.374 296.493 276.374 296.493L282.003 336.04L339.759 343.977L369.217 322.204L400.563 257.882L373.005 183.375Z" fill="black"/>
<path d="M249.571 217.942C249.571 217.942 247.745 195.777 265.598 196.547C283.452 197.316 276.842 217.792 249.571 217.942Z" fill="#FBD9CF"/>
<path d="M412.002 183.209C424.075 199.127 432.043 227.403 415.201 276.622L357.929 262.725C357.929 262.725 358.185 221.292 369.625 189.667C371.13 185.552 373.713 181.918 377.104 179.144C380.495 176.37 384.57 174.558 388.902 173.898C393.233 173.238 397.663 173.754 401.726 175.392C405.79 177.03 409.339 179.73 412.002 183.209Z" fill="#525F9B"/>
<path d="M261.286 205.711L233.543 222.622L268.039 279.19L295.782 262.28L261.286 205.711Z" fill="#FF914D"/>
<path opacity="0.63" d="M261.286 205.711L233.543 222.622L268.039 279.19L295.782 262.28L261.286 205.711Z" fill="white"/>
<path d="M288.01 267.055L261.917 282.959L225.772 227.388L253.511 210.474L288.01 267.055Z" fill="#FF914D"/>
<path opacity="0.1" d="M329.949 342.573L349.78 408.571H398.314L379.525 359.548L329.949 342.573Z" fill="black"/>
<path opacity="0.44" d="M412.002 183.209C424.075 199.127 432.043 227.403 415.201 276.622L357.929 262.725C357.929 262.725 358.185 221.292 369.625 189.667C371.13 185.552 373.713 181.918 377.104 179.144C380.495 176.37 384.57 174.558 388.902 173.898C393.233 173.238 397.663 173.754 401.726 175.392C405.79 177.03 409.339 179.73 412.002 183.209Z" fill="white"/>
<path d="M411.987 275.837C411.987 275.837 403.143 357.692 369.021 364.376C349.825 368.133 257.419 278.659 257.419 278.659C257.419 278.659 241.573 280.001 237.257 260.447C232.94 240.892 272.918 267.448 272.918 267.448C272.918 267.448 345.871 324.226 356.224 313.03C366.576 301.835 363.875 264.174 363.875 264.174L411.987 275.837Z" fill="#FBD9CF"/>
<path d="M225.772 227.388C225.772 227.388 230.632 259.526 222.558 281.299L260.981 277.995C260.981 277.995 269.538 247.818 253.51 210.474L225.772 227.388Z" fill="#FF914D"/>
<path opacity="0.1" d="M225.772 227.388C225.772 227.388 230.632 259.526 222.558 281.299L260.981 277.995C260.981 277.995 269.538 247.818 253.51 210.474L225.772 227.388Z" fill="black"/>
<path d="M315.642 158.177C315.642 158.177 311.024 145.835 329.738 144.431C348.451 143.028 364.825 140.825 365.203 157.845C365.203 157.845 340.121 166.144 315.642 158.177Z" fill="#525F9B"/>
<path opacity="0.44" d="M315.642 158.177C315.642 158.177 311.024 145.835 329.738 144.431C348.451 143.028 364.825 140.825 365.203 157.845C365.203 157.845 340.121 166.144 315.642 158.177Z" fill="white"/>
<path d="M206.606 167.969C230.877 167.969 250.552 148.298 250.552 124.032C250.552 99.7656 230.877 80.094 206.606 80.094C182.335 80.094 162.659 99.7656 162.659 124.032C162.659 148.298 182.335 167.969 206.606 167.969Z" fill="#989FC3"/>
<path d="M206.606 156.291C224.426 156.291 238.871 141.848 238.871 124.032C238.871 106.215 224.426 91.7725 206.606 91.7725C188.786 91.7725 174.34 106.215 174.34 124.032C174.34 141.848 188.786 156.291 206.606 156.291Z" fill="#E6E6E6"/>
<path d="M206.605 104.628V124.032L218.784 132.496" stroke="#525F9B" stroke-width="3" stroke-linecap="round" stroke-linejoin="round"/>
<path d="M208.342 145.08H73.7852V212.526H208.342V145.08Z" fill="#EFEFEF"/>
<path d="M193.355 161.632H144.806V173.597H193.355V161.632Z" fill="#989FC3"/>
<path opacity="0.34" d="M193.355 183.375H144.806V195.34H193.355V183.375Z" fill="#989FC3"/>
<path d="M112.178 196.532C121.821 196.532 129.639 188.716 129.639 179.074C129.639 169.433 121.821 161.617 112.178 161.617C102.534 161.617 94.7168 169.433 94.7168 179.074C94.7168 188.716 102.534 196.532 112.178 196.532Z" fill="#989FC3"/>
</g>
<defs>
<clipPath id="clip0_795_13562">
<rect width="412" height="341" fill="white" transform="translate(73 67.8572)"/>
</clipPath>
</defs>
</svg>
