<svg width="775" height="574" viewBox="0 0 775 574" fill="none" xmlns="http://www.w3.org/2000/svg">
<path d="M57.9931 373.936C57.6755 374.937 57.3579 375.937 57.1991 376.937C54.42 394.855 41.3185 495.698 113.893 529.617C149.624 546.286 190.119 573.788 321.134 522.95C475.731 462.945 576.811 564.621 600.632 564.621C624.452 564.621 678.446 601.291 741.968 529.617C783.164 483.135 777.606 430.344 768.61 398.977C763.141 379.909 754.229 361.976 748.715 342.921C740.731 315.329 731.271 273.872 737.204 247.925C746.733 206.254 757.849 172.918 754.673 159.584C751.497 146.249 749.909 56.2407 697.503 36.2389C645.097 16.2371 662.566 19.5707 540.285 26.238C418.005 32.9053 354.483 14.5703 329.074 4.56936C303.665 -5.43156 265.552 -2.09792 197.266 46.2398C128.979 94.5776 113.099 79.5762 78.1614 101.245C43.2242 122.914 -45.5481 242.758 28.9317 329.599C57.7549 363.102 58.7077 371.853 57.9931 373.936Z" fill="#DCDFEB"/>
<path d="M517.782 326.226H530.201V321.275H517.782C516.142 321.275 514.57 320.624 513.41 319.467C512.251 318.31 511.6 316.74 511.6 315.103C511.6 313.466 512.251 311.896 513.41 310.739C514.57 309.581 516.142 308.931 517.782 308.931H530.201V303.979H517.782C514.827 303.979 511.993 305.151 509.903 307.237C507.813 309.323 506.639 312.153 506.639 315.103C506.639 318.053 507.813 320.882 509.903 322.968C511.993 325.055 514.827 326.226 517.782 326.226Z" fill="#525F9B"/>
<path opacity="0.61" d="M517.782 326.226H530.201V321.275H517.782C516.142 321.275 514.57 320.624 513.41 319.467C512.251 318.31 511.6 316.74 511.6 315.103C511.6 313.466 512.251 311.896 513.41 310.739C514.57 309.581 516.142 308.931 517.782 308.931H530.201V303.979H517.782C514.827 303.979 511.993 305.151 509.903 307.237C507.813 309.323 506.639 312.153 506.639 315.103C506.639 318.053 507.813 320.882 509.903 322.968C511.993 325.055 514.827 326.226 517.782 326.226Z" fill="white"/>
<path opacity="0.45" d="M426.392 558.511C282.396 558.511 165.665 542.301 165.665 522.306C165.665 502.31 282.396 486.1 426.392 486.1C570.388 486.1 687.119 502.31 687.119 522.306C687.119 542.301 570.388 558.511 426.392 558.511Z" fill="#E6E6E6"/>
<path d="M264.298 232.789C266.742 270.591 284.823 364.854 407.054 311.838L402.848 299.387C402.848 299.387 342.443 310.026 326.465 287.653C312.95 268.707 313.165 206.577 283.331 209.537C277.767 210.214 272.68 213.011 269.133 217.344C265.586 221.677 263.854 227.211 264.298 232.789Z" fill="#525F9B"/>
<path opacity="0.08" d="M264.298 232.789C266.742 270.591 284.823 364.854 407.054 311.838L402.848 299.387C402.848 299.387 342.443 310.026 326.465 287.653C312.95 268.707 313.165 206.577 283.331 209.537C277.767 210.214 272.68 213.011 269.133 217.344C265.586 221.677 263.854 227.211 264.298 232.789Z" fill="black"/>
<path d="M376.806 162.352C376.806 162.352 374.326 175.969 369.617 184.204C369.165 185.002 368.56 185.703 367.835 186.266C367.111 186.829 366.282 187.243 365.397 187.485C364.511 187.727 363.587 187.792 362.676 187.675C361.766 187.558 360.887 187.263 360.091 186.806C355.958 184.401 351.105 179.97 351.536 172.453L350.728 159.696C350.832 157.127 351.734 154.654 353.309 152.62C354.883 150.585 357.053 149.089 359.516 148.34C368.592 145.039 378.729 154.135 376.806 162.352Z" fill="#F4A28C"/>
<path d="M350.62 163.895L323.716 191.004L339.783 208.425L356.659 176.023L350.62 163.895Z" fill="#F4A28C"/>
<path d="M359.462 169.923C359.462 169.923 360.774 164.756 356.802 164.092C352.83 163.428 350.889 170.892 355.958 173.063L359.462 169.923Z" fill="#F4A28C"/>
<path d="M374.793 170.856L377.075 177.01C377.206 177.359 377.246 177.735 377.193 178.103C377.14 178.472 376.995 178.822 376.771 179.12C376.548 179.418 376.253 179.655 375.913 179.81C375.574 179.965 375.201 180.032 374.829 180.006L369.437 179.575L374.793 170.856Z" fill="#F4A28C"/>
<path d="M306.606 507.594C306.606 507.594 310.2 514.142 316.544 513.712C322.889 513.281 325.531 519.094 320.139 521.624C314.747 524.154 299.039 519.076 299.039 519.076L298.051 509.962L306.606 507.594Z" fill="#525F9B"/>
<path d="M230.869 499.251C230.869 499.251 226.826 505.549 230.294 510.895C233.763 516.241 229.827 521.355 225.064 517.82C220.302 514.286 217.102 498.085 217.102 498.085L224.633 492.828L230.869 499.251Z" fill="#525F9B"/>
<path opacity="0.31" d="M353.945 181.226C352.687 178.455 351.892 175.498 351.591 172.471C351.591 172.471 341.131 182.123 348.14 192.385L353.945 181.226Z" fill="#CE8172"/>
<path d="M309.751 366.863L310.523 510.554H291.904L268.072 365.015L309.751 366.863Z" fill="#24285B"/>
<path d="M336.799 198.414C327.435 190.933 315.881 186.706 303.892 186.375C284.481 186.178 230.348 189.497 234.051 255.592C236.8 304.571 238.202 358.754 238.202 358.754L309.481 370.613C309.481 370.613 394.617 250.353 336.799 198.414Z" fill="#525F9B"/>
<path opacity="0.08" d="M289.694 215.027C289.694 215.027 304.629 232.968 295.391 265.765C286.153 298.561 273.177 338.122 317.677 358L309.481 370.559L238.202 358.7L237.268 328.415L225.819 272.331L289.694 215.027Z" fill="black"/>
<path opacity="0.79" d="M466.542 330.909H586.904V522.306H466.542V330.909Z" fill="#525F9B"/>
<path d="M430.256 330.909H534.371V522.306H430.256V330.909Z" fill="#E6E6E6"/>
<path d="M460.109 342.104L462.014 353.066H513.128V399.319H428.118V361.642V353.066V342.104H460.109Z" fill="#FF914D"/>
<path opacity="0.08" d="M460.109 342.104L462.014 353.066H513.128V399.319H428.118V361.642V353.066V342.104H460.109Z" fill="black"/>
<path d="M447.689 342.104L449.594 353.066H500.708V399.319H415.698V361.642V353.066V342.104H447.689Z" fill="#FF914D"/>
<path d="M310.613 278.449L307.126 291.385L354.106 311.497L332.018 362.898L253.874 329.438L271.864 287.581L275.962 278.036L281.21 265.854L310.613 278.449Z" fill="#FF914D"/>
<path opacity="0.08" d="M310.613 278.449L307.126 291.385L354.106 311.497L332.018 362.898L253.874 329.438L271.864 287.581L275.962 278.036L281.21 265.854L310.613 278.449Z" fill="black"/>
<path d="M299.201 273.551L295.714 286.505L342.694 306.599L320.606 358L242.48 324.558L260.452 282.683L264.55 273.156L269.798 260.974L299.201 273.551Z" fill="#FF914D"/>
<path d="M437.427 342.104L439.332 353.066H490.428V399.319H405.418V361.642V353.066V342.104H437.427Z" fill="#FF914D"/>
<path opacity="0.08" d="M437.427 342.104L439.332 353.066H490.428V399.319H405.418V361.642V353.066V342.104H437.427Z" fill="black"/>
<path d="M411.965 327.657L491.838 339.261L483.931 393.5L404.058 381.896L411.965 327.657Z" fill="#24285B"/>
<path opacity="0.12" d="M411.965 327.657L491.838 339.261L483.931 393.5L404.058 381.896L411.965 327.657Z" fill="white"/>
<path d="M407.773 319.888L487.646 331.492L479.739 385.731L399.866 374.127L407.773 319.888Z" fill="#24285B"/>
<path d="M425.008 342.104L426.913 353.066H478.009V399.319H392.999V361.642V353.066V342.104H425.008Z" fill="#FF914D"/>
<path d="M383.924 366.899H517.891V419.108H383.924V366.899Z" fill="#525F9B"/>
<path opacity="0.08" d="M260.021 283.706C267.909 293.853 276.307 303.596 285.182 312.896C291.99 319.765 299.641 325.745 307.953 330.694C312.788 333.654 317.874 338.929 314.46 347.182H287.842L253.065 300.086L260.021 283.706Z" fill="black"/>
<path d="M383.941 366.899H475.637V419.108H383.941V366.899Z" fill="#F2F2F2"/>
<path d="M411.817 443.239H517.891V495.448H411.817V443.239Z" fill="#F2F2F2"/>
<path d="M522.168 298.597H552.523V331.609H522.168V298.597Z" fill="#525F9B"/>
<path d="M428.172 398.242C424.112 398.242 420.821 394.957 420.821 390.904C420.821 386.852 424.112 383.566 428.172 383.566C432.231 383.566 435.522 386.852 435.522 390.904C435.522 394.957 432.231 398.242 428.172 398.242Z" fill="#525F9B"/>
<path d="M463.271 474.6C459.212 474.6 455.921 471.315 455.921 467.262C455.921 463.209 459.212 459.924 463.271 459.924C467.331 459.924 470.622 463.209 470.622 467.262C470.622 471.315 467.331 474.6 463.271 474.6Z" fill="#525F9B"/>
<path d="M403.621 301.647C408.667 301.448 413.705 302.209 418.466 303.89C426.428 306.689 433.796 313.775 428.117 322.064C423.732 328.451 417.513 325.15 415.195 320.037C412.876 314.924 411.475 309.972 407.053 311.838L403.621 301.647Z" fill="#F4A28C"/>
<path d="M264.783 194.951C253.321 199.227 242.816 205.72 233.872 214.058C224.928 222.395 217.721 232.412 212.663 243.536C208.229 252.909 206.094 263.202 206.435 273.563C206.775 283.924 209.582 294.055 214.622 303.118C225.172 321.526 246.793 342.176 291.131 351.111L296.289 338.175L253.946 301.055C251.688 299.083 249.861 296.669 248.577 293.962C247.293 291.256 246.581 288.315 246.483 285.322C246.385 282.329 246.905 279.348 248.009 276.564C249.114 273.78 250.78 271.252 252.903 269.138C265.484 256.579 281.48 238.099 288.687 218.597C289.905 215.275 290.142 211.674 289.37 208.222C288.598 204.769 286.85 201.61 284.333 199.12C281.816 196.63 278.636 194.914 275.17 194.175C271.705 193.436 268.1 193.705 264.783 194.951Z" fill="#525F9B"/>
<path opacity="0.2" d="M264.783 194.951C253.321 199.227 242.816 205.72 233.872 214.058C224.928 222.395 217.721 232.412 212.663 243.536C208.229 252.909 206.094 263.202 206.435 273.563C206.775 283.924 209.582 294.055 214.622 303.118C225.172 321.526 246.793 342.176 291.131 351.111L296.289 338.175L253.946 301.055C251.688 299.083 249.861 296.669 248.577 293.962C247.293 291.256 246.581 288.315 246.483 285.322C246.385 282.329 246.905 279.348 248.009 276.564C249.114 273.78 250.78 271.252 252.903 269.138C265.484 256.579 281.48 238.099 288.687 218.597C289.905 215.275 290.142 211.674 289.37 208.222C288.598 204.769 286.85 201.61 284.333 199.12C281.816 196.63 278.636 194.914 275.17 194.175C271.705 193.436 268.1 193.705 264.783 194.951Z" fill="white"/>
<path d="M295.39 340.579C295.39 340.579 315.16 338.426 316.957 345.962C318.754 353.497 319.977 358.054 319.977 358.054C309.974 357.825 300.232 354.832 291.832 349.406L295.39 340.579Z" fill="#F4A28C"/>
<path d="M238.202 358.754C237.417 367.931 237.309 377.154 237.879 386.347C238.364 397.668 241.311 416.524 243.54 429.568C245.128 439.002 243.414 448.695 238.687 457.018L220.715 488.935L233.763 501.924L255.168 474.151C266.096 459.902 273.576 443.323 277.023 425.71L283.834 391.012L300.998 369.231L238.202 358.754Z" fill="#24285B"/>
<path d="M384.714 146.151C384.714 146.151 390.267 158.961 377.003 159.589C363.74 160.217 363.901 157.526 363.901 157.526C363.901 157.526 363.075 174.641 351.59 172.506L346.828 167.698C346.828 167.698 341.436 145.864 350.782 141.074C350.782 141.074 369.437 121.93 384.714 146.151Z" fill="#24285B"/>
<path d="M359.678 171.986C359.678 171.986 358.977 160.827 352.686 163.608C346.396 166.389 350.548 178.553 359.678 171.986Z" fill="#F4A28C"/>
<path opacity="0.45" d="M530.202 298.597C530.202 298.597 508.832 284.908 530.202 265.765C551.571 246.622 559.946 290.882 575.528 260.974C591.11 231.067 551.571 198.79 595.298 196.386C639.025 193.982 611.671 166.407 649.323 163.159C686.976 159.912 697.148 226.492 668.392 230.887C639.636 235.283 612.066 237.059 619.866 264.563C627.666 292.067 598.299 299.548 584.514 292.82C570.73 286.092 552.523 298.597 552.523 298.597H530.202Z" fill="#EEEFF5"/>
<path d="M616.092 492.739L611.653 522.162H584.514L580.632 492.739H616.092Z" fill="#24285B"/>
</svg>
