<svg width="818" height="607" viewBox="0 0 818 607" fill="none" xmlns="http://www.w3.org/2000/svg">
<path d="M734.241 457.605C734.371 458.634 734.5 459.663 734.471 460.661C733.879 478.528 728.001 578.583 648.879 597.198C609.93 606.332 564.165 625.011 442.454 550.264C298.838 462.047 178.379 540.6 154.508 535.946C130.636 531.292 69.6156 556.197 19.4675 474.492C-30.6807 392.788 33.399 318.298 33.399 318.298C33.399 318.298 79.0304 245.229 77.336 203.08C75.6415 160.931 70.7848 126.529 76.481 114.258C82.1772 101.987 100.734 15.2761 157.021 6.17654C213.308 -2.92298 195.174 -3.11279 316.458 27.2229C437.741 57.5585 504.855 52.2423 532.203 47.5374C559.551 42.8325 597.117 53.5016 656.437 113.576C715.758 173.65 734.5 162.249 765.427 190.025C796.355 217.8 862.727 351.009 771.721 420.417C736.522 447.177 733.917 455.451 734.241 457.605Z" fill="#DCDFEB"/>
<path opacity="0.3" d="M518.773 185.465C559.298 205.731 586.657 248.871 587.273 311.219C587.779 361.219 585.693 416.421 496.724 432.04C323.64 462.518 184.568 477.962 143.174 395.966C101.78 313.969 111.421 192.041 204.056 166.148C271.688 147.273 423.087 137.598 518.773 185.465Z" fill="#EEEFF5"/>
<path d="M346.589 341.538H477.236V185.465L346.589 185.465V341.538Z" fill="#DCDFEB"/>
<path opacity="0.05" d="M466.979 193.132H416.307V259.131H466.979V193.132Z" fill="black"/>
<path opacity="0.05" d="M407.534 193.132H356.862V259.131H407.534V193.132Z" fill="black"/>
<path opacity="0.05" d="M407.534 267.889H356.862V333.887H407.534V267.889Z" fill="black"/>
<path opacity="0.05" d="M466.979 267.889H416.307V333.887H466.979V267.889Z" fill="black"/>
<path d="M423.972 408.66L455.235 311.219C455.235 311.219 362.11 312.293 362.647 313.906L334.197 404.312L423.972 408.66Z" fill="#FFAA75"/>
<path d="M362.647 313.922C362.109 311.234 314.219 284.376 288.93 283.27L249.765 391.887L335.114 402.099L362.647 313.922Z" fill="#FFAA75"/>
<path opacity="0.09" d="M362.647 313.922C362.109 311.234 314.219 284.376 288.93 283.27L249.765 391.887L335.114 402.099L362.647 313.922Z" fill="black"/>
<path opacity="0.09" d="M286.56 308.104C308.445 312.402 329.12 321.452 347.126 334.615C348.706 335.816 347.126 338.551 345.545 337.349C327.773 324.331 307.354 315.382 285.738 311.14C283.715 310.76 284.536 307.709 286.56 308.104Z" fill="black"/>
<path opacity="0.09" d="M281.376 320.387C303.262 324.682 323.937 333.732 341.942 346.897C343.522 348.099 341.942 350.834 340.361 349.632C322.603 336.607 302.194 327.653 280.585 323.407C278.594 323.043 279.432 319.992 281.376 320.387Z" fill="black"/>
<path opacity="0.09" d="M276.507 334.156C298.393 338.451 319.069 347.501 337.074 360.666C338.654 361.868 337.074 364.602 335.493 363.401C317.721 350.382 297.302 341.434 275.686 337.191C273.678 336.812 274.516 333.761 276.507 334.156Z" fill="black"/>
<path d="M564.102 408.66H143.174V461.395H564.102V408.66Z" fill="#DCDFEB"/>
<path d="M455.235 437.083H169.174V461.395H455.235V437.083Z" fill="#989FC3"/>
<path d="M253.701 276.425L249.813 301.054L227.732 302.998L240.598 263.51L253.701 276.425Z" fill="#F4A28C"/>
<path d="M248.927 249.709C250.729 249.02 252.673 248.791 254.585 249.044C256.497 249.297 258.316 250.023 259.876 251.156C261.437 252.29 262.689 253.795 263.521 255.535C264.352 257.276 264.736 259.196 264.638 261.123C264.259 270.276 261.967 283.112 251.867 281.073C236.378 277.911 239.776 257.803 239.776 257.803C241.964 254.263 245.147 251.448 248.927 249.709Z" fill="#F4A28C"/>
<path d="M174.484 461.395H257.114L266.155 439.96C271.477 427.027 277.715 414.491 284.821 402.447C312.196 356.872 292.993 297.086 240.709 292.265C225.895 290.915 211.059 294.59 198.587 302.698C170.232 320.514 156.087 354.248 161.761 387.255L174.484 461.395Z" fill="#525F9B"/>
<path d="M236.363 325.209C236.793 320.497 238.508 315.993 241.32 312.188C244.133 308.383 247.935 305.423 252.313 303.629C256.691 301.836 261.478 301.279 266.151 302.017C270.824 302.756 275.204 304.763 278.816 307.82C286.582 314.394 292.872 322.533 297.276 331.706C312.386 363.322 336.474 384.125 417.682 382.292V402.131C417.682 402.131 299.616 427.155 257.131 379.462C239.018 359.085 235.003 340.195 236.363 325.209Z" fill="#525F9B"/>
<path opacity="0.44" d="M236.363 325.209C236.793 320.497 238.508 315.993 241.32 312.188C244.133 308.383 247.935 305.423 252.313 303.629C256.691 301.836 261.478 301.279 266.151 302.017C270.824 302.756 275.204 304.763 278.816 307.82C286.582 314.394 292.872 322.533 297.276 331.706C312.386 363.322 336.474 384.125 417.682 382.292V402.131C417.682 402.131 299.616 427.155 257.131 379.462C239.018 359.085 235.003 340.195 236.363 325.209Z" fill="white"/>
<path d="M417.682 387.651C417.682 387.651 433.961 376.79 442.464 384.347C450.968 391.903 417.682 402.099 417.682 402.099V387.651Z" fill="#F4A28C"/>
<path opacity="0.09" d="M225.219 461.395C186.654 430.064 193.292 360.224 193.292 360.224C195.789 319.012 240.708 292.344 240.708 292.344L244.833 273.975L236.931 274.749L231.288 292.043C177.376 296.011 163.325 351.387 163.325 351.387L180.98 461.474L225.219 461.395Z" fill="black"/>
<path d="M245.861 268.553C246.43 267.778 247.015 266.972 247.552 266.229C250.713 261.486 253.637 256.523 259.169 254.42C265.239 252.128 263.8 248.65 259.896 244.54C254.633 239.007 244.881 237.268 237.769 238.897C235.077 239.465 232.533 240.588 230.299 242.194C228.065 243.8 226.19 245.853 224.793 248.223C223.459 250.886 222.4 253.677 221.632 256.554C219.122 264.896 214.847 272.6 209.098 279.144C204.632 283.66 199.881 287.884 194.873 291.79C190.037 295.916 185.39 300.453 182.45 306.097C179.51 311.74 178.483 318.648 181.059 324.466C183.256 328.899 186.849 332.488 191.285 334.678C201.827 340.4 214.993 340.211 226.168 335.99C228.849 335.147 231.293 333.678 233.296 331.706C235.216 329.285 236.528 326.439 237.121 323.407C240.772 309.78 241.689 295.648 243.032 281.657C243.332 278.496 243.206 274.749 244.138 271.714C244.531 270.571 245.113 269.502 245.861 268.553Z" fill="#273782"/>
<path d="M253.764 263.921C253.764 263.921 253.322 258.388 248.359 260.569C243.396 262.751 246.936 269.817 250.334 269.628C253.733 269.438 253.764 263.921 253.764 263.921Z" fill="#F4A28C"/>
<path d="M146.525 461.395H196.343C240.693 440.386 213.413 354.296 173.267 351.418C143.395 349.284 127.779 377.739 119.719 404.455C116.341 415.581 117.213 427.565 122.165 438.085C127.118 448.605 135.798 456.911 146.525 461.395Z" fill="#FFAA75"/>
<path opacity="0.09" d="M146.367 461.395H156.119L163.279 455.341C112.701 416.311 168.415 351.339 168.415 351.339C134.876 352.177 120.161 402.811 120.161 402.811C110.489 438.458 134.386 455.325 146.367 461.395Z" fill="black"/>
<path d="M171.576 461.395C171.945 445.021 174.188 428.744 178.262 412.88C178.584 411.707 178.672 410.482 178.52 409.275C178.368 408.068 177.98 406.903 177.377 405.846C176.774 404.79 175.969 403.862 175.007 403.118C174.045 402.373 172.946 401.825 171.772 401.506C170.599 401.187 169.373 401.102 168.167 401.257C166.961 401.413 165.797 401.804 164.742 402.41C163.687 403.016 162.762 403.824 162.02 404.788C161.278 405.752 160.733 406.852 160.417 408.027C155.808 425.458 153.267 443.37 152.847 461.395H171.576Z" fill="#FFAA75"/>
<path opacity="0.44" d="M171.576 461.395C171.945 445.021 174.188 428.744 178.262 412.88C178.584 411.707 178.672 410.482 178.52 409.275C178.368 408.068 177.98 406.903 177.377 405.846C176.774 404.79 175.969 403.862 175.007 403.118C174.045 402.373 172.946 401.825 171.772 401.506C170.599 401.187 169.373 401.102 168.167 401.257C166.961 401.413 165.797 401.804 164.742 402.41C163.687 403.016 162.762 403.824 162.02 404.788C161.278 405.752 160.733 406.852 160.417 408.027C155.808 425.458 153.267 443.37 152.847 461.395H171.576Z" fill="white"/>
<path opacity="0.09" d="M367.752 323.897H434.135C434.554 323.897 434.956 324.063 435.253 324.36C435.549 324.656 435.716 325.058 435.716 325.477C435.716 325.897 435.549 326.299 435.253 326.595C434.956 326.892 434.554 327.058 434.135 327.058H367.752C367.333 327.058 366.931 326.892 366.635 326.595C366.338 326.299 366.172 325.897 366.172 325.477C366.172 325.058 366.338 324.656 366.635 324.36C366.931 324.063 367.333 323.897 367.752 323.897Z" fill="black"/>
<path opacity="0.09" d="M364.165 337.381H430.547C430.966 337.381 431.368 337.547 431.665 337.844C431.961 338.14 432.128 338.542 432.128 338.962C432.128 339.381 431.961 339.783 431.665 340.08C431.368 340.376 430.966 340.543 430.547 340.543H364.165C363.745 340.543 363.343 340.376 363.047 340.08C362.751 339.783 362.584 339.381 362.584 338.962C362.584 338.542 362.751 338.14 363.047 337.844C363.343 337.547 363.745 337.381 364.165 337.381Z" fill="black"/>
<path opacity="0.09" d="M360.577 350.865H426.959C427.378 350.865 427.78 351.032 428.077 351.328C428.373 351.625 428.54 352.027 428.54 352.446C428.54 352.865 428.373 353.267 428.077 353.564C427.78 353.86 427.378 354.027 426.959 354.027H360.577C360.157 354.027 359.755 353.86 359.459 353.564C359.163 353.267 358.996 352.865 358.996 352.446C358.996 352.027 359.163 351.625 359.459 351.328C359.755 351.032 360.157 350.865 360.577 350.865Z" fill="black"/>
<path opacity="0.09" d="M357.004 364.349H423.387C423.806 364.349 424.208 364.516 424.505 364.812C424.801 365.109 424.967 365.511 424.967 365.93C424.967 366.35 424.801 366.752 424.505 367.048C424.208 367.345 423.806 367.511 423.387 367.511H357.004C356.585 367.511 356.183 367.345 355.887 367.048C355.59 366.752 355.424 366.35 355.424 365.93C355.424 365.511 355.59 365.109 355.887 364.812C356.183 364.516 356.585 364.349 357.004 364.349Z" fill="black"/>
<path opacity="0.58" d="M531.417 351.229C531.417 351.229 546.7 347.119 550.067 332.891C550.067 332.891 526.359 328.149 525.727 352.541L531.417 351.229Z" fill="#525F9B"/>
<path opacity="0.73" d="M529.52 349.711C529.52 349.711 540.188 332.844 530.8 317.052C530.8 317.052 512.798 328.497 520.795 349.743L529.52 349.711Z" fill="#525F9B"/>
<path d="M526.801 349.727C526.801 349.727 521.159 331.896 504.105 328.528C504.105 328.528 500.944 340.1 515.169 349.774L526.801 349.727Z" fill="#525F9B"/>
<path d="M537.882 349.316L534.784 370.515L515.28 370.594L512.403 349.427L537.882 349.316Z" fill="#273782"/>
<path opacity="0.09" d="M291.428 295.537C313.314 299.84 333.989 308.895 351.995 322.063C353.575 323.249 351.995 325.999 350.414 324.798C332.639 311.783 312.222 302.836 290.606 298.588C288.583 298.193 289.437 295.158 291.428 295.537Z" fill="black"/>
<path d="M453.702 408.66H550.02V395.966H453.702V408.66Z" fill="#989FC3"/>
<path d="M501.861 408.66H550.02V395.966H501.861V408.66Z" fill="#B9BFD7"/>
<path d="M449.276 395.966H545.594V383.272H449.276V395.966Z" fill="#989FC3"/>
<path d="M497.419 395.966H545.578V383.272H497.419V395.966Z" fill="#B9BFD7"/>
<path d="M462.98 383.288H559.298V370.594H462.98V383.288Z" fill="#989FC3"/>
<path d="M511.155 383.288H559.313V370.594H511.155V383.288Z" fill="#B9BFD7"/>
</svg>
