<svg width="695" height="515" viewBox="0 0 695 515" fill="none" xmlns="http://www.w3.org/2000/svg">
<path d="M52.0067 179.5C51.7219 178.602 51.4371 177.705 51.2946 176.808C48.8024 160.731 37.0534 70.2539 102.136 39.8207C134.179 24.8658 170.494 0.190171 287.985 45.8026C426.623 99.6403 517.269 8.41537 538.631 8.41537C559.993 8.41537 608.413 -24.4854 665.378 39.8207C722.343 104.127 679.619 181.892 679.619 181.892C679.619 181.892 652.561 255.171 661.106 292.559C669.651 329.946 679.619 359.856 676.771 371.82C673.923 383.784 672.499 464.54 625.503 482.486C578.506 500.432 594.172 497.441 484.514 491.459C374.856 485.477 317.891 501.927 295.105 510.9C272.319 519.873 238.14 516.882 176.903 473.513C115.665 430.144 101.424 443.603 70.0931 424.162C38.7623 404.72 -40.8464 297.195 25.9452 219.28C51.7931 189.22 52.6476 181.369 52.0067 179.5Z" fill="#DCDFEB"/>
<path opacity="0.27" d="M191.339 129.178C129.468 145.375 90.2744 200.751 102.541 257.257C108.979 286.968 129.279 314.836 177.738 327.973C306.977 363.02 441.754 339.472 481.731 284.836C521.707 230.2 489.416 112.967 357.031 109.386C292.274 107.544 233.969 118.028 191.339 129.178Z" fill="#E6E6E6"/>
<path d="M358.8 220.775C358.8 220.775 351.55 256.663 328.35 264.275C305.15 271.888 292.463 270.438 292.463 270.438V281.719C292.463 281.719 347.925 294.769 376.563 243.613L358.8 220.775Z" fill="#525F9B"/>
<path opacity="0.46" d="M358.8 220.775C358.8 220.775 351.55 256.663 328.35 264.275C305.15 271.888 292.463 270.438 292.463 270.438V281.719C292.463 281.719 347.925 294.769 376.563 243.613L358.8 220.775Z" fill="white"/>
<path opacity="0.45" d="M285.866 426.646C404.706 426.646 501.046 414.474 501.046 399.458C501.046 384.443 404.706 372.271 285.866 372.271C167.025 372.271 70.6855 384.443 70.6855 399.458C70.6855 414.474 167.025 426.646 285.866 426.646Z" fill="#E6E6E6"/>
<rect x="74.2344" y="418.36" width="391.892" height="16.982" fill="white"/>
<path d="M292.462 181.277C292.477 167.647 289.149 154.222 282.769 142.178C276.39 130.133 267.153 119.838 255.869 112.193C244.585 104.549 231.598 99.7884 218.047 98.33C204.496 96.8716 190.794 98.7594 178.141 103.828C165.489 108.896 154.273 116.991 145.477 127.402C136.681 137.813 130.572 150.223 127.687 163.544C124.802 176.864 125.228 190.69 128.929 203.807C132.629 216.925 139.491 228.935 148.912 238.784C160.734 251.401 167.25 268.083 167.109 285.372V288.272H249.614V286.155C249.746 268.601 256.716 251.789 269.044 239.291C284.12 223.749 292.524 202.93 292.462 181.277Z" fill="#FFA873"/>
<path d="M186.743 285.474L169.328 180.03" stroke="white" stroke-width="4" stroke-miterlimit="10" stroke-linecap="round"/>
<path d="M247.629 180.03L230.215 285.474" stroke="white" stroke-width="4" stroke-miterlimit="10" stroke-linecap="round"/>
<path d="M256.344 275.382H161.92V349.912H256.344V275.382Z" fill="#24285B"/>
<path d="M193.5 198.474C193.5 198.474 201.33 183.075 209.45 193.558C219.499 206.608 226.371 192.108 226.371 192.108" stroke="white" stroke-width="4" stroke-miterlimit="10" stroke-linecap="round"/>
<path opacity="0.21" d="M262.056 145.805C266.5 135.556 259.465 122.635 246.343 116.946C233.22 111.256 218.98 114.953 214.536 125.202C210.093 135.452 217.128 148.373 230.25 154.062C243.372 159.752 257.612 156.055 262.056 145.805Z" fill="white"/>
<path d="M279.819 349.912H139.604V399.444H279.819V349.912Z" fill="#C9C9C9"/>
<path d="M422.02 341.11L432.634 389.323H426.471L405.809 341.11H422.02Z" fill="#F4A28C"/>
<path d="M387.496 335.252L376.186 389.323H369.98L370.923 334.861L387.496 335.252Z" fill="#F4A28C"/>
<path d="M391.57 154.249C389.93 157.735 388.769 161.428 388.119 165.226C388.071 165.682 388.113 166.143 388.244 166.583C388.375 167.023 388.591 167.432 388.881 167.788C389.171 168.144 389.528 168.439 389.932 168.656C390.337 168.873 390.78 169.008 391.236 169.054C392.696 169.29 394.192 169.101 395.548 168.51C396.903 167.918 398.059 166.949 398.878 165.719L402.909 160.76C403.631 159.676 403.995 158.394 403.948 157.092C403.901 155.791 403.446 154.538 402.648 153.51C399.965 149.58 393.179 150.349 391.57 154.249Z" fill="#F4A28C"/>
<path d="M420.687 284.039L438.913 366.863L403.026 366.094L387.496 303.063L396.747 288.229L420.687 284.039Z" fill="#24285B"/>
<path d="M401.386 161.891L403.025 184.54H390.482L394.238 168.488L401.386 161.891Z" fill="#F4A28C"/>
<path d="M364.093 281.719L356.988 366.863H392.151L396.747 295.45L414.263 281.719H364.093Z" fill="#24285B"/>
<path d="M410 184.148C418.358 183.88 426.527 186.675 432.968 192.007C440.363 198.286 446.555 209.102 441.755 227.256C432.185 263.506 415.032 284.038 415.032 284.038L364.093 281.718C364.093 281.718 365.964 257.315 359.395 242.714C352.827 228.112 346.548 191.195 390.469 184.539L410 184.148Z" fill="#525F9B"/>
<path d="M389.917 158.294L387.177 160.136C387.021 160.237 386.893 160.376 386.805 160.539C386.716 160.703 386.67 160.886 386.67 161.071C386.67 161.257 386.716 161.44 386.805 161.603C386.893 161.766 387.021 161.905 387.177 162.006L389.497 163.456L389.917 158.294Z" fill="#F4A28C"/>
<path opacity="0.08" d="M416.061 198.996C416.061 198.996 401.488 207.884 403.011 220.746C404.533 233.607 388.888 275.15 364.296 276.165L364.078 281.689L383.726 282.588L432.62 263.883L441.798 242.133L416.061 198.996Z" fill="black"/>
<path opacity="0.31" d="M394.122 168.937C395.637 168.669 397.051 167.992 398.211 166.98C398.211 166.98 399.023 171.881 393.049 173.534L394.122 168.937Z" fill="#CE8172"/>
<path d="M397.297 161.615C397.297 161.615 398.268 159.136 400.081 160.02C401.893 160.905 400.501 164.501 397.819 163.892L397.297 161.615Z" fill="#F4A28C"/>
<path d="M432.634 389.323C432.634 389.323 436.055 393.673 440.434 393.455C444.813 393.238 445.452 399.429 438.405 398.791C436.212 398.6 434.039 398.226 431.909 397.675C429.947 397.225 427.901 397.3 425.978 397.892C425.599 397.98 425.203 397.948 424.843 397.803C424.482 397.658 424.175 397.406 423.963 397.08C421.962 394.731 426.863 389.323 426.863 389.323H432.634Z" fill="#525F9B"/>
<path d="M370.4 389.323C370.4 389.323 366.978 393.673 362.599 393.455C358.22 393.238 357.568 399.429 364.629 398.791C366.817 398.601 368.985 398.228 371.111 397.675C373.077 397.225 375.128 397.3 377.056 397.892C377.435 397.977 377.83 397.945 378.19 397.8C378.55 397.655 378.857 397.404 379.071 397.08C381.072 394.731 376.171 389.323 376.171 389.323H370.4Z" fill="#525F9B"/>
<path d="M253.922 372.257C257.397 372.257 260.215 369.439 260.215 365.964C260.215 362.488 257.397 359.671 253.922 359.671C250.446 359.671 247.629 362.488 247.629 365.964C247.629 369.439 250.446 372.257 253.922 372.257Z" fill="white"/>
<path opacity="0.48" d="M253.922 391.904C257.397 391.904 260.215 389.087 260.215 385.611C260.215 382.135 257.397 379.318 253.922 379.318C250.446 379.318 247.629 382.135 247.629 385.611C247.629 389.087 250.446 391.904 253.922 391.904Z" fill="white"/>
<path d="M232.272 365.05H165.746V385.611H232.272V365.05Z" fill="#ADADAD"/>
<path d="M409.101 233.289L371.004 240.286L380.76 293.403L418.857 286.406L409.101 233.289Z" fill="#FFA873"/>
<path opacity="0.08" d="M378.738 270.684L382.798 292.869L421.006 285.721L419.454 277.934L378.738 270.684Z" fill="black"/>
<path d="M419.309 194.182C420.237 193.046 421.382 192.106 422.676 191.417C423.971 190.728 425.39 190.304 426.85 190.169C428.31 190.034 429.783 190.191 431.182 190.631C432.581 191.071 433.878 191.785 434.998 192.732C444.148 200.388 457.473 215.468 456.748 237.958C455.69 272.076 431.982 287.258 381.609 272.105L384.132 263.072C384.132 263.072 415.075 271.656 431.46 252.559C446.598 234.869 396.718 222.399 419.309 194.182Z" fill="#525F9B"/>
<path opacity="0.46" d="M419.309 194.182C420.237 193.046 421.382 192.106 422.676 191.417C423.971 190.728 425.39 190.304 426.85 190.169C428.31 190.034 429.783 190.191 431.182 190.631C432.581 191.071 433.878 191.785 434.998 192.732C444.148 200.388 457.473 215.468 456.748 237.958C455.69 272.076 431.982 287.258 381.609 272.105L384.132 263.072C384.132 263.072 415.075 271.656 431.46 252.559C446.598 234.869 396.718 222.399 419.309 194.182Z" fill="white"/>
<path d="M393.049 154.452C394.898 155.701 396.941 156.637 399.095 157.221C399.095 157.221 397.167 164.805 401.908 169.111C401.908 169.111 411.971 161.078 407.375 154.075C403.532 148.275 400.893 143.359 394.586 145.375C393.683 145.667 392.877 146.201 392.256 146.919C391.636 147.637 391.224 148.512 391.065 149.447C390.907 150.383 391.008 151.345 391.357 152.227C391.707 153.109 392.292 153.879 393.049 154.452Z" fill="#24285B"/>
<path d="M412.335 159.629C416.139 159.629 419.222 156.545 419.222 152.741C419.222 148.937 416.139 145.854 412.335 145.854C408.531 145.854 405.447 148.937 405.447 152.741C405.447 156.545 408.531 159.629 412.335 159.629Z" fill="#24285B"/>
<path d="M383.74 264.522C383.74 264.522 371.371 259.316 369.979 264.522C368.587 269.727 381.579 272.047 381.579 272.047L383.74 264.522Z" fill="#F4A28C"/>
<path opacity="0.58" d="M466.1 381.333C466.1 381.333 453.703 377.955 451.006 366.413C451.006 366.413 470.218 362.527 470.769 382.363L466.1 381.333Z" fill="#525F9B"/>
<path opacity="0.73" d="M467.623 380.101C467.623 380.101 458.923 366.413 466.579 353.595C466.579 353.595 481.195 362.875 474.699 380.13L467.623 380.101Z" fill="#525F9B"/>
<path d="M469.855 380.115C469.855 380.115 474.437 365.615 488.27 362.904C488.27 362.904 490.866 372.3 479.309 380.159L469.855 380.115Z" fill="#525F9B"/>
<path d="M460.865 379.797L463.374 396.994L479.208 397.052L481.542 379.884L460.865 379.797Z" fill="#24285B"/>
<path d="M292.463 272.047C292.463 272.047 276.15 270.321 278.804 276.846C281.457 283.371 292.463 279.254 292.463 279.254V272.047Z" fill="#F4A28C"/>
<path d="M383.74 185.888C383.74 185.888 383.943 181.321 390.99 180.088C398.037 178.856 408.796 174.883 410.043 184.206L383.74 185.888Z" fill="#525F9B"/>
<path opacity="0.46" d="M383.74 185.888C383.74 185.888 383.943 181.321 390.99 180.088C398.037 178.856 408.796 174.883 410.043 184.206L383.74 185.888Z" fill="white"/>
<path d="M397.297 160.846C397.297 160.846 398.863 158.178 400.893 159.643C402.923 161.107 401.4 164.355 397.993 164.355L397.297 160.846Z" fill="#F4A28C"/>
<path d="M375.895 86.679V115.679H394.629L398.732 127.207L403.575 115.679H422.309V86.679H375.895Z" fill="#E6E6E6"/>
<path opacity="0.12" d="M396.762 107.646H396.689C396.48 107.635 396.276 107.578 396.091 107.481C395.906 107.383 395.744 107.247 395.616 107.081L390.701 100.773C390.571 100.624 390.472 100.45 390.411 100.262C390.351 100.073 390.329 99.8743 390.349 99.6773C390.368 99.4803 390.427 99.2893 390.523 99.1161C390.619 98.9428 390.749 98.7911 390.906 98.6701C391.062 98.5491 391.242 98.4615 391.434 98.4126C391.626 98.3638 391.826 98.3547 392.021 98.386C392.216 98.4173 392.403 98.4883 392.57 98.5945C392.737 98.7008 392.881 98.8402 392.992 99.004L396.834 103.963L406.346 93.697C406.472 93.5426 406.627 93.4156 406.804 93.3239C406.98 93.2321 407.173 93.1777 407.372 93.1638C407.57 93.1499 407.769 93.177 407.956 93.2433C408.144 93.3096 408.316 93.4138 408.461 93.5493C408.606 93.6848 408.723 93.8487 408.802 94.031C408.881 94.2132 408.922 94.4098 408.923 94.6086C408.923 94.8074 408.882 95.0041 408.803 95.1865C408.724 95.369 408.609 95.5332 408.463 95.669L397.806 107.182C397.672 107.326 397.511 107.441 397.332 107.521C397.152 107.601 396.958 107.643 396.762 107.646Z" fill="black"/>
</svg>
