<svg width="785" height="515" viewBox="0 0 785 515" fill="none" xmlns="http://www.w3.org/2000/svg">
<path d="M726.259 179.5C726.58 178.602 726.902 177.705 727.063 176.808C729.878 160.731 743.148 70.2539 669.638 39.8207C633.446 24.8658 592.428 0.190171 459.722 45.8026C303.131 99.6403 200.747 8.41537 176.618 8.41537C152.49 8.41537 97.7996 -24.4854 33.4577 39.8207C-15.4544 88.7057 0.702992 145.369 11.2652 169.734C14.8789 178.07 19.1531 186.072 22.247 194.615C30.45 217.265 45.4483 264.803 38.2834 292.559C28.6321 329.946 17.3723 359.856 20.5893 371.82C23.8064 383.784 25.415 464.54 78.497 482.486C131.579 500.432 113.885 497.441 237.743 491.459C361.601 485.477 425.943 501.927 451.68 510.9C477.417 519.873 516.022 516.882 585.189 473.513C654.357 430.144 670.442 443.603 705.83 424.162C741.218 404.72 831.136 297.195 755.695 219.28C726.5 189.22 725.535 181.369 726.259 179.5Z" fill="#DCDFEB"/>
<path opacity="0.45" d="M324.501 399.995C441.802 399.995 536.894 393.282 536.894 385.001C536.894 376.719 441.802 370.006 324.501 370.006C207.199 370.006 112.107 376.719 112.107 385.001C112.107 393.282 207.199 399.995 324.501 399.995Z" fill="#D9D9D9"/>
<path d="M464.161 164.417L440.806 258.377L406.373 249.777C405.377 248.502 404.819 246.939 404.784 245.32C404.749 243.701 405.238 242.115 406.177 240.798C407.835 239.882 409.288 238.634 410.446 237.133C411.603 235.631 412.441 233.907 412.908 232.068C413.708 228.293 413.016 224.354 410.978 221.08C408.94 217.806 405.715 215.452 401.981 214.514C398.246 213.575 394.295 214.126 390.957 216.049C387.619 217.972 385.156 221.118 384.085 224.825C383.637 226.67 383.57 228.587 383.888 230.458C384.205 232.33 384.902 234.117 385.934 235.709C386.152 237.313 385.844 238.945 385.055 240.358C384.265 241.771 383.039 242.887 381.56 243.539L347.139 234.926L355.823 200.03C355.103 198.682 353.992 197.586 352.636 196.887C351.281 196.188 349.745 195.918 348.233 196.115C346.647 197.155 344.865 197.857 342.998 198.178C341.13 198.499 339.216 198.432 337.376 197.981C333.705 196.889 330.595 194.419 328.696 191.086C326.797 187.753 326.254 183.813 327.18 180.089C328.106 176.364 330.431 173.141 333.669 171.092C336.907 169.043 340.809 168.325 344.562 169.088C346.397 169.556 348.116 170.396 349.614 171.556C351.112 172.717 352.357 174.173 353.271 175.835C354.513 176.725 355.996 177.214 357.523 177.235C359.049 177.256 360.545 176.808 361.811 175.953L370.494 141.057L464.161 164.417Z" fill="#EEEFF5"/>
<path d="M474.12 171.242C474.12 171.242 460.607 189.668 474.315 195.267C488.024 200.865 489.195 180.455 489.195 180.455L483.012 166.766L474.12 171.242Z" fill="#FF914D"/>
<path d="M478.858 184.474L496.172 185.036C496.172 185.036 548.141 198.451 519.019 258.755C514.398 268.308 514.788 279.544 514.528 290.075L514.463 292.815H468.794L466.399 282.963C463.66 272.028 458.681 261.784 451.78 252.882C442.966 241.268 436.717 218.209 478.858 184.474Z" fill="#525F9B"/>
<path d="M470.643 158.857C470.794 162.709 471.459 166.523 472.622 170.198C472.789 170.625 473.038 171.015 473.356 171.346C473.673 171.676 474.053 171.941 474.473 172.124C474.892 172.307 475.344 172.405 475.802 172.413C476.259 172.42 476.714 172.337 477.14 172.168C478.541 171.697 479.778 170.831 480.701 169.674C481.625 168.517 482.196 167.117 482.347 165.643L483.649 159.379C483.778 158.098 483.508 156.808 482.876 155.686C482.245 154.565 481.282 153.666 480.121 153.115C475.929 150.845 470.305 154.642 470.643 158.857Z" fill="#FCC7A1"/>
<path d="M483.44 160.554L489.741 182.373L477.504 184.996L477.829 168.057L483.44 160.554Z" fill="#FCC7A1"/>
<path opacity="0.31" d="M477.607 171.764C479.098 171.179 480.387 170.173 481.318 168.867C481.318 168.867 481.656 173.003 477.647 177.636L477.607 171.764Z" fill="#CE8172"/>
<path d="M469.003 148.691C468.208 149.429 467.606 150.35 467.248 151.374C466.89 152.399 466.788 153.495 466.949 154.568C467.111 155.641 467.532 156.659 468.176 157.531C468.82 158.404 469.667 159.106 470.643 159.575C472.253 160.385 473.972 160.956 475.746 161.271C483.18 162.707 479.508 195.528 495.182 190.908C510.857 186.288 505.818 179.476 498.71 173.369C491.602 167.261 488.621 155.882 485.926 150.153C483.922 145.99 473.806 144.489 469.003 148.691Z" fill="#FF914D"/>
<path d="M508.526 307.94L510.7 379.781L506.078 381.19L490.482 313.461L508.526 307.94Z" fill="#FCC7A1"/>
<path d="M510.571 378.724C510.571 378.724 513.435 382.012 516.859 381.686C520.283 381.36 521.038 386.201 515.479 385.966C513.751 385.899 512.031 385.69 510.337 385.34C508.772 385.052 507.159 385.187 505.663 385.731C505.371 385.811 505.062 385.8 504.776 385.7C504.49 385.6 504.241 385.415 504.062 385.17C502.396 383.396 506.054 378.946 506.054 378.946L510.571 378.724Z" fill="#525F9B"/>
<path d="M472.532 308.045L456.012 377.993L460.243 380.303L489.091 317.089L472.532 308.045Z" fill="#FCC7A1"/>
<path d="M456.349 376.988C456.349 376.988 452.886 379.598 449.593 378.606C446.299 377.614 444.594 382.195 450.087 383.082C451.808 383.37 453.55 383.51 455.295 383.5C456.879 383.536 458.428 383.986 459.786 384.805C460.056 384.941 460.36 384.992 460.66 384.952C460.959 384.913 461.24 384.784 461.465 384.583C463.457 383.174 460.762 378.058 460.762 378.058L456.349 376.988Z" fill="#525F9B"/>
<path opacity="0.08" d="M494.739 208.291C494.739 208.291 488.673 232.198 498.541 248.472C508.409 264.745 490.482 287.935 490.482 287.935L514.644 287.087C514.644 287.087 516.115 264.823 521.726 245.731C527.337 226.639 494.739 208.291 494.739 208.291Z" fill="black"/>
<path d="M467.805 288.731L514.645 287.087L523.08 365.165H489.741L489.194 306.857L467.805 288.731Z" fill="#273782"/>
<path d="M467.806 288.731L445.35 362.698L477.166 365.165L495.444 298.336L467.806 288.731Z" fill="#273782"/>
<path d="M500.962 187.828C503.048 187.488 505.185 187.646 507.199 188.288C509.213 188.93 511.047 190.039 512.554 191.525C514.06 193.011 515.196 194.832 515.869 196.84C516.542 198.848 516.734 200.987 516.428 203.084C515.126 212.963 510.414 227.513 496.393 243.408C470.877 272.301 409.678 256.275 409.678 256.275C409.678 256.275 397.233 257.894 395.579 251.212C393.926 244.53 410.42 247.976 410.42 247.976C410.42 247.976 440.362 254.331 462.493 234.26C480.42 217.961 482.828 190.895 500.962 187.828Z" fill="#FCC7A1"/>
<path d="M387.599 284.855C386.33 283.859 385.414 282.48 384.99 280.921C384.565 279.362 384.654 277.707 385.243 276.203C386.634 274.912 387.745 273.348 388.507 271.608C389.268 269.868 389.664 267.989 389.669 266.089C389.509 262.248 387.874 258.617 385.106 255.956C382.338 253.295 378.651 251.81 374.815 251.81C370.98 251.81 367.293 253.295 364.525 255.956C361.757 258.617 360.122 262.248 359.962 266.089C359.97 267.989 360.367 269.866 361.128 271.606C361.89 273.346 362.999 274.91 364.388 276.203C364.987 277.705 365.082 279.361 364.659 280.922C364.237 282.483 363.319 283.863 362.045 284.855H326.557V320.429C327.543 321.711 328.919 322.635 330.477 323.061C332.035 323.487 333.689 323.393 335.188 322.791C336.479 321.402 338.04 320.291 339.775 319.528C341.51 318.765 343.382 318.366 345.277 318.354C349.109 318.515 352.73 320.154 355.385 322.929C358.04 325.704 359.522 329.4 359.522 333.244C359.522 337.089 358.04 340.785 355.385 343.56C352.73 346.335 349.109 347.974 345.277 348.134C343.382 348.126 341.509 347.728 339.773 346.965C338.038 346.202 336.477 345.09 335.188 343.697C333.687 343.107 332.037 343.018 330.481 343.444C328.926 343.869 327.55 344.787 326.557 346.06V381.634H423.087V284.855H387.599Z" fill="#FFB98D"/>
<path d="M359.442 333.27C359.529 337.117 358.094 340.841 355.449 343.629C352.804 346.417 349.166 348.042 345.33 348.147C343.435 348.139 341.562 347.741 339.826 346.978C338.091 346.215 336.53 345.103 335.241 343.71C333.74 343.12 332.089 343.031 330.534 343.457C328.979 343.882 327.603 344.8 326.609 346.073V381.647H230.014V284.855H265.723C266.916 285.87 267.763 287.233 268.145 288.754C268.528 290.274 268.428 291.877 267.858 293.337C266.468 294.627 265.358 296.189 264.597 297.926C263.835 299.664 263.439 301.54 263.432 303.438C263.592 307.279 265.227 310.91 267.995 313.571C270.763 316.232 274.45 317.718 278.286 317.718C282.121 317.718 285.808 316.232 288.576 313.571C291.344 310.91 292.979 307.279 293.139 303.438C293.132 301.54 292.736 299.664 291.974 297.926C291.213 296.189 290.103 294.627 288.713 293.337C288.136 291.878 288.031 290.273 288.414 288.751C288.797 287.228 289.649 285.865 290.848 284.855H326.557V320.429C327.544 321.711 328.92 322.635 330.478 323.061C332.035 323.487 333.689 323.393 335.188 322.791C336.48 321.402 338.041 320.291 339.776 319.528C341.511 318.765 343.383 318.366 345.278 318.354C349.129 318.45 352.785 320.075 355.441 322.872C358.097 325.67 359.536 329.41 359.442 333.27Z" fill="#EEEFF5"/>
<path d="M208.897 375.552C208.897 375.552 212.803 379.467 217.099 377.614C221.395 375.761 224.48 379.415 221.343 382.495C218.205 385.575 206.294 385.718 206.294 385.718L202.805 377.627L208.897 375.552Z" fill="#525F9B"/>
<path d="M142.543 373.752C142.543 373.752 140.603 379.076 143.845 382.547C147.086 386.019 145.043 390.456 141.15 388.537C137.258 386.619 132.662 375.031 132.662 375.031L138.442 368.571L142.543 373.752Z" fill="#525F9B"/>
<path d="M131.972 273.684C131.972 273.684 127.806 291.067 135.045 299.615C142.283 308.162 153.374 348.656 135.045 368.91L142.244 376.114C142.244 376.114 173.982 359.018 164.935 297.37L187.586 273.684H131.972Z" fill="#273782"/>
<path d="M187.639 273.684L210.915 376.114L199.277 377.915C199.277 377.915 176 307.719 160.639 293.311L187.639 273.684Z" fill="#273782"/>
<path d="M193.016 183.626C193.016 183.626 217.282 194.001 213.572 231.989L189.865 229.954L193.016 183.626Z" fill="#525F9B"/>
<path opacity="0.36" d="M193.016 183.626C193.016 183.626 217.282 194.001 213.572 231.989L189.865 229.954L193.016 183.626Z" fill="white"/>
<path d="M167.799 151.093L161.082 174.857L174.413 177.636L173.957 159.223L167.799 151.093Z" fill="#9E7A60"/>
<path opacity="0.31" d="M174.229 163.255C172.597 162.629 171.181 161.541 170.154 160.123C170.154 160.123 169.816 164.625 174.216 169.65L174.229 163.255Z" fill="#CE8172"/>
<path d="M161.081 174.857L168.983 176.54C168.983 176.54 205.174 180.455 206.645 200.917C208.116 221.38 187.665 273.71 187.665 273.71H132.831C132.831 273.71 88.8687 169.454 161.081 174.857Z" fill="#FFB98D"/>
<path d="M235.012 217.086C235.55 220.905 237.579 224.353 240.653 226.672C243.726 228.992 247.592 229.994 251.402 229.458C253.269 229.141 255.051 228.444 256.639 227.409C258.227 226.375 259.586 225.024 260.632 223.442C261.944 222.657 263.465 222.294 264.989 222.402C266.513 222.509 267.968 223.081 269.159 224.042L275.03 259.525L239.737 265.28C238.721 266.474 238.104 267.956 237.971 269.519C237.838 271.083 238.196 272.648 238.995 273.997C240.576 275.045 241.926 276.406 242.96 277.998C243.995 279.589 244.692 281.377 245.01 283.25C245.481 287.071 244.459 290.926 242.158 294.008C239.857 297.091 236.455 299.161 232.665 299.785C228.876 300.409 224.992 299.539 221.828 297.357C218.664 295.175 216.465 291.85 215.692 288.078C215.393 286.202 215.481 284.284 215.951 282.443C216.421 280.603 217.264 278.878 218.426 277.377C218.752 275.845 218.592 274.249 217.969 272.813C217.346 271.376 216.29 270.171 214.95 269.365L179.71 275.172L164.088 179.698L259.356 164.038L265.175 199.547C264.347 200.831 263.149 201.833 261.74 202.418C260.331 203.003 258.777 203.144 257.286 202.823C255.789 201.657 254.069 200.813 252.232 200.341C250.396 199.87 248.483 199.782 246.611 200.082C244.735 200.433 242.946 201.152 241.347 202.197C239.748 203.242 238.37 204.593 237.293 206.173C236.215 207.752 235.459 209.529 235.068 211.402C234.676 213.274 234.657 215.206 235.012 217.086Z" fill="#525F9B"/>
<path d="M181.611 151.745C181.611 151.745 180.947 159.249 178.825 163.947C178.62 164.401 178.327 164.81 177.964 165.15C177.601 165.49 177.174 165.756 176.708 165.93C176.243 166.105 175.747 166.185 175.25 166.168C174.753 166.15 174.265 166.034 173.813 165.826C172.315 165.248 171.015 164.248 170.071 162.947C169.126 161.645 168.577 160.099 168.488 158.492L167.421 151.614C167.35 150.214 167.715 148.826 168.466 147.643C169.217 146.46 170.317 145.54 171.613 145.011C176.325 142.78 182.249 147.23 181.611 151.745Z" fill="#9E7A60"/>
<path opacity="0.09" d="M144.847 184.37C144.847 184.37 163.607 195.293 159.246 219.996C154.885 244.7 147.659 253.196 163.151 249.751C178.643 246.305 184.983 238.514 184.983 238.514C184.983 238.514 196.114 247.649 184.983 254.527C173.852 261.404 158.751 261.417 156.343 273.645H132.832C132.832 273.645 130.931 268.295 128.405 261.548C125.88 254.801 144.847 184.37 144.847 184.37Z" fill="black"/>
<path d="M179.724 151.745C177.416 151.433 175.153 150.851 172.98 150.009C173.463 151.134 173.606 152.376 173.394 153.582C173.181 154.788 172.621 155.905 171.783 156.795C170.987 157.677 169.909 158.253 168.736 158.424C167.562 158.596 166.365 158.352 165.352 157.735L167.161 148.209C167.378 146.841 167.96 145.558 168.844 144.494C169.729 143.431 170.883 142.626 172.186 142.166C173.314 141.764 174.467 141.433 175.636 141.175C178.617 140.548 182.835 141.749 184.488 144.411C185.192 145.575 185.415 146.969 185.109 148.295C184.802 149.621 183.991 150.775 182.848 151.51C181.854 151.902 180.765 151.983 179.724 151.745Z" fill="#525F9B"/>
<path d="M172.616 156.73C172.616 156.73 173.072 153.872 170.885 153.703C168.698 153.533 168.021 157.618 170.885 158.583L172.616 156.73Z" fill="#9E7A60"/>
<path d="M115.946 228.074C115.946 228.074 112.861 259.812 128.405 261.587C140.121 262.892 158.959 256.275 170.454 253C175.427 251.577 177.835 250.912 181.663 247.415C186.245 243.212 192.598 240.224 187.651 236.244C178.877 229.158 172.654 241.281 172.654 241.281C165.324 243.411 157.769 244.673 150.145 245.039C148.717 245.076 147.3 244.778 146.006 244.169C144.713 243.56 143.579 242.658 142.694 241.533C141.81 240.408 141.199 239.092 140.91 237.689C140.622 236.286 140.664 234.835 141.033 233.451L143.936 222.515C143.936 222.515 123.341 203.162 115.946 228.074Z" fill="#9E7A60"/>
<path d="M180.947 156.495L182.51 159.719C182.597 159.903 182.637 160.106 182.625 160.309C182.614 160.513 182.551 160.71 182.444 160.883C182.336 161.056 182.187 161.199 182.009 161.299C181.832 161.399 181.632 161.452 181.429 161.454H178.5L180.947 156.495Z" fill="#9E7A60"/>
<path d="M132.103 181.917C124.019 188.141 111.873 201.883 112.107 227.826L145.317 229.954C145.317 229.954 154.911 201.465 144.848 184.37C144.224 183.311 143.382 182.397 142.378 181.689C141.375 180.981 140.233 180.494 139.027 180.262C137.822 180.03 136.581 180.058 135.388 180.343C134.194 180.628 133.074 181.165 132.103 181.917Z" fill="#FFB98D"/>
<path opacity="0.36" d="M132.103 181.917C124.019 188.141 111.873 201.883 112.107 227.826L145.317 229.954C145.317 229.954 154.911 201.465 144.848 184.37C144.224 183.311 143.382 182.397 142.378 181.689C141.375 180.981 140.233 180.494 139.027 180.262C137.822 180.03 136.581 180.058 135.388 180.343C134.194 180.628 133.074 181.165 132.103 181.917Z" fill="#FFB98D"/>
<path d="M237.551 218.3C236.433 219.568 235.777 221.178 235.689 222.867C235.575 223.767 235.743 224.679 236.171 225.477C236.472 225.938 236.867 226.329 237.329 226.626C239.139 227.931 241.925 228.074 243.37 226.404C244.127 225.371 244.508 224.109 244.45 222.828C244.45 221.341 244.62 218.378 243.422 217.217C241.821 215.69 238.8 216.917 237.551 218.3Z" fill="#FCC7A1"/>
</svg>
